<?xml version="1.0" encoding="utf-8"?>
<svg width="250px" height="137px" viewBox="0 0 250 137" version="1.1" xmlns:xlink="http://www.w3.org/1999/xlink" xmlns="http://www.w3.org/2000/svg">
  <g id="Bio">
    <path d="M64.915 0.0755944C83.9935 -1.96851 86.2505 38.0411 86.5175 47.5361C86.5486 48.6397 87.4483 49.5347 88.5524 49.5347L202.02 49.5346C203.124 49.5346 204.499 48.7796 205.092 47.8482C209.458 40.9867 225.657 15.5316 225.657 15.5316C232.157 9.64336 241.431 9.98461 244.204 15.5315C251.932 30.9875 251.932 95.9025 244.204 111.358C240.783 118.2 233.808 114.528 225.657 105.176L205.165 75.9018C204.532 74.9974 203.124 74.2642 202.02 74.2642L88.5523 74.2642C87.4483 74.2642 86.5487 75.1592 86.5191 76.2628C86.2593 85.9187 84.031 127.137 64.915 123.723C43.2767 119.859 0 89.7201 0 58.8082C0 27.8963 43.2766 2.39397 64.915 0.0755944Z" transform="translate(0 6.10672)" id="Rectangle" fill="#D3D3D3" fill-rule="evenodd" stroke="none" />
    <path d="M0 9.27357C0 4.15192 4.15192 0 9.27357 0C14.3952 0 18.5471 4.15192 18.5471 9.27357C18.5471 14.3952 14.3952 18.5471 9.27357 18.5471C4.15192 18.5471 0 14.3952 0 9.27357Z" transform="translate(37.09424 55.641388)" id="Ellipse" fill="#FFFFFF" fill-rule="evenodd" stroke="none" />
    <path d="M2.999 0L21.7305 0Q21.8778 0 22.0245 0.014441Q22.1711 0.028882 22.3156 0.0576249Q22.4601 0.0863679 22.6011 0.129136Q22.7421 0.171904 22.8782 0.228285Q23.0143 0.284667 23.1442 0.354118Q23.2742 0.42357 23.3967 0.505423Q23.5192 0.587276 23.6331 0.680742Q23.7469 0.774208 23.8511 0.878387Q23.9553 0.982566 24.0488 1.09645Q24.1422 1.21034 24.2241 1.33284Q24.3059 1.45535 24.3754 1.58528Q24.4448 1.71522 24.5012 1.85133Q24.5576 1.98745 24.6004 2.12844Q24.6431 2.26942 24.6719 2.41392Q24.7006 2.55842 24.7151 2.70505Q24.7295 2.85167 24.7295 2.999L24.7295 133.013Q24.7295 133.161 24.7151 133.307Q24.7006 133.454 24.6719 133.598Q24.6431 133.743 24.6004 133.884Q24.5576 134.025 24.5012 134.161Q24.4448 134.297 24.3754 134.427Q24.3059 134.557 24.2241 134.679Q24.1422 134.802 24.0488 134.916Q23.9553 135.03 23.8511 135.134Q23.7469 135.238 23.6331 135.332Q23.5192 135.425 23.3967 135.507Q23.2742 135.589 23.1442 135.658Q23.0143 135.728 22.8782 135.784Q22.7421 135.84 22.6011 135.883Q22.4601 135.926 22.3156 135.955Q22.1711 135.983 22.0245 135.998Q21.8778 136.012 21.7305 136.012L2.999 136.012Q2.85167 136.012 2.70505 135.998Q2.55842 135.983 2.41392 135.955Q2.26942 135.926 2.12844 135.883Q1.98745 135.84 1.85133 135.784Q1.71522 135.728 1.58528 135.658Q1.45535 135.589 1.33284 135.507Q1.21034 135.425 1.09645 135.332Q0.982566 135.238 0.878387 135.134Q0.774208 135.03 0.680742 134.916Q0.587276 134.802 0.505423 134.679Q0.42357 134.557 0.354118 134.427Q0.284667 134.297 0.228285 134.161Q0.171904 134.025 0.129136 133.884Q0.0863679 133.743 0.0576249 133.598Q0.028882 133.454 0.014441 133.307Q0 133.161 0 133.013L0 2.999Q0 2.85167 0.014441 2.70505Q0.028882 2.55842 0.0576249 2.41392Q0.0863679 2.26942 0.129136 2.12844Q0.171904 1.98745 0.228285 1.85133Q0.284667 1.71522 0.354118 1.58528Q0.42357 1.45535 0.505423 1.33284Q0.587276 1.21034 0.680742 1.09645Q0.774208 0.982566 0.878387 0.878387Q0.982566 0.774208 1.09645 0.680742Q1.21034 0.587276 1.33284 0.505423Q1.45535 0.42357 1.58528 0.354118Q1.71522 0.284667 1.85133 0.228285Q1.98745 0.171904 2.12844 0.129136Q2.26942 0.0863679 2.41392 0.0576249Q2.55842 0.028882 2.70505 0.014441Q2.85167 0 2.999 0L2.999 0Z" transform="translate(111.282776 0)" id="Rectangle-2" fill="#D3D3D3" fill-rule="evenodd" stroke="none" />
    <path d="M2.999 0L21.7305 0Q21.8779 0 22.0245 0.014441Q22.1711 0.028882 22.3156 0.0576249Q22.4601 0.0863679 22.6011 0.129136Q22.7421 0.171904 22.8782 0.228285Q23.0143 0.284667 23.1442 0.354118Q23.2742 0.42357 23.3967 0.505423Q23.5192 0.587276 23.6331 0.680742Q23.747 0.774208 23.8511 0.878387Q23.9553 0.982566 24.0488 1.09645Q24.1422 1.21034 24.2241 1.33284Q24.306 1.45535 24.3754 1.58528Q24.4449 1.71522 24.5012 1.85133Q24.5576 1.98745 24.6004 2.12844Q24.6432 2.26942 24.6719 2.41392Q24.7006 2.55842 24.7151 2.70505Q24.7295 2.85167 24.7295 2.999L24.7295 95.9191Q24.7295 96.0664 24.7151 96.213Q24.7006 96.3596 24.6719 96.5042Q24.6432 96.6487 24.6004 96.7896Q24.5576 96.9306 24.5012 97.0667Q24.4449 97.2029 24.3754 97.3328Q24.306 97.4627 24.2241 97.5852Q24.1422 97.7077 24.0488 97.8216Q23.9553 97.9355 23.8511 98.0397Q23.747 98.1439 23.6331 98.2373Q23.5192 98.3308 23.3967 98.4126Q23.2742 98.4945 23.1442 98.5639Q23.0143 98.6334 22.8782 98.6898Q22.7421 98.7462 22.6011 98.7889Q22.4601 98.8317 22.3156 98.8604Q22.1711 98.8892 22.0245 98.9036Q21.8779 98.9181 21.7305 98.9181L2.999 98.9181Q2.85167 98.9181 2.70505 98.9036Q2.55842 98.8892 2.41392 98.8604Q2.26942 98.8317 2.12844 98.7889Q1.98745 98.7462 1.85133 98.6898Q1.71522 98.6334 1.58528 98.5639Q1.45535 98.4945 1.33284 98.4126Q1.21034 98.3308 1.09645 98.2373Q0.982566 98.1439 0.878387 98.0397Q0.774208 97.9355 0.680742 97.8216Q0.587276 97.7077 0.505423 97.5852Q0.42357 97.4627 0.354118 97.3328Q0.284667 97.2028 0.228285 97.0667Q0.171904 96.9306 0.129136 96.7896Q0.0863679 96.6487 0.0576249 96.5041Q0.028882 96.3596 0.014441 96.213Q0 96.0664 0 95.9191L0 2.999Q0 2.85167 0.014441 2.70505Q0.028882 2.55842 0.0576249 2.41392Q0.0863679 2.26942 0.129136 2.12844Q0.171904 1.98745 0.228285 1.85133Q0.284667 1.71522 0.354118 1.58528Q0.42357 1.45535 0.505423 1.33284Q0.587276 1.21034 0.680742 1.09645Q0.774208 0.982566 0.878387 0.878387Q0.982566 0.774208 1.09645 0.680742Q1.21034 0.587276 1.33284 0.505423Q1.45535 0.42357 1.58528 0.354118Q1.71522 0.284667 1.85133 0.228285Q1.98745 0.171904 2.12844 0.129136Q2.26942 0.0863679 2.41392 0.0576249Q2.55842 0.028882 2.70505 0.014441Q2.85167 0 2.999 0L2.999 0Z" transform="translate(160.74176 18.54712)" id="Rectangle-3" fill="#D3D3D3" fill-rule="evenodd" stroke="none" />
  </g>
</svg>