<?xml version="1.0" encoding="utf-8"?>
<svg width="350px" height="350px" viewBox="0 0 350 350" version="1.1" xmlns:xlink="http://www.w3.org/1999/xlink" xmlns="http://www.w3.org/2000/svg">
  <g id="Gelbe-Tonne">
    <path d="M0 0L350 0L350 350L0 350L0 0Z" id="Rectangle-4" fill="#D3D3D3" fill-opacity="0" fill-rule="evenodd" stroke="none" />
    <path d="M96.0014 65.3066L253.302 56.2812Q253.696 56.2586 254.092 56.2567Q254.487 56.2549 254.882 56.2739Q255.276 56.2929 255.67 56.3327Q256.063 56.3724 256.453 56.4328Q256.844 56.4932 257.231 56.5741Q257.618 56.655 258 56.7562Q258.382 56.8574 258.758 56.9785Q259.134 57.0997 259.504 57.2405Q259.873 57.3813 260.234 57.5413Q260.596 57.7014 260.948 57.8802Q261.301 58.0591 261.643 58.2562Q261.986 58.4534 262.318 58.6684Q262.649 58.8833 262.969 59.1154Q263.289 59.3475 263.596 59.5962Q263.904 59.8448 264.197 60.1093Q264.491 60.3737 264.77 60.6533Q265.05 60.9329 265.314 61.2268Q265.578 61.5207 265.827 61.8281Q266.075 62.1355 266.307 62.4556Q266.539 62.7757 266.754 63.1075Q266.968 63.4394 267.165 63.7821Q267.362 64.1247 267.541 64.4773Q267.719 64.8299 267.879 65.1914Q268.039 65.5529 268.18 65.9223Q268.32 66.2917 268.441 66.6681Q268.562 67.0444 268.663 67.4265Q268.764 67.8087 268.844 68.1956Q268.925 68.5825 268.985 68.9732Q269.045 69.3638 269.085 69.7571Q269.124 70.1504 269.143 70.5452Q269.162 70.94 269.16 71.3352Q269.158 71.7305 269.135 72.125L256.956 281.87Q256.935 282.224 256.898 282.577Q256.861 282.93 256.807 283.28Q256.753 283.631 256.683 283.978Q256.612 284.326 256.525 284.67Q256.439 285.013 256.336 285.353Q256.233 285.692 256.114 286.026Q255.995 286.36 255.861 286.689Q255.726 287.017 255.577 287.338Q255.427 287.659 255.262 287.973Q255.097 288.287 254.918 288.593Q254.738 288.899 254.544 289.196Q254.351 289.493 254.143 289.781Q253.936 290.068 253.715 290.345Q253.494 290.623 253.26 290.889Q253.026 291.156 252.78 291.411Q252.534 291.667 252.276 291.91Q252.018 292.153 251.749 292.384Q251.48 292.615 251.2 292.833Q250.92 293.051 250.631 293.255Q250.341 293.46 250.042 293.65Q249.743 293.841 249.435 294.017Q249.127 294.193 248.812 294.355Q248.496 294.516 248.173 294.663Q247.85 294.809 247.52 294.94Q247.191 295.071 246.856 295.186Q246.52 295.301 246.18 295.401Q245.839 295.5 245.495 295.583Q245.15 295.666 244.801 295.733Q244.453 295.799 244.102 295.849Q243.751 295.9 243.398 295.933Q243.045 295.966 242.691 295.983Q242.337 296 241.982 296L113.135 296Q112.786 296 112.437 295.984Q112.088 295.967 111.741 295.935Q111.393 295.902 111.047 295.854Q110.701 295.805 110.358 295.741Q110.015 295.676 109.675 295.595Q109.335 295.515 108.999 295.419Q108.664 295.322 108.333 295.21Q108.002 295.099 107.677 294.972Q107.351 294.844 107.032 294.702Q106.713 294.56 106.401 294.403Q106.089 294.247 105.785 294.075Q105.48 293.904 105.184 293.719Q104.888 293.534 104.601 293.335Q104.314 293.137 104.036 292.925Q103.759 292.713 103.491 292.488Q103.224 292.264 102.967 292.027Q102.71 291.79 102.465 291.542Q102.219 291.293 101.986 291.034Q101.752 290.774 101.531 290.504Q101.31 290.234 101.101 289.954Q100.893 289.673 100.697 289.384Q100.502 289.094 100.321 288.796Q100.139 288.497 99.9719 288.191Q99.8045 287.885 99.6515 287.571Q99.4985 287.257 99.3604 286.936Q99.2222 286.615 99.0991 286.288Q98.9759 285.961 98.8682 285.629Q98.7604 285.297 98.6682 284.96Q98.576 284.624 98.4996 284.283Q98.4232 283.942 98.3628 283.598Q98.3023 283.254 98.2579 282.908Q98.2135 282.561 98.1853 282.213L81.9107 81.4932Q81.8805 81.1207 81.8689 80.7471Q81.8573 80.3735 81.8643 79.9999Q81.8713 79.6262 81.8969 79.2533Q81.9225 78.8805 81.9666 78.5094Q82.0108 78.1383 82.0733 77.7698Q82.1359 77.4013 82.2168 77.0364Q82.2976 76.6715 82.3965 76.3111Q82.4954 75.9507 82.6122 75.5957Q82.7289 75.2407 82.8632 74.8919Q82.9975 74.5431 83.149 74.2014Q83.3005 73.8598 83.4688 73.5261Q83.6371 73.1924 83.8218 72.8675Q84.0066 72.5426 84.2072 72.2273Q84.4079 71.912 84.624 71.6071Q84.8402 71.3022 85.0712 71.0085Q85.3023 70.7147 85.5477 70.4328Q85.7931 70.1509 86.0522 69.8816Q86.3113 69.6123 86.5835 69.3562Q86.8558 69.1001 87.1404 68.8579Q87.425 68.6157 87.7214 68.388Q88.0177 68.1603 88.325 67.9476Q88.6323 67.7349 88.9499 67.5378Q89.2674 67.3407 89.5943 67.1596Q89.9213 66.9786 90.2569 66.814Q90.5924 66.6495 90.9358 66.5018Q91.2791 66.3542 91.6294 66.2238Q91.9796 66.0935 92.336 65.9807Q92.6923 65.868 93.0538 65.7731Q93.4153 65.6783 93.7811 65.6016Q94.1468 65.5248 94.516 65.4664Q94.8851 65.408 95.2567 65.368Q95.6283 65.328 96.0014 65.3066Z" id="Rectangle" fill="#D4B539" fill-rule="evenodd" stroke="none" />
    <path d="M218.868 271.155C218.868 257.434 229.992 246.311 243.713 246.311C257.434 246.311 268.558 257.434 268.558 271.155C268.558 284.877 257.434 296 243.713 296C229.992 296 218.868 284.877 218.868 271.155Z" id="Ellipse-2" fill="#988D16" fill-rule="evenodd" stroke="none" />
    <path d="M231.291 271.155C231.291 264.295 236.852 258.733 243.713 258.733C250.574 258.733 256.135 264.295 256.135 271.155C256.135 278.016 250.574 283.578 243.713 283.578C236.852 283.578 231.291 278.016 231.291 271.155Z" id="Ellipse" fill="#D4B539" fill-rule="evenodd" stroke="none" />
    <path d="M77.799 55.3168L272.981 55.3168Q273.178 55.3168 273.374 55.3264Q273.57 55.336 273.765 55.3553Q273.961 55.3745 274.155 55.4034Q274.349 55.4322 274.542 55.4705Q274.734 55.5088 274.925 55.5565Q275.115 55.6042 275.303 55.6612Q275.491 55.7182 275.676 55.7844Q275.861 55.8505 276.042 55.9257Q276.224 56.0008 276.401 56.0848Q276.579 56.1687 276.752 56.2613Q276.925 56.3538 277.093 56.4548Q277.262 56.5558 277.425 56.6648Q277.588 56.7739 277.746 56.8909Q277.904 57.0079 278.056 57.1325Q278.207 57.257 278.353 57.3889Q278.498 57.5208 278.637 57.6596Q278.776 57.7985 278.908 57.944Q279.04 58.0895 279.164 58.2413Q279.289 58.3931 279.406 58.5508Q279.523 58.7085 279.632 58.8718Q279.741 59.035 279.842 59.2035Q279.943 59.3719 280.036 59.5451Q280.128 59.7182 280.212 59.8958Q280.296 60.0733 280.371 60.2547Q280.446 60.4361 280.513 60.621Q280.579 60.8059 280.636 60.9938Q280.693 61.1817 280.74 61.3722Q280.788 61.5626 280.826 61.7552Q280.865 61.9478 280.894 62.1421Q280.922 62.3363 280.942 62.5317Q280.961 62.7271 280.97 62.9233Q280.98 63.1194 280.98 63.3158L280.98 76.8209Q280.98 77.0172 280.971 77.2134Q280.961 77.4095 280.942 77.6049Q280.922 77.8003 280.894 77.9946Q280.865 78.1888 280.826 78.3814Q280.788 78.574 280.74 78.7645Q280.693 78.9549 280.636 79.1429Q280.579 79.3308 280.513 79.5157Q280.446 79.7005 280.371 79.882Q280.296 80.0634 280.212 80.2409Q280.128 80.4184 280.036 80.5916Q279.943 80.7647 279.842 80.9332Q279.741 81.1016 279.632 81.2649Q279.523 81.4281 279.406 81.5859Q279.289 81.7436 279.164 81.8954Q279.04 82.0472 278.908 82.1927Q278.776 82.3382 278.637 82.477Q278.498 82.6159 278.353 82.7477Q278.207 82.8796 278.056 83.0042Q277.904 83.1288 277.746 83.2457Q277.588 83.3627 277.425 83.4718Q277.262 83.5809 277.093 83.6818Q276.925 83.7828 276.752 83.8754Q276.579 83.9679 276.401 84.0519Q276.224 84.1358 276.042 84.211Q275.861 84.2861 275.676 84.3523Q275.491 84.4184 275.303 84.4754Q275.115 84.5324 274.925 84.5801Q274.734 84.6279 274.542 84.6662Q274.349 84.7045 274.155 84.7333Q273.961 84.7621 273.765 84.7814Q273.57 84.8006 273.374 84.8102Q273.178 84.8199 272.981 84.8199L77.799 84.8199Q77.6027 84.8199 77.4065 84.8102Q77.2104 84.8006 77.015 84.7814Q76.8196 84.7621 76.6253 84.7333Q76.4311 84.7045 76.2385 84.6662Q76.0459 84.6279 75.8554 84.5801Q75.6649 84.5324 75.477 84.4754Q75.2891 84.4184 75.1042 84.3523Q74.9193 84.2861 74.7379 84.211Q74.5565 84.1358 74.379 84.0519Q74.2015 83.9679 74.0283 83.8754Q73.8551 83.7828 73.6867 83.6818Q73.5183 83.5809 73.355 83.4718Q73.1917 83.3627 73.034 83.2457Q72.8763 83.1288 72.7245 83.0042Q72.5727 82.8796 72.4272 82.7477Q72.2817 82.6159 72.1429 82.477Q72.004 82.3382 71.8722 82.1927Q71.7403 82.0472 71.6157 81.8954Q71.4911 81.7436 71.3742 81.5859Q71.2572 81.4281 71.1481 81.2649Q71.039 81.1016 70.938 80.9332Q70.8371 80.7647 70.7445 80.5916Q70.652 80.4184 70.568 80.2409Q70.484 80.0634 70.4089 79.882Q70.3338 79.7005 70.2676 79.5157Q70.2014 79.3308 70.1444 79.1429Q70.0874 78.9549 70.0397 78.7645Q69.992 78.574 69.9537 78.3814Q69.9154 78.1888 69.8866 77.9946Q69.8578 77.8003 69.8385 77.6049Q69.8193 77.4095 69.8097 77.2134Q69.8 77.0172 69.8 76.8209L69.8 63.3158Q69.8 63.1194 69.8097 62.9233Q69.8193 62.7272 69.8385 62.5317Q69.8578 62.3363 69.8866 62.1421Q69.9154 61.9478 69.9537 61.7552Q69.992 61.5626 70.0397 61.3722Q70.0874 61.1817 70.1445 60.9938Q70.2015 60.8059 70.2676 60.621Q70.3338 60.4361 70.4089 60.2547Q70.4841 60.0733 70.568 59.8957Q70.652 59.7182 70.7445 59.5451Q70.8371 59.3719 70.938 59.2035Q71.039 59.035 71.1481 58.8718Q71.2572 58.7085 71.3742 58.5508Q71.4911 58.393 71.6157 58.2413Q71.7403 58.0895 71.8722 57.944Q72.004 57.7985 72.1429 57.6596Q72.2817 57.5208 72.4272 57.3889Q72.5727 57.257 72.7245 57.1325Q72.8763 57.0079 73.034 56.8909Q73.1917 56.7739 73.355 56.6648Q73.5183 56.5558 73.6867 56.4548Q73.8551 56.3538 74.0283 56.2613Q74.2015 56.1687 74.379 56.0848Q74.5565 56.0008 74.7379 55.9257Q74.9194 55.8505 75.1042 55.7844Q75.2891 55.7182 75.477 55.6612Q75.6649 55.6042 75.8554 55.5565Q76.0459 55.5088 76.2385 55.4705Q76.4311 55.4322 76.6253 55.4034Q76.8196 55.3745 77.015 55.3553Q77.2104 55.336 77.4065 55.3264Q77.6027 55.3168 77.799 55.3168Z" id="Rectangle-2" fill="#D6C337" fill-rule="evenodd" stroke="none" />
    <path d="M169.861 46L270.981 46Q271.227 46 271.472 46.012Q271.717 46.0241 271.961 46.0481Q272.206 46.0722 272.448 46.1082Q272.691 46.1442 272.932 46.1921Q273.173 46.24 273.411 46.2996Q273.649 46.3593 273.884 46.4305Q274.119 46.5018 274.35 46.5845Q274.581 46.6672 274.808 46.7611Q275.034 46.8551 275.256 46.96Q275.478 47.065 275.695 47.1807Q275.911 47.2964 276.122 47.4226Q276.332 47.5488 276.536 47.6851Q276.74 47.8215 276.938 47.9677Q277.135 48.1139 277.324 48.2697Q277.514 48.4254 277.696 48.5902Q277.878 48.7551 278.052 48.9286Q278.225 49.1022 278.39 49.2841Q278.555 49.466 278.71 49.6557Q278.866 49.8454 279.012 50.0426Q279.159 50.2398 279.295 50.4439Q279.431 50.6479 279.558 50.8585Q279.684 51.069 279.799 51.2855Q279.915 51.502 280.02 51.7239Q280.125 51.9458 280.219 52.1725Q280.313 52.3993 280.396 52.6304Q280.478 52.8615 280.55 53.0964Q280.621 53.3313 280.681 53.5694Q280.74 53.8075 280.788 54.0483Q280.836 54.289 280.872 54.5318Q280.908 54.7746 280.932 55.0189Q280.956 55.2632 280.968 55.5084Q280.98 55.7535 280.98 55.999L280.98 60.8457Q280.98 61.0912 280.968 61.3363Q280.956 61.5815 280.932 61.8258Q280.908 62.0701 280.872 62.3129Q280.836 62.5557 280.788 62.7964Q280.74 63.0372 280.681 63.2753Q280.621 63.5134 280.55 63.7483Q280.478 63.9832 280.396 64.2143Q280.313 64.4454 280.219 64.6722Q280.125 64.8989 280.02 65.1208Q279.915 65.3427 279.799 65.5592Q279.684 65.7757 279.558 65.9862Q279.431 66.1968 279.295 66.4009Q279.159 66.605 279.012 66.8021Q278.866 66.9993 278.71 67.189Q278.555 67.3788 278.39 67.5606Q278.225 67.7425 278.052 67.9161Q277.878 68.0896 277.696 68.2545Q277.514 68.4193 277.324 68.575Q277.135 68.7308 276.938 68.877Q276.74 69.0232 276.536 69.1596Q276.332 69.2959 276.122 69.4221Q275.911 69.5483 275.695 69.664Q275.478 69.7798 275.256 69.8847Q275.034 69.9896 274.808 70.0836Q274.581 70.1775 274.35 70.2602Q274.119 70.3429 273.884 70.4142Q273.649 70.4854 273.411 70.5451Q273.173 70.6047 272.932 70.6526Q272.691 70.7005 272.448 70.7365Q272.206 70.7725 271.961 70.7966Q271.717 70.8206 271.472 70.8327Q271.227 70.8447 270.981 70.8447L169.861 70.8447Q169.616 70.8447 169.371 70.8327Q169.125 70.8206 168.881 70.7966Q168.637 70.7725 168.394 70.7365Q168.151 70.7005 167.91 70.6526Q167.67 70.6047 167.432 70.5451Q167.193 70.4854 166.959 70.4142Q166.724 70.3429 166.493 70.2602Q166.261 70.1775 166.035 70.0836Q165.808 69.9896 165.586 69.8847Q165.364 69.7797 165.148 69.664Q164.931 69.5483 164.721 69.4221Q164.51 69.2959 164.306 69.1596Q164.102 69.0232 163.905 68.877Q163.708 68.7308 163.518 68.575Q163.328 68.4193 163.146 68.2545Q162.964 68.0896 162.791 67.9161Q162.617 67.7425 162.452 67.5606Q162.288 67.3788 162.132 67.189Q161.976 66.9993 161.83 66.8021Q161.684 66.605 161.547 66.4009Q161.411 66.1968 161.285 65.9862Q161.159 65.7757 161.043 65.5592Q160.927 65.3427 160.822 65.1208Q160.717 64.8989 160.623 64.6722Q160.529 64.4454 160.447 64.2143Q160.364 63.9832 160.293 63.7483Q160.221 63.5134 160.162 63.2753Q160.102 63.0372 160.054 62.7964Q160.006 62.5557 159.97 62.3129Q159.934 62.0701 159.91 61.8258Q159.886 61.5815 159.874 61.3363Q159.862 61.0912 159.862 60.8457L159.862 55.999Q159.862 55.7535 159.874 55.5084Q159.886 55.2632 159.91 55.0189Q159.934 54.7746 159.97 54.5318Q160.006 54.289 160.054 54.0483Q160.102 53.8075 160.162 53.5694Q160.221 53.3313 160.293 53.0964Q160.364 52.8615 160.447 52.6304Q160.529 52.3993 160.623 52.1725Q160.717 51.9458 160.822 51.7239Q160.927 51.502 161.043 51.2855Q161.159 51.069 161.285 50.8585Q161.411 50.6479 161.547 50.4438Q161.684 50.2398 161.83 50.0426Q161.976 49.8454 162.132 49.6557Q162.288 49.466 162.452 49.2841Q162.617 49.1022 162.791 48.9286Q162.964 48.7551 163.146 48.5902Q163.328 48.4254 163.518 48.2697Q163.708 48.1139 163.905 47.9677Q164.102 47.8215 164.306 47.6851Q164.51 47.5488 164.721 47.4226Q164.931 47.2964 165.148 47.1807Q165.364 47.065 165.586 46.96Q165.808 46.8551 166.035 46.7611Q166.261 46.6672 166.493 46.5845Q166.724 46.5018 166.959 46.4305Q167.193 46.3593 167.432 46.2997Q167.67 46.24 167.91 46.1921Q168.151 46.1442 168.394 46.1082Q168.637 46.0722 168.881 46.0481Q169.125 46.0241 169.371 46.012Q169.616 46 169.861 46Z" id="Rectangle-3" fill="#D6C337" fill-rule="evenodd" stroke="none" />
  </g>
</svg>