<?xml version="1.0" encoding="utf-8"?>
<svg width="260px" height="260px" viewBox="0 0 260 260" version="1.1" xmlns:xlink="http://www.w3.org/1999/xlink" xmlns="http://www.w3.org/2000/svg">
  <g id="Glas" transform="matrix(0.70710677 0.70710677 -0.70710677 0.70710677 176.77673 0)">
    <path d="M0 37.7908L16.0019 13.0814L37.3377 31.9768L58.6735 0L80.0094 27.6163L90.6773 13.0814L101.345 27.6164L117.347 0L117.347 75.5816L0 75.5816L0 37.7908Z" transform="scale(0.9999999 0.9999999)" id="Rectangle-6" fill="#567B00" fill-rule="evenodd" stroke="none" />
    <path d="M0 23.2559L32.0038 61.0467L48.0056 34.8838L81.3429 71.2211L117.347 0L117.347 91.57L85.3433 156.977L32.0038 156.977L0 91.57L0 23.2559Z" transform="scale(0.9999999 0.9999999)" id="Rectangle-5" fill="#608A00" fill-rule="evenodd" stroke="none" />
    <path d="M0 11.4609L0 8.87029Q0 8.72095 0.0436735 8.57814L2.23444 1.41441Q2.28108 1.26187 2.35133 1.11866Q2.42158 0.975451 2.51364 0.845195Q2.60571 0.714938 2.71727 0.600929Q2.82883 0.48692 2.95705 0.392045Q3.08528 0.29717 3.22693 0.22383Q3.36858 0.150489 3.52007 0.10054Q3.67155 0.0505899 3.82904 0.025295Q3.98654 0 4.14605 0L59.8615 0Q60.021 0 60.1785 0.025295Q60.3359 0.0505899 60.4874 0.10054Q60.6389 0.150489 60.7806 0.22383Q60.9222 0.29717 61.0504 0.392046Q61.1787 0.486921 61.2902 0.600929Q61.4018 0.714938 61.4939 0.845195Q61.5859 0.975452 61.6562 1.11866Q61.7264 1.26187 61.7731 1.41441L63.9638 8.57814Q64.0075 8.72095 64.0075 8.87029L64.0075 11.4609Q64.0075 11.6279 63.9532 11.7859L56.4706 33.5351Q56.4201 33.6818 56.3476 33.819Q56.2751 33.9562 56.1822 34.0805Q56.0894 34.2049 55.9785 34.3134Q55.8676 34.4219 55.7413 34.5121Q55.615 34.6022 55.4763 34.6717Q55.3376 34.7413 55.1898 34.7886Q55.0421 34.8359 54.8888 34.8598Q54.7355 34.8838 54.5803 34.8838L9.4272 34.8838Q9.27203 34.8838 9.11873 34.8598Q8.96543 34.8359 8.81765 34.7886Q8.66988 34.7413 8.53118 34.6717Q8.39247 34.6022 8.26616 34.5121Q8.13986 34.4219 8.02896 34.3134Q7.91808 34.2049 7.82526 34.0805Q7.73245 33.9562 7.65993 33.819Q7.58742 33.6818 7.53694 33.5351L0.0543432 11.7859Q0 11.6279 0 11.4609Z" transform="matrix(0.9999999 0 0 0.9999999 26.67102 215.11621)" id="Rectangle-3" fill="#608A00" fill-rule="evenodd" stroke="none" />
    <path d="M0 0L53.3396 0L50.6726 58.1396L2.66698 58.1396L0 0Z" transform="matrix(0.9999999 0 0 0.9999999 32.005005 156.9765)" id="Rectangle" fill="#79AE00" fill-rule="evenodd" stroke="none" />
  </g>
</svg>