<?xml version="1.0" encoding="utf-8"?>
<svg width="250px" height="203px" viewBox="0 0 250 203" version="1.1" xmlns:xlink="http://www.w3.org/1999/xlink" xmlns="http://www.w3.org/2000/svg">
  <g id="Müllwagen">
    <path d="M0 0L154.762 0L154.762 44.6429L1.999 44.6429Q1.9008 44.6429 1.80306 44.6332Q1.70533 44.6236 1.60901 44.6044Q1.5127 44.5853 1.41872 44.5568Q1.32474 44.5283 1.23402 44.4907Q1.14329 44.4531 1.05668 44.4068Q0.970069 44.3605 0.888415 44.306Q0.806761 44.2514 0.730848 44.1891Q0.654935 44.1268 0.585494 44.0574Q0.516052 43.9879 0.453752 43.912Q0.391452 43.8361 0.336892 43.7544Q0.282333 43.6728 0.236039 43.5862Q0.189746 43.4996 0.152165 43.4088Q0.114584 43.3181 0.0860763 43.2241Q0.057569 43.1301 0.0384102 43.0338Q0.0192515 42.9375 0.00962573 42.8398Q0 42.7421 0 42.6439L0 0Z" transform="translate(0.00024414062 127.9762)" id="Rectangle" fill="#D35230" fill-rule="evenodd" stroke="none" />
    <path d="M53.5714 0L147.763 0Q147.935 0 148.106 0.0084306Q148.278 0.0168612 148.449 0.0337021Q148.62 0.050543 148.79 0.0757536Q148.96 0.100964 149.128 0.134484Q149.297 0.168003 149.464 0.209751Q149.63 0.251499 149.795 0.301375Q149.959 0.35125 150.121 0.409133Q150.283 0.467016 150.441 0.532767Q150.6 0.598518 150.755 0.671979Q150.911 0.74544 151.062 0.826433Q151.214 0.907426 151.361 0.995757Q151.508 1.08409 151.651 1.17954Q151.794 1.275 151.932 1.37735Q152.07 1.4797 152.203 1.5887Q152.336 1.6977 152.463 1.81308Q152.59 1.92847 152.712 2.04996Q152.833 2.17145 152.949 2.29876Q153.064 2.42607 153.173 2.55888Q153.282 2.6917 153.385 2.8297Q153.487 2.9677 153.582 3.11056Q153.678 3.25342 153.766 3.40079Q153.854 3.54817 153.935 3.69969Q154.016 3.85122 154.09 4.00654Q154.163 4.16186 154.229 4.3206Q154.295 4.47933 154.353 4.64111Q154.411 4.80288 154.461 4.9673Q154.51 5.13171 154.552 5.29838Q154.594 5.46505 154.627 5.63356Q154.661 5.80208 154.686 5.97203Q154.711 6.14199 154.728 6.31298Q154.745 6.48397 154.753 6.65558Q154.762 6.82718 154.762 6.999L154.762 130.952L0 130.952L0 72.9167L53.5714 0Z" id="Rectangle-2" fill="#FF8F6B" fill-rule="evenodd" stroke="none" />
    <path d="M3.999 0L7.90575 0Q8.10221 0 8.29773 0.0192563Q8.49324 0.0385126 8.68592 0.0768396Q8.8786 0.115167 9.0666 0.172196Q9.2546 0.229224 9.4361 0.304406Q9.61761 0.379587 9.79087 0.472197Q9.96413 0.564807 10.1275 0.673953Q10.2908 0.783099 10.4427 0.907731Q10.5946 1.03236 10.7335 1.17128Q10.8724 1.3102 10.997 1.46206Q11.1217 1.61393 11.2308 1.77727Q11.3399 1.94062 11.4326 2.11388Q11.5252 2.28715 11.6003 2.46865Q11.6755 2.65015 11.7326 2.83815Q11.7896 3.02615 11.8279 3.21883Q11.8662 3.41152 11.8855 3.60703Q11.9048 3.80254 11.9048 3.999L11.9048 106.12Q11.9048 106.317 11.8855 106.512Q11.8662 106.708 11.8279 106.9Q11.7896 107.093 11.7326 107.281Q11.6755 107.469 11.6003 107.65Q11.5252 107.832 11.4326 108.005Q11.3399 108.178 11.2308 108.342Q11.1217 108.505 10.997 108.657Q10.8724 108.809 10.7335 108.948Q10.5946 109.087 10.4427 109.211Q10.2908 109.336 10.1275 109.445Q9.96413 109.554 9.79087 109.647Q9.61761 109.739 9.4361 109.815Q9.2546 109.89 9.0666 109.947Q8.8786 110.004 8.68592 110.042Q8.49324 110.081 8.29773 110.1Q8.10221 110.119 7.90575 110.119L3.999 110.119Q3.80254 110.119 3.60703 110.1Q3.41152 110.081 3.21883 110.042Q3.02615 110.004 2.83815 109.947Q2.65015 109.89 2.46865 109.815Q2.28715 109.739 2.11388 109.647Q1.94062 109.554 1.77727 109.445Q1.61393 109.336 1.46206 109.211Q1.3102 109.087 1.17128 108.948Q1.03236 108.809 0.907731 108.657Q0.783099 108.505 0.673953 108.342Q0.564807 108.178 0.472197 108.005Q0.379587 107.832 0.304406 107.65Q0.229224 107.469 0.172196 107.281Q0.115167 107.093 0.0768396 106.9Q0.0385126 106.708 0.0192563 106.512Q0 106.317 0 106.12L0 3.999Q0 3.80254 0.0192563 3.60703Q0.0385126 3.41152 0.0768396 3.21883Q0.115167 3.02615 0.172196 2.83815Q0.229224 2.65015 0.304406 2.46865Q0.379587 2.28715 0.472197 2.11388Q0.564807 1.94062 0.673953 1.77727Q0.783099 1.61393 0.907731 1.46206Q1.03236 1.3102 1.17128 1.17128Q1.3102 1.03236 1.46206 0.907731Q1.61393 0.783099 1.77727 0.673953Q1.94062 0.564807 2.11388 0.472197Q2.28715 0.379587 2.46865 0.304406Q2.65015 0.229224 2.83815 0.172196Q3.02615 0.115167 3.21883 0.0768396Q3.41152 0.0385126 3.60703 0.0192563Q3.80254 0 3.999 0L3.999 0Z" transform="translate(127.9762 14.880981)" id="Rectangle-7" fill="#D35230" fill-rule="evenodd" stroke="none" />
    <path d="M3.999 0L7.90576 0Q8.10222 0 8.29773 0.0192563Q8.49325 0.0385126 8.68593 0.0768396Q8.87861 0.115167 9.06661 0.172196Q9.25461 0.229224 9.43611 0.304406Q9.61762 0.379587 9.79088 0.472197Q9.96414 0.564807 10.1275 0.673953Q10.2908 0.783099 10.4427 0.907731Q10.5946 1.03236 10.7335 1.17128Q10.8724 1.3102 10.997 1.46206Q11.1217 1.61393 11.2308 1.77727Q11.34 1.94062 11.4326 2.11388Q11.5252 2.28715 11.6004 2.46865Q11.6755 2.65015 11.7326 2.83815Q11.7896 3.02615 11.8279 3.21883Q11.8662 3.41152 11.8855 3.60703Q11.9048 3.80254 11.9048 3.999L11.9048 106.12Q11.9048 106.317 11.8855 106.512Q11.8662 106.708 11.8279 106.9Q11.7896 107.093 11.7326 107.281Q11.6755 107.469 11.6004 107.65Q11.5252 107.832 11.4326 108.005Q11.34 108.178 11.2308 108.342Q11.1217 108.505 10.997 108.657Q10.8724 108.809 10.7335 108.948Q10.5946 109.087 10.4427 109.211Q10.2908 109.336 10.1275 109.445Q9.96414 109.554 9.79088 109.647Q9.61762 109.739 9.43611 109.815Q9.25461 109.89 9.06661 109.947Q8.87861 110.004 8.68593 110.042Q8.49325 110.081 8.29773 110.1Q8.10222 110.119 7.90576 110.119L3.999 110.119Q3.80254 110.119 3.60703 110.1Q3.41152 110.081 3.21883 110.042Q3.02615 110.004 2.83815 109.947Q2.65015 109.89 2.46865 109.815Q2.28715 109.739 2.11388 109.647Q1.94062 109.554 1.77727 109.445Q1.61393 109.336 1.46206 109.211Q1.3102 109.087 1.17128 108.948Q1.03236 108.809 0.907731 108.657Q0.783099 108.505 0.673953 108.342Q0.564807 108.178 0.472197 108.005Q0.379587 107.832 0.304406 107.65Q0.229224 107.469 0.172196 107.281Q0.115167 107.093 0.0768396 106.9Q0.0385126 106.708 0.0192563 106.512Q0 106.317 0 106.12L0 3.999Q0 3.80254 0.0192563 3.60703Q0.0385126 3.41152 0.0768396 3.21883Q0.115167 3.02615 0.172196 2.83815Q0.229224 2.65015 0.304406 2.46865Q0.379587 2.28715 0.472197 2.11388Q0.564807 1.94062 0.673953 1.77727Q0.783099 1.61393 0.907731 1.46206Q1.03236 1.3102 1.17128 1.17128Q1.3102 1.03236 1.46206 0.907731Q1.61393 0.783099 1.77727 0.673953Q1.94062 0.564807 2.11388 0.472197Q2.28715 0.379587 2.46865 0.304406Q2.65015 0.229224 2.83815 0.172196Q3.02615 0.115167 3.21883 0.0768396Q3.41152 0.0385126 3.60703 0.0192563Q3.80254 0 3.999 0L3.999 0Z" transform="translate(98.21387 14.880981)" id="Rectangle-8" fill="#D35230" fill-rule="evenodd" stroke="none" />
    <path d="M3.999 0L7.90576 0Q8.10222 0 8.29773 0.0192563Q8.49325 0.0385126 8.68593 0.0768396Q8.87861 0.115167 9.06661 0.172196Q9.25461 0.229224 9.43611 0.304406Q9.61762 0.379587 9.79088 0.472197Q9.96414 0.564807 10.1275 0.673953Q10.2908 0.783099 10.4427 0.907731Q10.5946 1.03236 10.7335 1.17128Q10.8724 1.3102 10.997 1.46206Q11.1217 1.61393 11.2308 1.77727Q11.34 1.94062 11.4326 2.11388Q11.5252 2.28715 11.6004 2.46865Q11.6755 2.65015 11.7326 2.83815Q11.7896 3.02615 11.8279 3.21883Q11.8662 3.41152 11.8855 3.60703Q11.9048 3.80254 11.9048 3.999L11.9048 106.12Q11.9048 106.317 11.8855 106.512Q11.8662 106.708 11.8279 106.9Q11.7896 107.093 11.7326 107.281Q11.6755 107.469 11.6004 107.65Q11.5252 107.832 11.4326 108.005Q11.34 108.178 11.2308 108.342Q11.1217 108.505 10.997 108.657Q10.8724 108.809 10.7335 108.948Q10.5946 109.087 10.4427 109.211Q10.2908 109.336 10.1275 109.445Q9.96414 109.554 9.79088 109.647Q9.61762 109.739 9.43611 109.815Q9.25461 109.89 9.06661 109.947Q8.87861 110.004 8.68593 110.042Q8.49325 110.081 8.29773 110.1Q8.10222 110.119 7.90576 110.119L3.999 110.119Q3.80254 110.119 3.60703 110.1Q3.41152 110.081 3.21883 110.042Q3.02615 110.004 2.83815 109.947Q2.65015 109.89 2.46865 109.815Q2.28715 109.739 2.11388 109.647Q1.94062 109.554 1.77727 109.445Q1.61393 109.336 1.46206 109.211Q1.3102 109.087 1.17128 108.948Q1.03236 108.809 0.907731 108.657Q0.783099 108.505 0.673953 108.342Q0.564807 108.178 0.472197 108.005Q0.379587 107.832 0.304406 107.65Q0.229224 107.469 0.172196 107.281Q0.115167 107.093 0.0768396 106.9Q0.0385126 106.708 0.0192563 106.512Q0 106.317 0 106.12L0 3.999Q0 3.80254 0.0192563 3.60703Q0.0385126 3.41152 0.0768396 3.21883Q0.115167 3.02615 0.172196 2.83815Q0.229224 2.65015 0.304406 2.46865Q0.379587 2.28715 0.472197 2.11388Q0.564807 1.94062 0.673953 1.77727Q0.783099 1.61393 0.907731 1.46206Q1.03236 1.3102 1.17128 1.17128Q1.3102 1.03236 1.46206 0.907731Q1.61393 0.783099 1.77727 0.673953Q1.94062 0.564807 2.11388 0.472197Q2.28715 0.379587 2.46865 0.304406Q2.65015 0.229224 2.83815 0.172196Q3.02615 0.115167 3.21883 0.0768396Q3.41152 0.0385126 3.60703 0.0192563Q3.80254 0 3.999 0L3.999 0Z" transform="translate(68.45239 14.880981)" id="Rectangle-9" fill="#D35230" fill-rule="evenodd" stroke="none" />
    <path d="M3.999 0L7.90576 0Q8.10222 0 8.29773 0.0192563Q8.49325 0.0385126 8.68593 0.0768396Q8.87861 0.115167 9.06661 0.172196Q9.25461 0.229224 9.43611 0.304406Q9.61762 0.379587 9.79088 0.472197Q9.96414 0.564807 10.1275 0.673953Q10.2908 0.783099 10.4427 0.907731Q10.5946 1.03236 10.7335 1.17128Q10.8724 1.3102 10.997 1.46206Q11.1217 1.61393 11.2308 1.77727Q11.34 1.94062 11.4326 2.11388Q11.5252 2.28715 11.6004 2.46865Q11.6755 2.65015 11.7326 2.83815Q11.7896 3.02615 11.8279 3.21883Q11.8662 3.41152 11.8855 3.60703Q11.9048 3.80254 11.9048 3.999L11.9048 91.2391Q11.9048 91.4356 11.8855 91.6311Q11.8662 91.8266 11.8279 92.0193Q11.7896 92.2119 11.7326 92.3999Q11.6755 92.5879 11.6004 92.7694Q11.5252 92.9509 11.4326 93.1242Q11.34 93.2975 11.2308 93.4608Q11.1217 93.6242 10.997 93.776Q10.8724 93.9279 10.7335 94.0668Q10.5946 94.2057 10.4427 94.3304Q10.2908 94.455 10.1275 94.5641Q9.96414 94.6733 9.79088 94.7659Q9.61762 94.8585 9.43611 94.9337Q9.25461 95.0089 9.06661 95.0659Q8.87861 95.1229 8.68593 95.1613Q8.49325 95.1996 8.29773 95.2188Q8.10222 95.2381 7.90576 95.2381L3.999 95.2381Q3.80254 95.2381 3.60703 95.2188Q3.41152 95.1996 3.21883 95.1612Q3.02615 95.1229 2.83815 95.0659Q2.65015 95.0089 2.46865 94.9337Q2.28715 94.8585 2.11388 94.7659Q1.94062 94.6733 1.77727 94.5641Q1.61393 94.455 1.46206 94.3304Q1.3102 94.2057 1.17128 94.0668Q1.03236 93.9279 0.907731 93.776Q0.783099 93.6242 0.673953 93.4608Q0.564807 93.2975 0.472197 93.1242Q0.379587 92.951 0.304406 92.7694Q0.229224 92.5879 0.172196 92.3999Q0.115167 92.2119 0.0768396 92.0193Q0.0385126 91.8266 0.0192563 91.6311Q0 91.4356 0 91.2391L0 3.999Q0 3.80254 0.0192563 3.60703Q0.0385126 3.41152 0.0768396 3.21883Q0.115167 3.02615 0.172196 2.83815Q0.229224 2.65015 0.304406 2.46865Q0.379587 2.28715 0.472197 2.11388Q0.564807 1.94062 0.673953 1.77727Q0.783099 1.61393 0.907731 1.46206Q1.03236 1.3102 1.17128 1.17128Q1.3102 1.03236 1.46206 0.907731Q1.61393 0.783099 1.77727 0.673953Q1.94062 0.564807 2.11388 0.472197Q2.28715 0.379587 2.46865 0.304406Q2.65015 0.229224 2.83815 0.172196Q3.02615 0.115167 3.21883 0.0768396Q3.41152 0.0385126 3.60703 0.0192563Q3.80254 0 3.999 0L3.999 0Z" transform="translate(38.69043 29.761902)" id="Rectangle-10" fill="#D35230" fill-rule="evenodd" stroke="none" />
    <path d="M3.999 0L7.90576 0Q8.10222 0 8.29773 0.0192563Q8.49325 0.0385126 8.68593 0.0768396Q8.87861 0.115167 9.06661 0.172196Q9.25461 0.229224 9.43611 0.304406Q9.61762 0.379587 9.79088 0.472197Q9.96414 0.564807 10.1275 0.673953Q10.2908 0.783099 10.4427 0.907731Q10.5946 1.03236 10.7335 1.17128Q10.8724 1.3102 10.997 1.46206Q11.1217 1.61393 11.2308 1.77727Q11.34 1.94062 11.4326 2.11388Q11.5252 2.28715 11.6004 2.46865Q11.6755 2.65015 11.7326 2.83815Q11.7896 3.02615 11.8279 3.21883Q11.8662 3.41152 11.8855 3.60703Q11.9048 3.80254 11.9048 3.999L11.9048 55.5248Q11.9048 55.7213 11.8855 55.9168Q11.8662 56.1123 11.8279 56.305Q11.7896 56.4977 11.7326 56.6857Q11.6755 56.8737 11.6004 57.0552Q11.5252 57.2367 11.4326 57.4099Q11.34 57.5832 11.2308 57.7465Q11.1217 57.9099 10.997 58.0617Q10.8724 58.2136 10.7335 58.3525Q10.5946 58.4914 10.4427 58.6161Q10.2908 58.7407 10.1275 58.8499Q9.96414 58.959 9.79088 59.0516Q9.61762 59.1442 9.43611 59.2194Q9.25461 59.2946 9.06661 59.3516Q8.87861 59.4086 8.68593 59.447Q8.49325 59.4853 8.29773 59.5046Q8.10222 59.5238 7.90576 59.5238L3.999 59.5238Q3.80254 59.5238 3.60703 59.5046Q3.41152 59.4853 3.21883 59.447Q3.02615 59.4086 2.83815 59.3516Q2.65015 59.2946 2.46865 59.2194Q2.28715 59.1442 2.11388 59.0516Q1.94062 58.959 1.77727 58.8498Q1.61393 58.7407 1.46206 58.6161Q1.3102 58.4914 1.17128 58.3525Q1.03236 58.2136 0.907731 58.0617Q0.783099 57.9099 0.673953 57.7465Q0.564807 57.5832 0.472197 57.4099Q0.379587 57.2367 0.304406 57.0552Q0.229224 56.8737 0.172196 56.6857Q0.115167 56.4977 0.0768396 56.305Q0.0385126 56.1123 0.0192563 55.9168Q0 55.7213 0 55.5248L0 3.999Q0 3.80254 0.0192563 3.60703Q0.0385126 3.41152 0.0768396 3.21883Q0.115167 3.02615 0.172196 2.83815Q0.229224 2.65015 0.304406 2.46865Q0.379587 2.28715 0.472197 2.11388Q0.564807 1.94062 0.673953 1.77727Q0.783099 1.61393 0.907731 1.46206Q1.03236 1.3102 1.17128 1.17128Q1.3102 1.03236 1.46206 0.907731Q1.61393 0.783099 1.77727 0.673953Q1.94062 0.564807 2.11388 0.472197Q2.28715 0.379587 2.46865 0.304406Q2.65015 0.229224 2.83815 0.172196Q3.02615 0.115167 3.21883 0.0768396Q3.41152 0.0385126 3.60703 0.0192563Q3.80254 0 3.999 0L3.999 0Z" transform="translate(8.928589 65.4762)" id="Rectangle-11" fill="#D35230" fill-rule="evenodd" stroke="none" />
    <path d="M5.999 0L65.7677 0Q65.9155 0 66.0629 0.0109162Q66.2104 0.0218323 66.3566 0.043605Q66.5028 0.0653777 66.6471 0.0978881Q66.7913 0.130399 66.9327 0.173469Q67.0741 0.21654 67.212 0.269935Q67.3498 0.323331 67.4834 0.38676Q67.6169 0.45019 67.7454 0.523306Q67.8739 0.596422 67.9967 0.678827Q68.1194 0.761232 68.2357 0.852475Q68.3521 0.943717 68.4613 1.0433Q68.5706 1.14288 68.6722 1.25026Q68.7738 1.35764 68.8672 1.47223Q68.9607 1.58682 69.0453 1.70799Q69.13 1.82917 69.2056 1.95627Q69.2811 2.08336 69.347 2.21569Q69.4129 2.34801 69.4689 2.48485L95.2381 65.4762L95.2381 126.953Q95.2381 127.15 95.2188 127.345Q95.1996 127.541 95.1612 127.734Q95.1229 127.926 95.0659 128.114Q95.0089 128.302 94.9337 128.484Q94.8585 128.665 94.7659 128.839Q94.6733 129.012 94.5641 129.175Q94.455 129.338 94.3304 129.49Q94.2057 129.642 94.0668 129.781Q93.9279 129.92 93.776 130.045Q93.6242 130.169 93.4608 130.278Q93.2975 130.388 93.1242 130.48Q92.951 130.573 92.7694 130.648Q92.5879 130.723 92.3999 130.78Q92.2119 130.837 92.0193 130.876Q91.8266 130.914 91.6311 130.933Q91.4356 130.952 91.2391 130.952L0 130.952L0 5.999Q0 5.85173 0.00722606 5.70464Q0.0144521 5.55755 0.0288868 5.411Q0.0433215 5.26444 0.0649301 5.11876Q0.0865387 4.97309 0.115269 4.82865Q0.143999 4.68422 0.179782 4.54136Q0.215565 4.39851 0.258315 4.25758Q0.301064 4.11666 0.350677 3.978Q0.40029 3.83934 0.456647 3.70328Q0.513003 3.56722 0.575968 3.4341Q0.638933 3.30097 0.708354 3.17109Q0.777776 3.04121 0.853486 2.9149Q0.929196 2.78858 1.01101 2.66613Q1.09283 2.54369 1.18056 2.4254Q1.26828 2.30711 1.36171 2.19327Q1.45514 2.07944 1.55403 1.97032Q1.65293 1.8612 1.75707 1.75707Q1.8612 1.65293 1.97032 1.55403Q2.07944 1.45514 2.19327 1.36171Q2.30711 1.26829 2.4254 1.18056Q2.54369 1.09283 2.66613 1.01101Q2.78858 0.929196 2.9149 0.853486Q3.04121 0.777776 3.17109 0.708354Q3.30097 0.638933 3.4341 0.575968Q3.56722 0.513003 3.70328 0.456647Q3.83934 0.40029 3.978 0.350677Q4.11666 0.301064 4.25758 0.258315Q4.39851 0.215565 4.54136 0.179782Q4.68422 0.143999 4.82865 0.115269Q4.97309 0.0865387 5.11876 0.0649301Q5.26444 0.0433215 5.411 0.0288868Q5.55755 0.0144521 5.70464 0.00722606Q5.85173 0 5.999 0L5.999 0Z" transform="translate(154.76196 41.666687)" id="Rectangle-4" fill="#D96544" fill-rule="evenodd" stroke="none" />
    <path d="M0 29.7619C0 13.3249 13.3249 0 29.7619 0C46.199 0 59.5238 13.3249 59.5238 29.7619C59.5238 46.1989 46.199 59.5238 29.7619 59.5238C13.3249 59.5238 0 46.1989 0 29.7619Z" transform="translate(29.761963 142.85718)" id="Ellipse" fill="#586169" fill-rule="evenodd" stroke="none" />
    <path d="M0 29.7619C0 13.3249 13.3249 0 29.7619 0C46.1989 0 59.5238 13.3249 59.5238 29.7619C59.5238 46.1989 46.1989 59.5238 29.7619 59.5238C13.3249 59.5238 0 46.1989 0 29.7619Z" transform="translate(172.61902 142.85718)" id="Ellipse-2" fill="#586169" fill-rule="evenodd" stroke="none" />
    <path d="M0 14.881C0 6.66243 6.66243 0 14.881 0C23.0995 0 29.7619 6.66243 29.7619 14.881C29.7619 23.0995 23.0995 29.7619 14.881 29.7619C6.66243 29.7619 0 23.0995 0 14.881Z" transform="translate(44.642822 157.7381)" id="Ellipse-3" fill="#686868" fill-rule="evenodd" stroke="none" />
    <path d="M0 14.881C0 6.66243 6.66243 0 14.881 0C23.0995 0 29.7619 6.66243 29.7619 14.881C29.7619 23.0995 23.0995 29.7619 14.881 29.7619C6.66243 29.7619 0 23.0995 0 14.881Z" transform="translate(187.5 157.7381)" id="Ellipse-4" fill="#686868" fill-rule="evenodd" stroke="none" />
    <path d="M1.999 0L38.0141 0Q38.0886 0 38.1622 0.0110372Q38.2358 0.0220744 38.307 0.043905Q38.3782 0.0657356 38.4454 0.0978771Q38.5125 0.130019 38.5742 0.171761Q38.6358 0.213503 38.6906 0.263924Q38.7454 0.314344 38.7921 0.372329Q38.8388 0.430314 38.8764 0.494582Q38.914 0.55885 38.9417 0.627981L53.4285 36.8449Q53.5714 37.2024 53.5714 37.5874L53.5714 52.5724Q53.5714 52.6708 53.5522 52.7673Q53.533 52.8638 53.4954 52.9547Q53.4577 53.0456 53.4031 53.1274Q53.3484 53.2093 53.2788 53.2788Q53.2092 53.3484 53.1274 53.4031Q53.0456 53.4577 52.9547 53.4954Q52.8638 53.533 52.7673 53.5522Q52.6708 53.5714 52.5724 53.5714L0.999 53.5714Q0.900607 53.5714 0.804105 53.5522Q0.707602 53.533 0.616699 53.4954Q0.525796 53.4577 0.443985 53.4031Q0.362175 53.3484 0.2926 53.2788Q0.223026 53.2093 0.168362 53.1274Q0.113698 53.0456 0.0760443 52.9547Q0.038391 52.8638 0.0191955 52.7673Q0 52.6708 0 52.5724L0 1.999Q0 1.9008 0.00962573 1.80306Q0.0192515 1.70533 0.0384102 1.60901Q0.057569 1.5127 0.0860763 1.41872Q0.114584 1.32474 0.152165 1.23402Q0.189746 1.14329 0.236039 1.05668Q0.282333 0.970069 0.336892 0.888415Q0.391452 0.806761 0.453752 0.730848Q0.516052 0.654935 0.585494 0.585494Q0.654935 0.516052 0.730848 0.453752Q0.806761 0.391452 0.888415 0.336892Q0.970069 0.282333 1.05668 0.236039Q1.14329 0.189746 1.23402 0.152165Q1.32474 0.114584 1.41872 0.0860763Q1.5127 0.057569 1.60901 0.0384102Q1.70533 0.0192515 1.80306 0.00962573Q1.9008 0 1.999 0L1.999 0Z" transform="translate(178.57141 53.57141)" id="Rectangle-3" fill="#D35230" fill-rule="evenodd" stroke="none" />
  </g>
</svg>