<?xml version="1.0" encoding="utf-8"?>
<svg width="1910px" height="1910px" viewBox="0 0 1910 1910" version="1.1" xmlns:xlink="http://www.w3.org/1999/xlink" xmlns="http://www.w3.org/2000/svg">
  <g id="Questionaire" transform="translate(5 5)">
    <path d="M0 0L1900 0L1900 1900L0 1900L0 0Z" id="Rectangle" fill="#A5B975" fill-rule="evenodd" stroke="none" />
    <path d="M410 175L1490 175L1490 1770.82L410 1770.82L410 175Z" id="Rectangle" fill="#A76A01" fill-rule="evenodd" stroke="none" />
    <path d="M444 225L1456.32 225L1456.32 1720.82L444 1720.82L444 225Z" id="Rectangle-2" fill="#FFFFFF" fill-rule="evenodd" stroke="none" />
    <g id="Questionnaire" transform="translate(778.3386 328.80005)">
      <path d="M152.455 15.9091Q151.278 15.9091 150.435 15.108Q149.591 14.3068 149.591 13.1818Q149.591 12.0568 150.435 11.2557Q151.278 10.4546 152.455 10.4545Q153.631 10.4545 154.474 11.2557Q155.318 12.0568 155.318 13.1818Q155.318 14.3068 154.474 15.108Q153.631 15.9091 152.455 15.9091ZM283.707 15.108Q284.551 15.9091 285.727 15.9091Q286.903 15.9091 287.747 15.108Q288.591 14.3068 288.591 13.1818Q288.591 12.0568 287.747 11.2557Q286.903 10.4545 285.727 10.4545Q284.551 10.4546 283.707 11.2557Q282.864 12.0568 282.864 13.1818Q282.864 14.3068 283.707 15.108ZM35.4773 29Q35.4773 33.9091 33.875 37.6506Q32.2727 41.392 29.4943 43.6761L34.0455 49.7273L29.4091 49.7273L26.358 45.6364Q23.4602 46.9318 20.0682 46.9318Q15.6023 46.9318 12.125 44.75Q8.64773 42.5682 6.65341 38.5455Q4.65909 34.5227 4.65909 29Q4.65909 23.4773 6.65341 19.4545Q8.64773 15.4318 12.125 13.25Q15.6023 11.0682 20.0682 11.0682Q24.5341 11.0682 28.0114 13.25Q31.4886 15.4318 33.483 19.4545Q35.4773 23.4773 35.4773 29ZM142.341 23.6818L142.341 20.2727L136.75 20.2727L136.75 14L132.727 14L132.727 20.2727L128.773 20.2727L128.773 23.6818L132.727 23.6818L132.727 40.0455Q132.727 42.3295 133.793 43.8295Q134.858 45.3295 136.486 46.0625Q138.114 46.7955 139.818 46.7955Q140.943 46.7955 141.676 46.6335Q142.409 46.4716 142.818 46.3182L142 42.7045Q141.744 42.7557 141.318 42.8324Q140.892 42.9091 140.227 42.9091Q139.341 42.9091 138.548 42.6278Q137.756 42.3466 137.253 41.5028Q136.75 40.6591 136.75 38.9545L136.75 23.6818L142.341 23.6818ZM18.7045 35.5455L23.3409 35.5455L27.0568 40.4375Q29.0511 38.6989 30.2188 35.8267Q31.3864 32.9545 31.3864 29Q31.3864 24.4659 29.8778 21.3466Q28.3693 18.2273 25.804 16.625Q23.2386 15.0227 20.0682 15.0227Q16.8977 15.0227 14.3324 16.625Q11.767 18.2273 10.2585 21.3466Q8.75 24.4659 8.75 29Q8.75 33.5341 10.2585 36.6534Q11.767 39.7727 14.3324 41.375Q16.8977 42.9773 20.0682 42.9773Q22.0966 42.9773 23.8864 42.3295L18.7045 35.5455ZM297.068 46.4545L297.068 20.2727L300.955 20.2727L300.955 24.2273L301.227 24.2273Q301.943 22.2841 303.818 21.0739Q305.693 19.8636 308.045 19.8636Q308.489 19.8636 309.153 19.8807Q309.818 19.8977 310.159 19.9318L310.159 24.0227Q309.955 23.9716 309.23 23.8608Q308.506 23.75 307.705 23.75Q304.841 23.75 302.966 25.4886Q301.091 27.2273 301.091 29.8864L301.091 46.4545L297.068 46.4545ZM78.3665 45.321Q81.1023 47 84.8864 47Q88.875 47 91.6364 45.1761Q94.3977 43.3523 95.3182 40.3864L91.4318 39.2955Q90.6648 41.3409 88.9602 42.3636Q87.2557 43.3864 84.8864 43.3864Q81.3409 43.3864 79.0994 41.1534Q76.858 38.9205 76.7216 34.7273L95.7273 34.7273L95.7273 33.0227Q95.7273 29.358 94.7557 26.8523Q93.7841 24.3466 92.1477 22.821Q90.5114 21.2955 88.5171 20.6136Q86.5227 19.9318 84.4773 19.9318Q80.9318 19.9318 78.2813 21.6619Q75.6307 23.392 74.1563 26.4687Q72.6818 29.5455 72.6818 33.5682Q72.6818 37.5909 74.1563 40.6165Q75.6307 43.642 78.3665 45.321ZM122.409 26.1364L118.795 27.1591Q118.267 25.7955 117.023 24.6023Q115.778 23.4091 113.136 23.4091Q110.733 23.4091 109.139 24.5085Q107.545 25.608 107.545 27.2955Q107.545 28.7955 108.636 29.6648Q109.727 30.5341 112.045 31.1136L115.932 32.0682Q122.886 33.7727 122.886 39.1591Q122.886 41.4091 121.599 43.1818Q120.313 44.9545 118.011 45.9773Q115.71 47 112.659 47Q108.653 47 106.028 45.2614Q103.403 43.5227 102.705 40.1818L106.523 39.2273Q107.597 43.4545 112.591 43.4545Q115.403 43.4545 117.065 42.2528Q118.727 41.0511 118.727 39.3636Q118.727 36.5852 114.841 35.6818L110.477 34.6591Q106.881 33.8068 105.202 32.0085Q103.523 30.2102 103.523 27.5Q103.523 25.2841 104.776 23.5795Q106.028 21.875 108.202 20.9034Q110.375 19.9318 113.136 19.9318Q117.023 19.9318 119.247 21.6364Q121.472 23.3409 122.409 26.1364ZM168.219 45.3125Q170.886 47 174.432 47Q177.977 47 180.645 45.3125Q183.313 43.625 184.804 40.5909Q186.295 37.5568 186.295 33.5Q186.295 29.4091 184.804 26.358Q183.313 23.3068 180.645 21.6193Q177.977 19.9318 174.432 19.9318Q170.886 19.9318 168.219 21.6193Q165.551 23.3068 164.06 26.358Q162.568 29.4091 162.568 33.5Q162.568 37.5568 164.06 40.5909Q165.551 43.625 168.219 45.3125ZM198.455 30.7045L198.455 46.4545L194.432 46.4545L194.432 20.2727L198.318 20.2727L198.318 24.3636L198.659 24.3636Q199.58 22.3693 201.455 21.1506Q203.33 19.9318 206.295 19.9318Q210.267 19.9318 212.713 22.3693Q215.159 24.8068 215.159 29.8182L215.159 46.4545L211.136 46.4545L211.136 30.0909Q211.136 27.0057 209.534 25.2756Q207.932 23.5455 205.136 23.5455Q202.256 23.5455 200.355 25.4119Q198.455 27.2784 198.455 30.7045ZM228.545 46.4545L228.545 30.7045Q228.545 27.2784 230.446 25.4119Q232.347 23.5455 235.227 23.5455Q238.023 23.5455 239.625 25.2756Q241.227 27.0057 241.227 30.0909L241.227 46.4545L245.25 46.4545L245.25 29.8182Q245.25 24.8068 242.804 22.3693Q240.358 19.9318 236.386 19.9318Q233.42 19.9318 231.545 21.1506Q229.67 22.3693 228.75 24.3636L228.409 24.3636L228.409 20.2727L224.523 20.2727L224.523 46.4545L228.545 46.4545ZM262.318 47.0682Q259.83 47.0682 257.801 46.1222Q255.773 45.1761 254.58 43.3778Q253.386 41.5795 253.386 39.0227Q253.386 36.7727 254.273 35.3665Q255.159 33.9602 256.642 33.1591Q258.125 32.358 259.923 31.9574Q261.722 31.5568 263.545 31.3182Q265.932 31.0114 267.423 30.8494Q268.915 30.6875 269.605 30.2955Q270.295 29.9034 270.295 28.9318L270.295 28.7955Q270.295 26.2727 268.923 24.875Q267.551 23.4773 264.773 23.4773Q261.892 23.4773 260.256 24.7386Q258.619 26 257.955 27.4318L254.136 26.0682Q255.159 23.6818 256.872 22.3437Q258.585 21.0057 260.622 20.4687Q262.659 19.9318 264.636 19.9318Q265.898 19.9318 267.543 20.2301Q269.188 20.5284 270.73 21.4489Q272.273 22.3693 273.295 24.2273Q274.318 26.0852 274.318 29.2045L274.318 46.4545L270.295 46.4545L270.295 42.9091L270.091 42.9091Q269.682 43.7614 268.727 44.733Q267.773 45.7045 266.188 46.3864Q264.602 47.0682 262.318 47.0682ZM321.389 45.321Q324.125 47 327.909 47Q331.898 47 334.659 45.1761Q337.42 43.3523 338.341 40.3864L334.455 39.2955Q333.688 41.3409 331.983 42.3636Q330.278 43.3864 327.909 43.3864Q324.364 43.3864 322.122 41.1534Q319.881 38.9205 319.744 34.7273L338.75 34.7273L338.75 33.0227Q338.75 29.358 337.778 26.8523Q336.807 24.3466 335.17 22.821Q333.534 21.2955 331.54 20.6136Q329.545 19.9318 327.5 19.9318Q323.955 19.9318 321.304 21.6619Q318.653 23.392 317.179 26.4687Q315.705 29.5455 315.705 33.5682Q315.705 37.5909 317.179 40.6165Q318.653 43.642 321.389 45.321ZM60.5227 35.75L60.5227 20.2727L64.5455 20.2727L64.5455 46.4545L60.5227 46.4545L60.5227 42.0227L60.25 42.0227Q59.3295 44.017 57.3864 45.4063Q55.4432 46.7955 52.4773 46.7955Q48.7955 46.7955 46.4091 44.358Q44.0227 41.9205 44.0227 36.9091L44.0227 20.2727L48.0455 20.2727L48.0455 36.6364Q48.0455 39.5 49.6563 41.2045Q51.267 42.9091 53.7727 42.9091Q55.2727 42.9091 56.8324 42.142Q58.392 41.375 59.4574 39.7898Q60.5227 38.2045 60.5227 35.75ZM150.409 46.4545L150.409 20.2727L154.432 20.2727L154.432 46.4545L150.409 46.4545ZM283.682 20.2727L283.682 46.4545L287.705 46.4545L287.705 20.2727L283.682 20.2727ZM91.6364 31.25L76.7216 31.25Q76.858 29.2216 77.8296 27.4574Q78.8011 25.6932 80.4886 24.6193Q82.1761 23.5455 84.4773 23.5455Q87.75 23.5455 89.6932 25.7358Q91.6364 27.9261 91.6364 31.25ZM178.864 42.0057Q177.125 43.3864 174.432 43.3864Q171.739 43.3864 170 42.0057Q168.261 40.625 167.426 38.375Q166.591 36.125 166.591 33.5Q166.591 30.875 167.426 28.608Q168.261 26.3409 170 24.9432Q171.739 23.5455 174.432 23.5455Q177.125 23.5455 178.864 24.9432Q180.602 26.3409 181.438 28.608Q182.273 30.875 182.273 33.5Q182.273 36.125 181.438 38.375Q180.602 40.625 178.864 42.0057ZM334.659 31.25L319.744 31.25Q319.881 29.2216 320.852 27.4574Q321.824 25.6932 323.511 24.6193Q325.199 23.5455 327.5 23.5455Q330.773 23.5455 332.716 25.7358Q334.659 27.9261 334.659 31.25ZM262.932 43.4545Q265.318 43.4545 266.963 42.517Q268.608 41.5795 269.452 40.0966Q270.295 38.6136 270.295 36.9773L270.295 33.2955Q270.04 33.6023 269.179 33.8494Q268.318 34.0966 267.202 34.2756Q266.085 34.4545 265.037 34.5824Q263.989 34.7102 263.341 34.7955Q261.773 35 260.418 35.4517Q259.063 35.9034 258.236 36.7983Q257.409 37.6932 257.409 39.2273Q257.409 41.3239 258.969 42.3892Q260.528 43.4545 262.932 43.4545Z" />
    </g>
    <path d="M904 175.9C904 150.219 924.819 129.4 950.5 129.4C976.181 129.4 997 150.219 997 175.9C997 201.581 976.181 222.4 950.5 222.4C924.819 222.4 904 201.581 904 175.9Z" id="Ellipse" fill="#D3D3D3" fill-rule="evenodd" stroke="none" />
    <path d="M742 161.8L1158 161.8L1158 282.8L742 282.8L742 161.8Z" id="Rectangle-3" fill="#D3D3D3" fill-rule="evenodd" stroke="none" />
    <path d="M535 1652.97L1366.5 1652.97" id="Line-4" fill="none" fill-rule="evenodd" stroke="#808080" stroke-width="5" stroke-linecap="square" />
    <path d="M557.499 1666.35L1343.5 1666.35" id="Line-5" fill="none" fill-rule="evenodd" stroke="#808080" stroke-width="5" stroke-linecap="square" />
    <path d="M535 1679.7L1366.5 1679.7" id="Line-6" fill="none" fill-rule="evenodd" stroke="#808080" stroke-width="5" stroke-linecap="square" />
    <path d="M728.499 1693.1L1143 1693.1" id="Line-8" fill="none" fill-rule="evenodd" stroke="#808080" stroke-width="5" stroke-linecap="square" />
    <g id="Question" transform="translate(533.19946 478.59985)">
      <path d="M0.00012207 12.0001L496 12.0001" id="Line" fill="none" fill-rule="evenodd" stroke="#808080" stroke-width="5" stroke-linecap="square" />
      <path d="M0.00012207 27.0001L496 27.0001" id="Line-2" fill="none" fill-rule="evenodd" stroke="#808080" stroke-width="5" stroke-linecap="square" />
      <path d="M0 42.0001L496 42.0001" id="Line-3" fill="none" fill-rule="evenodd" stroke="#808080" stroke-width="5" stroke-linecap="square" />
      <path d="M746.5 0L802.5 0L802.5 56L746.5 56L746.5 0Z" id="Rectangle-4" fill="none" fill-rule="evenodd" stroke="#808080" stroke-width="5" />
      <path d="M657.5 0L713.5 0L713.5 56L657.5 56L657.5 0Z" id="Rectangle-5" fill="none" fill-rule="evenodd" stroke="#808080" stroke-width="5" />
      <path d="M568.5 0L624.5 0L624.5 56L568.5 56L568.5 0Z" id="Rectangle-6" fill="none" fill-rule="evenodd" stroke="#808080" stroke-width="5" />
    </g>
    <g id="Question-9" transform="translate(533.69946 1294.5999)">
      <path d="M0.00012207 12.0001L496 12.0001" id="Line" fill="none" fill-rule="evenodd" stroke="#808080" stroke-width="5" stroke-linecap="square" />
      <path d="M0.00012207 27.0001L496 27.0001" id="Line-2" fill="none" fill-rule="evenodd" stroke="#808080" stroke-width="5" stroke-linecap="square" />
      <path d="M0 42.0001L496 42.0001" id="Line-3" fill="none" fill-rule="evenodd" stroke="#808080" stroke-width="5" stroke-linecap="square" />
      <path d="M746.5 0L802.5 0L802.5 56L746.5 56L746.5 0Z" id="Rectangle-4" fill="none" fill-rule="evenodd" stroke="#808080" stroke-width="5" />
      <path d="M657.5 0L713.5 0L713.5 56L657.5 56L657.5 0Z" id="Rectangle-5" fill="none" fill-rule="evenodd" stroke="#808080" stroke-width="5" />
      <path d="M568.5 0L624.5 0L624.5 56L568.5 56L568.5 0Z" id="Rectangle-6" fill="none" fill-rule="evenodd" stroke="#808080" stroke-width="5" />
    </g>
    <g id="Question-7" transform="translate(533.19946 1192.5999)">
      <path d="M0.00012207 12.0001L496 12.0001" id="Line" fill="none" fill-rule="evenodd" stroke="#808080" stroke-width="5" stroke-linecap="square" />
      <path d="M0.00012207 27.0001L496 27.0001" id="Line-2" fill="none" fill-rule="evenodd" stroke="#808080" stroke-width="5" stroke-linecap="square" />
      <path d="M0 42.0001L496 42.0001" id="Line-3" fill="none" fill-rule="evenodd" stroke="#808080" stroke-width="5" stroke-linecap="square" />
      <path d="M746.5 0L802.5 0L802.5 56L746.5 56L746.5 0Z" id="Rectangle-4" fill="none" fill-rule="evenodd" stroke="#808080" stroke-width="5" />
      <path d="M657.5 0L713.5 0L713.5 56L657.5 56L657.5 0Z" id="Rectangle-5" fill="none" fill-rule="evenodd" stroke="#808080" stroke-width="5" />
      <path d="M568.5 0L624.5 0L624.5 56L568.5 56L568.5 0Z" id="Rectangle-6" fill="none" fill-rule="evenodd" stroke="#808080" stroke-width="5" />
    </g>
    <g id="Question-8" transform="translate(533.19946 1090.5999)">
      <path d="M0.00012207 12.0001L496 12.0001" id="Line" fill="none" fill-rule="evenodd" stroke="#808080" stroke-width="5" stroke-linecap="square" />
      <path d="M0.00012207 27.0001L496 27.0001" id="Line-2" fill="none" fill-rule="evenodd" stroke="#808080" stroke-width="5" stroke-linecap="square" />
      <path d="M0 42.0001L496 42.0001" id="Line-3" fill="none" fill-rule="evenodd" stroke="#808080" stroke-width="5" stroke-linecap="square" />
      <path d="M746.5 0L802.5 0L802.5 56L746.5 56L746.5 0Z" id="Rectangle-4" fill="none" fill-rule="evenodd" stroke="#808080" stroke-width="5" />
      <path d="M657.5 0L713.5 0L713.5 56L657.5 56L657.5 0Z" id="Rectangle-5" fill="none" fill-rule="evenodd" stroke="#808080" stroke-width="5" />
      <path d="M568.5 0L624.5 0L624.5 56L568.5 56L568.5 0Z" id="Rectangle-6" fill="none" fill-rule="evenodd" stroke="#808080" stroke-width="5" />
    </g>
    <g id="Question-2" transform="translate(534.19946 988.59985)">
      <path d="M0.00012207 12.0001L496 12.0001" id="Line" fill="none" fill-rule="evenodd" stroke="#808080" stroke-width="5" stroke-linecap="square" />
      <path d="M0.00012207 27.0001L496 27.0001" id="Line-2" fill="none" fill-rule="evenodd" stroke="#808080" stroke-width="5" stroke-linecap="square" />
      <path d="M0 42.0001L496 42.0001" id="Line-3" fill="none" fill-rule="evenodd" stroke="#808080" stroke-width="5" stroke-linecap="square" />
      <path d="M746.5 0L802.5 0L802.5 56L746.5 56L746.5 0Z" id="Rectangle-4" fill="none" fill-rule="evenodd" stroke="#808080" stroke-width="5" />
      <path d="M657.5 0L713.5 0L713.5 56L657.5 56L657.5 0Z" id="Rectangle-5" fill="none" fill-rule="evenodd" stroke="#808080" stroke-width="5" />
      <path d="M568.5 0L624.5 0L624.5 56L568.5 56L568.5 0Z" id="Rectangle-6" fill="none" fill-rule="evenodd" stroke="#808080" stroke-width="5" />
    </g>
    <g id="Question-3" transform="translate(533.69946 886.59985)">
      <path d="M0.00012207 12.0001L496 12.0001" id="Line" fill="none" fill-rule="evenodd" stroke="#808080" stroke-width="5" stroke-linecap="square" />
      <path d="M0.00012207 27.0001L496 27.0001" id="Line-2" fill="none" fill-rule="evenodd" stroke="#808080" stroke-width="5" stroke-linecap="square" />
      <path d="M0 42.0001L496 42.0001" id="Line-3" fill="none" fill-rule="evenodd" stroke="#808080" stroke-width="5" stroke-linecap="square" />
      <path d="M746.5 0L802.5 0L802.5 56L746.5 56L746.5 0Z" id="Rectangle-4" fill="none" fill-rule="evenodd" stroke="#808080" stroke-width="5" />
      <path d="M657.5 0L713.5 0L713.5 56L657.5 56L657.5 0Z" id="Rectangle-5" fill="none" fill-rule="evenodd" stroke="#808080" stroke-width="5" />
      <path d="M568.5 0L624.5 0L624.5 56L568.5 56L568.5 0Z" id="Rectangle-6" fill="none" fill-rule="evenodd" stroke="#808080" stroke-width="5" />
    </g>
    <g id="Question-4" transform="translate(533.69946 784.59985)">
      <path d="M0.00012207 12.0001L496 12.0001" id="Line" fill="none" fill-rule="evenodd" stroke="#808080" stroke-width="5" stroke-linecap="square" />
      <path d="M0.00012207 27.0001L496 27.0001" id="Line-2" fill="none" fill-rule="evenodd" stroke="#808080" stroke-width="5" stroke-linecap="square" />
      <path d="M0 42.0001L496 42.0001" id="Line-3" fill="none" fill-rule="evenodd" stroke="#808080" stroke-width="5" stroke-linecap="square" />
      <path d="M746.5 0L802.5 0L802.5 56L746.5 56L746.5 0Z" id="Rectangle-4" fill="none" fill-rule="evenodd" stroke="#808080" stroke-width="5" />
      <path d="M657.5 0L713.5 0L713.5 56L657.5 56L657.5 0Z" id="Rectangle-5" fill="none" fill-rule="evenodd" stroke="#808080" stroke-width="5" />
      <path d="M568.5 0L624.5 0L624.5 56L568.5 56L568.5 0Z" id="Rectangle-6" fill="none" fill-rule="evenodd" stroke="#808080" stroke-width="5" />
    </g>
    <g id="Question-5" transform="translate(533.69946 682.59985)">
      <path d="M0.00012207 12.0001L496 12.0001" id="Line" fill="none" fill-rule="evenodd" stroke="#808080" stroke-width="5" stroke-linecap="square" />
      <path d="M0.00012207 27.0001L496 27.0001" id="Line-2" fill="none" fill-rule="evenodd" stroke="#808080" stroke-width="5" stroke-linecap="square" />
      <path d="M0 42.0001L496 42.0001" id="Line-3" fill="none" fill-rule="evenodd" stroke="#808080" stroke-width="5" stroke-linecap="square" />
      <path d="M746.5 0L802.5 0L802.5 56L746.5 56L746.5 0Z" id="Rectangle-4" fill="none" fill-rule="evenodd" stroke="#808080" stroke-width="5" />
      <path d="M657.5 0L713.5 0L713.5 56L657.5 56L657.5 0Z" id="Rectangle-5" fill="none" fill-rule="evenodd" stroke="#808080" stroke-width="5" />
      <path d="M568.5 0L624.5 0L624.5 56L568.5 56L568.5 0Z" id="Rectangle-6" fill="none" fill-rule="evenodd" stroke="#808080" stroke-width="5" />
    </g>
    <g id="Question-6" transform="translate(533.69946 580.59985)">
      <path d="M0.00012207 12.0001L496 12.0001" id="Line" fill="none" fill-rule="evenodd" stroke="#808080" stroke-width="5" stroke-linecap="square" />
      <path d="M0.00012207 27.0001L496 27.0001" id="Line-2" fill="none" fill-rule="evenodd" stroke="#808080" stroke-width="5" stroke-linecap="square" />
      <path d="M0 42.0001L496 42.0001" id="Line-3" fill="none" fill-rule="evenodd" stroke="#808080" stroke-width="5" stroke-linecap="square" />
      <path d="M746.5 0L802.5 0L802.5 56L746.5 56L746.5 0Z" id="Rectangle-4" fill="none" fill-rule="evenodd" stroke="#808080" stroke-width="5" />
      <path d="M657.5 0L713.5 0L713.5 56L657.5 56L657.5 0Z" id="Rectangle-5" fill="none" fill-rule="evenodd" stroke="#808080" stroke-width="5" />
      <path d="M568.5 0L624.5 0L624.5 56L568.5 56L568.5 0Z" id="Rectangle-6" fill="none" fill-rule="evenodd" stroke="#808080" stroke-width="5" />
    </g>
    <g id="Cross" transform="translate(1095.6997 477.30005)">
      <path d="M58 0L0 57" id="Line" fill="none" fill-rule="evenodd" stroke="#FC4850" stroke-width="10" stroke-linecap="square" />
      <path d="M0.5 3.29987L60.5 53.7999" id="Line-2" fill="none" fill-rule="evenodd" stroke="#FC4850" stroke-width="10" stroke-linecap="square" />
    </g>
    <g id="Cross-4" transform="translate(1097.1997 986.59985)">
      <path d="M58 0L0 57" id="Line" fill="none" fill-rule="evenodd" stroke="#FC4850" stroke-width="10" stroke-linecap="square" />
      <path d="M0.5 3.2998L60.5 53.7998" id="Line-2" fill="none" fill-rule="evenodd" stroke="#FC4850" stroke-width="10" stroke-linecap="square" />
    </g>
    <g id="Cross-5" transform="translate(1274.6997 1191.3)">
      <path d="M58 0L0 57" id="Line" fill="none" fill-rule="evenodd" stroke="#FC4850" stroke-width="10" stroke-linecap="square" />
      <path d="M0.5 3.2998L60.5 53.7998" id="Line-2" fill="none" fill-rule="evenodd" stroke="#FC4850" stroke-width="10" stroke-linecap="square" />
    </g>
    <g id="Cross-3" transform="matrix(0.9848077 -0.17364818 0.17364818 0.9848077 1186.2104 688.5857)">
      <path d="M58 6.10352e-05L0 57.0001" id="Line" fill="none" fill-rule="evenodd" stroke="#FC4850" stroke-width="10" stroke-linecap="square" />
      <path d="M0.500122 3.30017L60.5001 53.8002" id="Line-2" fill="none" fill-rule="evenodd" stroke="#FC4850" stroke-width="10" stroke-linecap="square" />
    </g>
    <g id="Cross-2" transform="matrix(0.99026805 0.1391731 -0.1391731 0.99026805 1279.4602 577.3679)">
      <path d="M58 0L0 57" id="Line" fill="none" fill-rule="evenodd" stroke="#FC4850" stroke-width="10" stroke-linecap="square" />
      <path d="M0.499817 3.29944L60.4998 53.7994" id="Line-2" fill="none" fill-rule="evenodd" stroke="#FC4850" stroke-width="10" stroke-linecap="square" />
    </g>
    <path d="M507 429.6L1391 429.6L1391 1401.6L507 1401.6L507 429.6Z" id="Rectangle-4" fill="none" fill-rule="evenodd" stroke="#686868" stroke-width="5" />
  </g>
</svg>