<?xml version="1.0" encoding="utf-8"?>
<svg width="350px" height="350px" viewBox="0 0 350 350" version="1.1" xmlns:xlink="http://www.w3.org/1999/xlink" xmlns="http://www.w3.org/2000/svg">
  <g id="Schwarze-Tonne">
    <path d="M0 0L350 0L350 350L0 350L0 0Z" id="Rectangle-5" fill="#D3D3D3" fill-opacity="0" fill-rule="evenodd" stroke="none" />
    <path d="M96.1014 64.8066L253.402 55.7812Q253.796 55.7586 254.191 55.7567Q254.587 55.7549 254.982 55.7739Q255.376 55.7929 255.77 55.8327Q256.163 55.8724 256.553 55.9328Q256.944 55.9932 257.331 56.0741Q257.718 56.155 258.1 56.2562Q258.482 56.3574 258.858 56.4785Q259.234 56.5997 259.604 56.7405Q259.973 56.8813 260.334 57.0413Q260.696 57.2014 261.048 57.3802Q261.401 57.5591 261.743 57.7562Q262.086 57.9534 262.417 58.1684Q262.749 58.3833 263.069 58.6154Q263.389 58.8475 263.696 59.0962Q264.004 59.3448 264.297 59.6093Q264.591 59.8737 264.87 60.1533Q265.15 60.4329 265.414 60.7268Q265.678 61.0207 265.927 61.3281Q266.175 61.6355 266.407 61.9556Q266.639 62.2757 266.854 62.6075Q267.068 62.9394 267.265 63.2821Q267.462 63.6247 267.641 63.9773Q267.819 64.3299 267.979 64.6914Q268.139 65.0529 268.28 65.4223Q268.42 65.7918 268.541 66.1681Q268.662 66.5444 268.763 66.9265Q268.864 67.3087 268.944 67.6956Q269.025 68.0825 269.085 68.4732Q269.145 68.8638 269.185 69.2571Q269.224 69.6504 269.243 70.0452Q269.262 70.44 269.26 70.8352Q269.258 71.2305 269.235 71.625L257.056 281.37Q257.035 281.724 256.998 282.077Q256.961 282.43 256.907 282.78Q256.853 283.131 256.783 283.478Q256.712 283.826 256.625 284.17Q256.539 284.513 256.436 284.853Q256.333 285.192 256.214 285.526Q256.095 285.86 255.961 286.189Q255.826 286.517 255.677 286.838Q255.527 287.159 255.362 287.473Q255.197 287.787 255.018 288.093Q254.838 288.399 254.644 288.696Q254.451 288.993 254.243 289.28Q254.036 289.568 253.815 289.845Q253.594 290.123 253.36 290.389Q253.126 290.656 252.88 290.911Q252.634 291.167 252.376 291.41Q252.118 291.653 251.849 291.884Q251.58 292.115 251.3 292.333Q251.02 292.551 250.731 292.755Q250.441 292.96 250.142 293.15Q249.843 293.341 249.535 293.517Q249.227 293.693 248.912 293.855Q248.596 294.016 248.273 294.163Q247.95 294.309 247.62 294.44Q247.291 294.571 246.956 294.686Q246.62 294.801 246.28 294.901Q245.939 295 245.595 295.083Q245.25 295.166 244.901 295.233Q244.553 295.299 244.202 295.349Q243.851 295.4 243.498 295.433Q243.145 295.466 242.791 295.483Q242.437 295.5 242.082 295.5L113.235 295.5Q112.886 295.5 112.537 295.484Q112.188 295.467 111.841 295.435Q111.493 295.402 111.147 295.354Q110.801 295.305 110.458 295.241Q110.115 295.176 109.775 295.095Q109.435 295.015 109.099 294.919Q108.764 294.822 108.433 294.71Q108.102 294.599 107.777 294.471Q107.451 294.344 107.132 294.202Q106.813 294.06 106.501 293.903Q106.189 293.747 105.885 293.576Q105.58 293.404 105.284 293.219Q104.988 293.034 104.701 292.835Q104.414 292.637 104.136 292.425Q103.859 292.213 103.591 291.988Q103.324 291.764 103.067 291.527Q102.81 291.29 102.565 291.042Q102.319 290.793 102.086 290.534Q101.852 290.274 101.631 290.004Q101.41 289.734 101.201 289.454Q100.993 289.173 100.797 288.884Q100.602 288.594 100.421 288.296Q100.239 287.998 100.072 287.691Q99.9045 287.385 99.7515 287.071Q99.5985 286.757 99.4604 286.436Q99.3222 286.115 99.1991 285.788Q99.076 285.462 98.9682 285.129Q98.8604 284.797 98.7682 284.46Q98.676 284.124 98.5996 283.783Q98.5232 283.442 98.4628 283.098Q98.4023 282.754 98.3579 282.408Q98.3135 282.061 98.2853 281.713L82.0107 80.9932Q81.9805 80.6207 81.9689 80.2471Q81.9573 79.8735 81.9643 79.4999Q81.9713 79.1262 81.9969 78.7533Q82.0225 78.3805 82.0666 78.0094Q82.1108 77.6382 82.1734 77.2698Q82.2359 76.9013 82.3168 76.5364Q82.3976 76.1715 82.4965 75.8111Q82.5955 75.4507 82.7122 75.0957Q82.8289 74.7407 82.9632 74.3919Q83.0975 74.0431 83.249 73.7014Q83.4005 73.3598 83.5688 73.0261Q83.7371 72.6924 83.9218 72.3675Q84.1066 72.0426 84.3072 71.7273Q84.5079 71.412 84.7241 71.1071Q84.9402 70.8022 85.1712 70.5085Q85.4023 70.2147 85.6477 69.9328Q85.8931 69.6509 86.1522 69.3816Q86.4113 69.1123 86.6835 68.8562Q86.9557 68.6001 87.2404 68.3579Q87.525 68.1157 87.8214 67.888Q88.1177 67.6603 88.425 67.4476Q88.7323 67.2349 89.0499 67.0378Q89.3674 66.8407 89.6944 66.6596Q90.0213 66.4786 90.3569 66.314Q90.6924 66.1495 91.0358 66.0018Q91.3791 65.8542 91.7294 65.7238Q92.0796 65.5935 92.436 65.4808Q92.7923 65.368 93.1538 65.2732Q93.5153 65.1783 93.8811 65.1016Q94.2468 65.0248 94.616 64.9664Q94.9851 64.908 95.3567 64.868Q95.7283 64.828 96.1014 64.8066Z" id="Rectangle" fill="#090909" fill-rule="evenodd" stroke="none" />
    <path d="M218.968 270.655C218.968 256.934 230.092 245.811 243.813 245.811C257.534 245.811 268.658 256.934 268.658 270.655C268.658 284.377 257.534 295.5 243.813 295.5C230.092 295.5 218.968 284.377 218.968 270.655Z" id="Ellipse-2" fill="#242424" fill-rule="evenodd" stroke="none" />
    <path d="M231.391 270.655C231.391 263.795 236.952 258.233 243.813 258.233C250.674 258.233 256.235 263.795 256.235 270.655C256.235 277.516 250.674 283.078 243.813 283.078C236.952 283.078 231.391 277.516 231.391 270.655Z" id="Ellipse" fill="#090909" fill-rule="evenodd" stroke="none" />
    <path d="M77.899 56.3696L273.081 56.3696Q273.277 56.3696 273.474 56.3792Q273.67 56.3888 273.865 56.4081Q274.061 56.4273 274.255 56.4561Q274.449 56.485 274.642 56.5233Q274.834 56.5616 275.025 56.6093Q275.215 56.657 275.403 56.714Q275.591 56.771 275.776 56.8372Q275.961 56.9033 276.142 56.9785Q276.324 57.0536 276.501 57.1376Q276.679 57.2215 276.852 57.3141Q277.025 57.4066 277.193 57.5076Q277.362 57.6085 277.525 57.7176Q277.688 57.8267 277.846 57.9437Q278.004 58.0607 278.156 58.1853Q278.307 58.3098 278.453 58.4417Q278.598 58.5736 278.737 58.7124Q278.876 58.8513 279.008 58.9968Q279.14 59.1423 279.264 59.2941Q279.389 59.4458 279.506 59.6036Q279.623 59.7613 279.732 59.9246Q279.841 60.0878 279.942 60.2563Q280.043 60.4247 280.136 60.5979Q280.228 60.771 280.312 60.9486Q280.396 61.1261 280.471 61.3075Q280.546 61.4889 280.613 61.6738Q280.679 61.8587 280.736 62.0466Q280.793 62.2345 280.84 62.425Q280.888 62.6154 280.926 62.808Q280.965 63.0006 280.993 63.1949Q281.022 63.3891 281.042 63.5845Q281.061 63.7799 281.071 63.9761Q281.08 64.1722 281.08 64.3686L281.08 77.8737Q281.08 78.07 281.07 78.2662Q281.061 78.4623 281.042 78.6577Q281.022 78.8531 280.994 79.0474Q280.965 79.2416 280.926 79.4342Q280.888 79.6268 280.84 79.8173Q280.793 80.0078 280.736 80.1957Q280.679 80.3836 280.613 80.5685Q280.546 80.7533 280.471 80.9347Q280.396 81.1162 280.312 81.2937Q280.228 81.4712 280.136 81.6444Q280.043 81.8176 279.942 81.986Q279.841 82.1544 279.732 82.3177Q279.623 82.4809 279.506 82.6387Q279.389 82.7964 279.264 82.9482Q279.14 83.1 279.008 83.2455Q278.876 83.391 278.737 83.5298Q278.598 83.6687 278.453 83.8005Q278.307 83.9324 278.156 84.057Q278.004 84.1815 277.846 84.2985Q277.688 84.4155 277.525 84.5246Q277.362 84.6337 277.193 84.7346Q277.025 84.8356 276.852 84.9282Q276.679 85.0207 276.501 85.1047Q276.324 85.1886 276.142 85.2638Q275.961 85.3389 275.776 85.4051Q275.591 85.4712 275.403 85.5282Q275.215 85.5852 275.025 85.6329Q274.834 85.6807 274.642 85.719Q274.449 85.7573 274.255 85.7861Q274.061 85.8149 273.865 85.8342Q273.67 85.8534 273.474 85.863Q273.277 85.8727 273.081 85.8727L77.899 85.8727Q77.7027 85.8727 77.5065 85.863Q77.3104 85.8534 77.115 85.8342Q76.9196 85.8149 76.7253 85.7861Q76.5311 85.7573 76.3385 85.719Q76.1459 85.6807 75.9554 85.6329Q75.7649 85.5852 75.577 85.5282Q75.3891 85.4712 75.2042 85.4051Q75.0193 85.3389 74.8379 85.2638Q74.6565 85.1886 74.479 85.1047Q74.3015 85.0207 74.1283 84.9282Q73.9551 84.8356 73.7867 84.7346Q73.6183 84.6337 73.455 84.5246Q73.2917 84.4155 73.134 84.2985Q72.9763 84.1815 72.8245 84.057Q72.6727 83.9324 72.5272 83.8005Q72.3817 83.6687 72.2429 83.5298Q72.104 83.391 71.9722 83.2455Q71.8403 83.1 71.7157 82.9482Q71.5911 82.7964 71.4742 82.6387Q71.3572 82.4809 71.2481 82.3177Q71.139 82.1544 71.0381 81.986Q70.9371 81.8176 70.8445 81.6444Q70.752 81.4712 70.668 81.2937Q70.5841 81.1162 70.5089 80.9347Q70.4338 80.7533 70.3676 80.5684Q70.3015 80.3836 70.2445 80.1956Q70.1875 80.0077 70.1397 79.8173Q70.092 79.6268 70.0537 79.4342Q70.0154 79.2416 69.9866 79.0474Q69.9578 78.8531 69.9385 78.6577Q69.9193 78.4623 69.9097 78.2662Q69.9 78.07 69.9 77.8737L69.9 64.3686Q69.9 64.1722 69.9097 63.9761Q69.9193 63.7799 69.9385 63.5845Q69.9578 63.3891 69.9866 63.1949Q70.0154 63.0006 70.0537 62.808Q70.092 62.6154 70.1397 62.425Q70.1875 62.2345 70.2445 62.0466Q70.3015 61.8587 70.3676 61.6738Q70.4338 61.4889 70.5089 61.3075Q70.5841 61.1261 70.668 60.9485Q70.752 60.771 70.8445 60.5979Q70.9371 60.4247 71.038 60.2563Q71.139 60.0878 71.2481 59.9246Q71.3572 59.7613 71.4742 59.6036Q71.5911 59.4458 71.7157 59.2941Q71.8403 59.1423 71.9722 58.9968Q72.104 58.8513 72.2429 58.7124Q72.3817 58.5736 72.5272 58.4417Q72.6727 58.3098 72.8245 58.1853Q72.9763 58.0607 73.134 57.9437Q73.2917 57.8267 73.455 57.7176Q73.6183 57.6085 73.7867 57.5076Q73.9551 57.4066 74.1283 57.3141Q74.3015 57.2215 74.479 57.1376Q74.6565 57.0536 74.8379 56.9785Q75.0193 56.9033 75.2042 56.8372Q75.3891 56.771 75.577 56.714Q75.7649 56.657 75.9554 56.6093Q76.1459 56.5616 76.3385 56.5233Q76.5311 56.485 76.7253 56.4561Q76.9196 56.4273 77.115 56.4081Q77.3104 56.3888 77.5065 56.3792Q77.7027 56.3696 77.899 56.3696Z" id="Rectangle-2" fill="#242424" fill-rule="evenodd" stroke="none" />
    <path d="M169.961 45.5L271.081 45.5Q271.327 45.5 271.572 45.512Q271.817 45.5241 272.061 45.5481Q272.305 45.5722 272.548 45.6082Q272.791 45.6442 273.032 45.6921Q273.273 45.74 273.511 45.7997Q273.749 45.8593 273.984 45.9306Q274.219 46.0018 274.45 46.0845Q274.681 46.1672 274.908 46.2611Q275.134 46.3551 275.356 46.46Q275.578 46.565 275.795 46.6807Q276.011 46.7964 276.222 46.9226Q276.432 47.0488 276.636 47.1851Q276.84 47.3215 277.038 47.4677Q277.235 47.6139 277.424 47.7697Q277.614 47.9254 277.796 48.0902Q277.978 48.2551 278.152 48.4286Q278.325 48.6022 278.49 48.7841Q278.655 48.966 278.81 49.1557Q278.966 49.3454 279.112 49.5426Q279.259 49.7398 279.395 49.9438Q279.531 50.1479 279.658 50.3585Q279.784 50.569 279.899 50.7855Q280.015 51.002 280.12 51.2239Q280.225 51.4458 280.319 51.6725Q280.413 51.8993 280.496 52.1304Q280.578 52.3615 280.65 52.5964Q280.721 52.8313 280.781 53.0694Q280.84 53.3075 280.888 53.5483Q280.936 53.789 280.972 54.0318Q281.008 54.2746 281.032 54.5189Q281.056 54.7632 281.068 55.0084Q281.08 55.2535 281.08 55.499L281.08 60.3457Q281.08 60.5912 281.068 60.8363Q281.056 61.0815 281.032 61.3258Q281.008 61.5701 280.972 61.8129Q280.936 62.0557 280.888 62.2964Q280.84 62.5372 280.78 62.7753Q280.721 63.0134 280.65 63.2483Q280.578 63.4832 280.496 63.7143Q280.413 63.9454 280.319 64.1722Q280.225 64.3989 280.12 64.6208Q280.015 64.8427 279.9 65.0592Q279.784 65.2757 279.658 65.4862Q279.531 65.6968 279.395 65.9009Q279.259 66.1049 279.112 66.3021Q278.966 66.4993 278.81 66.689Q278.655 66.8787 278.49 67.0606Q278.325 67.2425 278.152 67.4161Q277.978 67.5896 277.796 67.7545Q277.614 67.9193 277.424 68.075Q277.235 68.2308 277.038 68.377Q276.84 68.5232 276.636 68.6596Q276.432 68.796 276.222 68.9221Q276.011 69.0483 275.795 69.164Q275.578 69.2797 275.356 69.3847Q275.134 69.4896 274.908 69.5836Q274.681 69.6775 274.45 69.7602Q274.219 69.8429 273.984 69.9142Q273.749 69.9854 273.511 70.0451Q273.273 70.1047 273.032 70.1526Q272.791 70.2005 272.548 70.2365Q272.305 70.2725 272.061 70.2966Q271.817 70.3206 271.572 70.3327Q271.327 70.3447 271.081 70.3447L169.961 70.3447Q169.716 70.3447 169.471 70.3327Q169.225 70.3206 168.981 70.2966Q168.737 70.2725 168.494 70.2365Q168.251 70.2005 168.01 70.1526Q167.77 70.1047 167.532 70.0451Q167.293 69.9854 167.059 69.9142Q166.824 69.8429 166.593 69.7602Q166.361 69.6775 166.135 69.5836Q165.908 69.4896 165.686 69.3847Q165.464 69.2798 165.248 69.164Q165.031 69.0483 164.821 68.9221Q164.61 68.796 164.406 68.6596Q164.202 68.5232 164.005 68.377Q163.808 68.2308 163.618 68.0751Q163.428 67.9193 163.246 67.7545Q163.064 67.5896 162.891 67.4161Q162.717 67.2425 162.552 67.0606Q162.388 66.8788 162.232 66.689Q162.076 66.4993 161.93 66.3021Q161.784 66.1049 161.647 65.9009Q161.511 65.6968 161.385 65.4862Q161.259 65.2757 161.143 65.0592Q161.027 64.8427 160.922 64.6208Q160.817 64.3989 160.723 64.1722Q160.629 63.9454 160.547 63.7143Q160.464 63.4832 160.393 63.2483Q160.321 63.0134 160.262 62.7753Q160.202 62.5372 160.154 62.2964Q160.106 62.0557 160.07 61.8129Q160.034 61.5701 160.01 61.3258Q159.986 61.0815 159.974 60.8363Q159.962 60.5912 159.962 60.3457L159.962 55.499Q159.962 55.2535 159.974 55.0084Q159.986 54.7632 160.01 54.5189Q160.034 54.2746 160.07 54.0318Q160.106 53.789 160.154 53.5483Q160.202 53.3075 160.262 53.0694Q160.321 52.8313 160.393 52.5964Q160.464 52.3615 160.547 52.1304Q160.629 51.8993 160.723 51.6725Q160.817 51.4458 160.922 51.2239Q161.027 51.002 161.143 50.7855Q161.259 50.569 161.385 50.3585Q161.511 50.1479 161.647 49.9438Q161.784 49.7398 161.93 49.5426Q162.076 49.3454 162.232 49.1557Q162.388 48.966 162.552 48.7841Q162.717 48.6022 162.891 48.4286Q163.064 48.2551 163.246 48.0902Q163.428 47.9254 163.618 47.7697Q163.808 47.6139 164.005 47.4677Q164.202 47.3215 164.406 47.1851Q164.61 47.0488 164.821 46.9226Q165.031 46.7964 165.248 46.6807Q165.464 46.565 165.686 46.46Q165.908 46.3551 166.135 46.2611Q166.361 46.1672 166.593 46.0845Q166.824 46.0018 167.059 45.9306Q167.293 45.8593 167.532 45.7997Q167.77 45.74 168.01 45.6921Q168.251 45.6442 168.494 45.6082Q168.737 45.5722 168.981 45.5481Q169.225 45.5241 169.471 45.512Q169.716 45.5 169.961 45.5Z" id="Rectangle-3" fill="#242424" fill-rule="evenodd" stroke="none" />
  </g>
</svg>