<?xml version="1.0" encoding="utf-8"?>
<svg width="212px" height="250px" viewBox="0 0 212 250" version="1.1" xmlns:xlink="http://www.w3.org/1999/xlink" xmlns="http://www.w3.org/2000/svg">
  <g id="Schwarze-Tonne">
    <path d="M15.3318 9.98987L172.632 0.964447Q173.027 0.941806 173.422 0.939979Q173.817 0.938151 174.212 0.957143Q174.607 0.976134 175 1.01589Q175.393 1.05565 175.784 1.11606Q176.174 1.17647 176.561 1.25737Q176.948 1.33827 177.33 1.43944Q177.712 1.5406 178.089 1.66175Q178.465 1.7829 178.834 1.92369Q179.203 2.06448 179.565 2.22453Q179.926 2.38458 180.279 2.56344Q180.631 2.7423 180.974 2.93947Q181.316 3.13664 181.648 3.35159Q181.98 3.56653 182.3 3.79864Q182.619 4.03075 182.927 4.27939Q183.234 4.52803 183.528 4.7925Q183.821 5.05698 184.101 5.33656Q184.38 5.61614 184.644 5.91004Q184.909 6.20394 185.157 6.51136Q185.406 6.81877 185.637 7.13884Q185.869 7.45892 186.084 7.79076Q186.299 8.1226 186.496 8.46529Q186.693 8.80797 186.871 9.16056Q187.05 9.51314 187.21 9.87464Q187.37 10.2361 187.51 10.6056Q187.651 10.975 187.771 11.3513Q187.892 11.7276 187.993 12.1097Q188.094 12.4919 188.175 12.8788Q188.255 13.2658 188.316 13.6564Q188.376 14.0471 188.415 14.4403Q188.455 14.8336 188.473 15.2284Q188.492 15.6232 188.49 16.0184Q188.488 16.4137 188.465 16.8083L176.286 226.554Q176.266 226.908 176.228 227.26Q176.191 227.613 176.137 227.963Q176.083 228.314 176.013 228.661Q175.943 229.009 175.856 229.353Q175.769 229.697 175.666 230.036Q175.563 230.375 175.445 230.71Q175.326 231.044 175.191 231.372Q175.057 231.7 174.907 232.021Q174.757 232.343 174.592 232.657Q174.428 232.971 174.248 233.276Q174.069 233.582 173.875 233.879Q173.681 234.176 173.473 234.464Q173.266 234.751 173.045 235.029Q172.824 235.306 172.59 235.573Q172.357 235.839 172.11 236.095Q171.864 236.35 171.606 236.593Q171.348 236.837 171.079 237.067Q170.81 237.298 170.531 237.516Q170.251 237.734 169.961 237.939Q169.671 238.143 169.372 238.334Q169.073 238.524 168.766 238.7Q168.458 238.877 168.142 239.038Q167.826 239.2 167.503 239.346Q167.18 239.492 166.851 239.623Q166.521 239.754 166.186 239.869Q165.851 239.985 165.51 240.084Q165.17 240.183 164.825 240.266Q164.48 240.349 164.132 240.416Q163.784 240.482 163.433 240.533Q163.082 240.583 162.729 240.616Q162.376 240.65 162.021 240.666Q161.667 240.683 161.312 240.683L32.4656 240.683Q32.1164 240.683 31.7675 240.667Q31.4187 240.651 31.071 240.618Q30.7232 240.586 30.3774 240.537Q30.0316 240.489 29.6884 240.424Q29.3452 240.359 29.0054 240.279Q28.6656 240.198 28.3299 240.102Q27.9942 240.005 27.6633 239.894Q27.3325 239.782 27.0072 239.655Q26.6819 239.528 26.3629 239.386Q26.0439 239.243 25.7318 239.087Q25.4197 238.93 25.1153 238.759Q24.8109 238.588 24.5148 238.402Q24.2186 238.217 23.9314 238.019Q23.6443 237.82 23.3666 237.608Q23.089 237.396 22.8215 237.172Q22.554 236.947 22.2973 236.71Q22.0406 236.474 21.7952 236.225Q21.5497 235.977 21.3161 235.717Q21.0825 235.457 20.8612 235.187Q20.64 234.917 20.4315 234.637Q20.2231 234.357 20.0279 234.067Q19.8327 233.777 19.6512 233.479Q19.4697 233.181 19.3023 232.874Q19.1349 232.568 18.9819 232.254Q18.829 231.94 18.6908 231.619Q18.5526 231.298 18.4295 230.972Q18.3064 230.645 18.1986 230.313Q18.0908 229.98 17.9986 229.644Q17.9065 229.307 17.83 228.966Q17.7536 228.625 17.6932 228.281Q17.6327 227.937 17.5883 227.591Q17.5439 227.244 17.5157 226.896L1.24109 26.1764Q1.21089 25.8039 1.19928 25.4303Q1.18766 25.0568 1.19467 24.6831Q1.20167 24.3094 1.22728 23.9366Q1.25289 23.5637 1.29703 23.1926Q1.34118 22.8215 1.40375 22.453Q1.46632 22.0846 1.54717 21.7197Q1.62802 21.3548 1.72694 20.9944Q1.82586 20.634 1.9426 20.2789Q2.05935 19.9239 2.19363 19.5751Q2.32791 19.2263 2.4794 18.8847Q2.63089 18.543 2.79921 18.2093Q2.96752 17.8756 3.15225 17.5507Q3.33697 17.2258 3.53765 16.9106Q3.73833 16.5953 3.95446 16.2904Q4.17059 15.9855 4.40163 15.6917Q4.63268 15.3979 4.87808 15.116Q5.12347 14.8342 5.38259 14.5648Q5.64172 14.2955 5.91394 14.0394Q6.18616 13.7834 6.47079 13.5412Q6.75542 13.299 7.05177 13.0712Q7.34811 12.8435 7.65543 12.6308Q7.96275 12.4181 8.28028 12.221Q8.5978 12.0239 8.92476 11.8428Q9.25171 11.6618 9.58727 11.4972Q9.92283 11.3327 10.2662 11.1851Q10.6095 11.0374 10.9598 10.9071Q11.3101 10.7767 11.6664 10.664Q12.0227 10.5512 12.3842 10.4564Q12.7457 10.3615 13.1115 10.2848Q13.4773 10.2081 13.8464 10.1496Q14.2155 10.0912 14.5871 10.0512Q14.9587 10.0113 15.3318 9.98987Z" transform="translate(10.869568 9.316772)" id="Rectangle" fill="#090909" fill-rule="evenodd" stroke="none" />
    <path d="M0 24.8447C0 11.1234 11.1234 0 24.8447 0C38.5661 0 49.6894 11.1234 49.6894 24.8447C49.6894 38.5661 38.5661 49.6894 24.8447 49.6894C11.1234 49.6894 0 38.5661 0 24.8447Z" transform="translate(149.0683 200.31055)" id="Ellipse-2" fill="#242424" fill-rule="evenodd" stroke="none" />
    <path d="M0 12.4224C0 5.56168 5.56168 0 12.4224 0C19.283 0 24.8447 5.56168 24.8447 12.4224C24.8447 19.283 19.283 24.8447 12.4224 24.8447C5.56168 24.8447 0 19.283 0 12.4224Z" transform="translate(161.49066 212.73291)" id="Ellipse" fill="#090909" fill-rule="evenodd" stroke="none" />
    <path d="M7.999 0L203.181 0Q203.377 0 203.574 0.00963514Q203.77 0.0192703 203.965 0.0385174Q204.161 0.0577644 204.355 0.0865771Q204.549 0.11539 204.742 0.153699Q204.934 0.192007 205.125 0.23972Q205.315 0.287433 205.503 0.344434Q205.691 0.401436 205.876 0.467589Q206.061 0.533742 206.242 0.608888Q206.424 0.684033 206.601 0.76799Q206.779 0.851946 206.952 0.944512Q207.125 1.03708 207.293 1.13803Q207.462 1.23898 207.625 1.34807Q207.788 1.45717 207.946 1.57414Q208.104 1.69112 208.256 1.81569Q208.407 1.94026 208.553 2.07213Q208.698 2.204 208.837 2.34285Q208.976 2.4817 209.108 2.6272Q209.24 2.7727 209.364 2.92449Q209.489 3.07628 209.606 3.234Q209.723 3.39172 209.832 3.55499Q209.941 3.71826 210.042 3.88669Q210.143 4.05512 210.236 4.2283Q210.328 4.40148 210.412 4.57899Q210.496 4.7565 210.571 4.93791Q210.646 5.11933 210.713 5.30422Q210.779 5.4891 210.836 5.67701Q210.893 5.86492 210.94 6.0554Q210.988 6.24588 211.026 6.43847Q211.065 6.63106 211.094 6.8253Q211.122 7.01954 211.142 7.21496Q211.161 7.41038 211.17 7.60651Q211.18 7.80264 211.18 7.999L211.18 21.5041Q211.18 21.7005 211.17 21.8966Q211.161 22.0927 211.142 22.2881Q211.122 22.4836 211.094 22.6778Q211.065 22.872 211.026 23.0646Q210.988 23.2572 210.94 23.4477Q210.893 23.6382 210.836 23.8261Q210.779 24.014 210.713 24.1989Q210.646 24.3838 210.571 24.5652Q210.496 24.7466 210.412 24.9241Q210.328 25.1016 210.236 25.2748Q210.143 25.448 210.042 25.6164Q209.941 25.7848 209.832 25.9481Q209.723 26.1114 209.606 26.2691Q209.489 26.4268 209.364 26.5786Q209.24 26.7304 209.108 26.8759Q208.976 27.0214 208.837 27.1602Q208.698 27.2991 208.553 27.431Q208.407 27.5628 208.256 27.6874Q208.104 27.812 207.946 27.929Q207.788 28.0459 207.625 28.155Q207.462 28.2641 207.293 28.3651Q207.125 28.466 206.952 28.5586Q206.779 28.6512 206.601 28.7351Q206.424 28.8191 206.242 28.8942Q206.061 28.9694 205.876 29.0355Q205.691 29.1017 205.503 29.1587Q205.315 29.2157 205.125 29.2634Q204.934 29.3111 204.742 29.3494Q204.549 29.3877 204.355 29.4165Q204.161 29.4453 203.965 29.4646Q203.77 29.4838 203.574 29.4935Q203.377 29.5031 203.181 29.5031L7.999 29.5031Q7.80264 29.5031 7.60651 29.4935Q7.41038 29.4838 7.21496 29.4646Q7.01954 29.4453 6.8253 29.4165Q6.63106 29.3877 6.43847 29.3494Q6.24588 29.3111 6.0554 29.2634Q5.86492 29.2157 5.67701 29.1587Q5.4891 29.1017 5.30422 29.0355Q5.11933 28.9694 4.93791 28.8942Q4.7565 28.8191 4.57899 28.7351Q4.40148 28.6512 4.2283 28.5586Q4.05512 28.466 3.88669 28.3651Q3.71826 28.2641 3.55499 28.155Q3.39172 28.0459 3.234 27.929Q3.07628 27.812 2.92449 27.6874Q2.7727 27.5628 2.6272 27.431Q2.4817 27.2991 2.34285 27.1602Q2.204 27.0214 2.07213 26.8759Q1.94026 26.7304 1.81569 26.5786Q1.69112 26.4268 1.57414 26.2691Q1.45717 26.1114 1.34807 25.9481Q1.23898 25.7848 1.13803 25.6164Q1.03708 25.448 0.944512 25.2748Q0.851946 25.1016 0.76799 24.9241Q0.684033 24.7466 0.608888 24.5652Q0.533742 24.3838 0.467589 24.1989Q0.401436 24.014 0.344434 23.8261Q0.287433 23.6382 0.23972 23.4477Q0.192007 23.2572 0.153699 23.0646Q0.11539 22.872 0.0865771 22.6778Q0.0577644 22.4836 0.0385174 22.2881Q0.0192703 22.0927 0.00963514 21.8966Q0 21.7005 0 21.5041L0 7.999Q0 7.80264 0.00963514 7.60651Q0.0192703 7.41038 0.0385174 7.21496Q0.0577644 7.01954 0.0865771 6.8253Q0.11539 6.63106 0.153699 6.43847Q0.192007 6.24588 0.23972 6.0554Q0.287433 5.86492 0.344434 5.67701Q0.401436 5.4891 0.467589 5.30422Q0.533742 5.11933 0.608888 4.93791Q0.684033 4.7565 0.76799 4.57899Q0.851946 4.40148 0.944512 4.2283Q1.03708 4.05512 1.13803 3.88669Q1.23898 3.71826 1.34807 3.55499Q1.45717 3.39172 1.57414 3.234Q1.69112 3.07628 1.81569 2.92449Q1.94026 2.7727 2.07213 2.6272Q2.204 2.4817 2.34285 2.34285Q2.4817 2.204 2.6272 2.07213Q2.7727 1.94026 2.92449 1.81569Q3.07628 1.69112 3.234 1.57414Q3.39172 1.45717 3.55499 1.34807Q3.71826 1.23898 3.88669 1.13803Q4.05512 1.03708 4.2283 0.944512Q4.40148 0.851946 4.57899 0.76799Q4.7565 0.684033 4.93791 0.608888Q5.11933 0.533742 5.30422 0.467589Q5.4891 0.401436 5.67701 0.344434Q5.86492 0.287433 6.0554 0.23972Q6.24588 0.192007 6.43847 0.153699Q6.63106 0.11539 6.8253 0.0865771Q7.01954 0.0577644 7.21496 0.0385174Q7.41038 0.0192703 7.60651 0.00963514Q7.80264 0 7.999 0L7.999 0Z" transform="translate(0 10.869568)" id="Rectangle-2" fill="#242424" fill-rule="evenodd" stroke="none" />
    <path d="M9.999 0L111.119 0Q111.364 0 111.61 0.0120442Q111.855 0.0240885 112.099 0.0481479Q112.343 0.0722074 112.586 0.108224Q112.829 0.144241 113.07 0.192128Q113.31 0.240015 113.549 0.299657Q113.787 0.3593 114.022 0.430553Q114.256 0.501807 114.488 0.584501Q114.719 0.667194 114.945 0.761128Q115.172 0.855062 115.394 0.960011Q115.616 1.06496 115.832 1.18067Q116.049 1.29638 116.26 1.42257Q116.47 1.54876 116.674 1.68514Q116.878 1.82151 117.075 1.96773Q117.273 2.11395 117.462 2.26967Q117.652 2.42539 117.834 2.59023Q118.016 2.75507 118.189 2.92864Q118.363 3.10221 118.528 3.28408Q118.693 3.46596 118.848 3.6557Q119.004 3.84545 119.15 4.0426Q119.296 4.23976 119.433 4.44385Q119.569 4.64795 119.695 4.85849Q119.822 5.06903 119.937 5.2855Q120.053 5.50198 120.158 5.72388Q120.263 5.94577 120.357 6.17255Q120.451 6.39932 120.534 6.63044Q120.616 6.86155 120.687 7.09644Q120.759 7.33134 120.818 7.56944Q120.878 7.80755 120.926 8.04829Q120.974 8.28904 121.01 8.53184Q121.046 8.77465 121.07 9.01893Q121.094 9.26321 121.106 9.50837Q121.118 9.75354 121.118 9.999L121.118 14.8457Q121.118 15.0912 121.106 15.3363Q121.094 15.5815 121.07 15.8258Q121.046 16.0701 121.01 16.3129Q120.974 16.5557 120.926 16.7964Q120.878 17.0372 120.818 17.2753Q120.759 17.5134 120.687 17.7483Q120.616 17.9832 120.534 18.2143Q120.451 18.4454 120.357 18.6722Q120.263 18.8989 120.158 19.1208Q120.053 19.3427 119.937 19.5592Q119.822 19.7757 119.695 19.9862Q119.569 20.1968 119.433 20.4009Q119.296 20.605 119.15 20.8021Q119.004 20.9993 118.848 21.189Q118.693 21.3788 118.528 21.5606Q118.363 21.7425 118.189 21.9161Q118.016 22.0897 117.834 22.2545Q117.652 22.4193 117.462 22.5751Q117.273 22.7308 117.075 22.877Q116.878 23.0232 116.674 23.1596Q116.47 23.296 116.26 23.4221Q116.049 23.5483 115.832 23.6641Q115.616 23.7798 115.394 23.8847Q115.172 23.9897 114.945 24.0836Q114.719 24.1775 114.488 24.2602Q114.256 24.3429 114.022 24.4142Q113.787 24.4854 113.549 24.5451Q113.31 24.6047 113.07 24.6526Q112.829 24.7005 112.586 24.7365Q112.343 24.7725 112.099 24.7966Q111.855 24.8206 111.61 24.8327Q111.364 24.8447 111.119 24.8447L9.999 24.8447Q9.75354 24.8447 9.50837 24.8327Q9.26321 24.8206 9.01893 24.7966Q8.77465 24.7725 8.53184 24.7365Q8.28904 24.7005 8.04829 24.6526Q7.80755 24.6047 7.56944 24.5451Q7.33134 24.4854 7.09644 24.4142Q6.86155 24.3429 6.63044 24.2602Q6.39932 24.1775 6.17255 24.0836Q5.94577 23.9897 5.72388 23.8847Q5.50198 23.7798 5.2855 23.664Q5.06903 23.5483 4.85849 23.4221Q4.64795 23.296 4.44385 23.1596Q4.23976 23.0232 4.0426 22.877Q3.84545 22.7308 3.6557 22.5751Q3.46596 22.4193 3.28408 22.2545Q3.10221 22.0896 2.92864 21.9161Q2.75507 21.7425 2.59023 21.5606Q2.42539 21.3788 2.26967 21.189Q2.11395 20.9993 1.96773 20.8021Q1.82151 20.605 1.68514 20.4009Q1.54876 20.1968 1.42257 19.9862Q1.29638 19.7757 1.18067 19.5592Q1.06496 19.3427 0.960011 19.1208Q0.855062 18.8989 0.761128 18.6722Q0.667194 18.4454 0.584501 18.2143Q0.501807 17.9832 0.430553 17.7483Q0.3593 17.5134 0.299657 17.2753Q0.240015 17.0372 0.192128 16.7964Q0.144241 16.5557 0.108224 16.3129Q0.0722074 16.0701 0.0481479 15.8258Q0.0240885 15.5815 0.0120442 15.3363Q0 15.0912 0 14.8457L0 9.999Q0 9.75354 0.0120442 9.50837Q0.0240885 9.26321 0.0481479 9.01893Q0.0722074 8.77465 0.108224 8.53184Q0.144241 8.28904 0.192128 8.04829Q0.240015 7.80755 0.299657 7.56944Q0.3593 7.33134 0.430553 7.09644Q0.501807 6.86155 0.584501 6.63044Q0.667194 6.39932 0.761128 6.17255Q0.855062 5.94577 0.960011 5.72388Q1.06496 5.50198 1.18067 5.2855Q1.29638 5.06903 1.42257 4.85849Q1.54876 4.64795 1.68514 4.44385Q1.82151 4.23976 1.96773 4.0426Q2.11395 3.84545 2.26967 3.6557Q2.42539 3.46596 2.59023 3.28408Q2.75507 3.10221 2.92864 2.92864Q3.10221 2.75507 3.28408 2.59023Q3.46596 2.42539 3.6557 2.26967Q3.84545 2.11395 4.0426 1.96773Q4.23976 1.82151 4.44385 1.68514Q4.64795 1.54876 4.85849 1.42257Q5.06903 1.29638 5.2855 1.18067Q5.50198 1.06496 5.72388 0.960011Q5.94577 0.855062 6.17255 0.761128Q6.39932 0.667194 6.63044 0.584501Q6.86155 0.501807 7.09644 0.430553Q7.33134 0.3593 7.56944 0.299657Q7.80755 0.240015 8.04829 0.192128Q8.28904 0.144241 8.53184 0.108224Q8.77465 0.0722074 9.01893 0.0481479Q9.26321 0.0240885 9.50837 0.0120442Q9.75354 0 9.999 0Z" transform="translate(90.06213 0)" id="Rectangle-3" fill="#242424" fill-rule="evenodd" stroke="none" />
  </g>
</svg>