--<?xml version="1.0" encoding="utf-8"?>
<svg width="186px" height="161px" viewBox="0 0 186 161" version="1.1" xmlns:xlink="http://www.w3.org/1999/xlink" xmlns="http://www.w3.org/2000/svg">
  <defs>
    <path d="M0 0L185.679 0L185.679 160L0 160L0 0Z" transform="translate(0 1)" id="path_1" />
    <clipPath id="mask_1">
      <use xlink:href="#path_1" />
    </clipPath>
  </defs>
  <g id="Group-2">
    <g id="Remove-icon-2">
      <path d="M24.999 0L142.001 0Q142.615 0 143.228 0.0301124Q143.841 0.0602248 144.451 0.120377Q145.062 0.180529 145.669 0.270576Q146.276 0.360624 146.878 0.480349Q147.48 0.600074 148.075 0.749189Q148.671 0.898303 149.258 1.07645Q149.845 1.25459 150.423 1.46134Q151.001 1.66809 151.568 1.90294Q152.135 2.13778 152.689 2.40017Q153.244 2.66256 153.785 2.95185Q154.327 3.24114 154.853 3.55664Q155.379 3.87214 155.89 4.21309Q156.4 4.55404 156.893 4.91961Q157.386 5.28519 157.86 5.67451Q158.335 6.06383 158.789 6.47596Q159.244 6.88809 159.678 7.32204Q160.112 7.75598 160.524 8.2107Q160.936 8.66541 161.326 9.1398Q161.715 9.61419 162.08 10.1071Q162.446 10.6 162.787 11.1103Q163.128 11.6206 163.443 12.1469Q163.759 12.6733 164.048 13.2146Q164.337 13.7558 164.6 14.3105Q164.862 14.8653 165.097 15.4323Q165.332 15.9993 165.539 16.5771Q165.745 17.1549 165.924 17.7422Q166.102 18.3294 166.251 18.9247Q166.4 19.52 166.52 20.1219Q166.639 20.7238 166.729 21.3309Q166.819 21.9379 166.88 22.5487Q166.94 23.1594 166.97 23.7724Q167 24.3853 167 24.999L167 135.001Q167 135.615 166.97 136.228Q166.94 136.841 166.88 137.451Q166.819 138.062 166.729 138.669Q166.639 139.276 166.52 139.878Q166.4 140.48 166.251 141.075Q166.102 141.671 165.924 142.258Q165.745 142.845 165.539 143.423Q165.332 144.001 165.097 144.568Q164.862 145.135 164.6 145.689Q164.337 146.244 164.048 146.785Q163.759 147.327 163.443 147.853Q163.128 148.379 162.787 148.89Q162.446 149.4 162.08 149.893Q161.715 150.386 161.325 150.86Q160.936 151.335 160.524 151.789Q160.112 152.244 159.678 152.678Q159.244 153.112 158.789 153.524Q158.335 153.936 157.86 154.325Q157.386 154.715 156.893 155.08Q156.4 155.446 155.89 155.787Q155.379 156.128 154.853 156.443Q154.327 156.759 153.785 157.048Q153.244 157.337 152.689 157.6Q152.135 157.862 151.568 158.097Q151.001 158.332 150.423 158.539Q149.845 158.745 149.258 158.924Q148.671 159.102 148.075 159.251Q147.48 159.4 146.878 159.52Q146.276 159.639 145.669 159.729Q145.062 159.819 144.451 159.88Q143.841 159.94 143.228 159.97Q142.615 160 142.001 160L24.999 160Q24.3853 160 23.7724 159.97Q23.1594 159.94 22.5487 159.88Q21.9379 159.819 21.3309 159.729Q20.7238 159.639 20.1219 159.52Q19.52 159.4 18.9247 159.251Q18.3294 159.102 17.7422 158.924Q17.1549 158.745 16.5771 158.539Q15.9993 158.332 15.4323 158.097Q14.8653 157.862 14.3105 157.6Q13.7558 157.337 13.2146 157.048Q12.6733 156.759 12.1469 156.443Q11.6206 156.128 11.1103 155.787Q10.6 155.446 10.1071 155.08Q9.61419 154.715 9.1398 154.325Q8.66541 153.936 8.2107 153.524Q7.75598 153.112 7.32204 152.678Q6.88809 152.244 6.47596 151.789Q6.06383 151.335 5.67451 150.86Q5.28519 150.386 4.91961 149.893Q4.55404 149.4 4.21309 148.89Q3.87214 148.379 3.55664 147.853Q3.24114 147.327 2.95185 146.785Q2.66256 146.244 2.40017 145.689Q2.13778 145.135 1.90294 144.568Q1.66809 144.001 1.46134 143.423Q1.25459 142.845 1.07645 142.258Q0.898303 141.671 0.749189 141.075Q0.600074 140.48 0.480349 139.878Q0.360624 139.276 0.270576 138.669Q0.180529 138.062 0.120377 137.451Q0.0602248 136.841 0.0301124 136.228Q0 135.615 0 135.001L0 24.999Q0 24.3853 0.0301124 23.7724Q0.0602248 23.1594 0.120377 22.5487Q0.180529 21.9379 0.270576 21.3309Q0.360624 20.7238 0.480349 20.1219Q0.600074 19.52 0.749189 18.9247Q0.898303 18.3294 1.07645 17.7422Q1.25459 17.1549 1.46134 16.5771Q1.66809 15.9993 1.90294 15.4323Q2.13778 14.8653 2.40017 14.3105Q2.66256 13.7558 2.95185 13.2146Q3.24114 12.6733 3.55664 12.1469Q3.87214 11.6206 4.21309 11.1103Q4.55404 10.6 4.91961 10.1071Q5.28519 9.61419 5.67451 9.1398Q6.06383 8.66541 6.47596 8.2107Q6.88809 7.75598 7.32204 7.32204Q7.75598 6.88809 8.2107 6.47596Q8.66541 6.06383 9.1398 5.67451Q9.61419 5.28519 10.1071 4.91961Q10.6 4.55404 11.1103 4.21309Q11.6206 3.87214 12.1469 3.55664Q12.6733 3.24114 13.2146 2.95185Q13.7558 2.66256 14.3105 2.40017Q14.8653 2.13778 15.4323 1.90294Q15.9993 1.66809 16.5771 1.46134Q17.1549 1.25459 17.7422 1.07645Q18.3294 0.898303 18.9247 0.749189Q19.52 0.600074 20.1219 0.480349Q20.7238 0.360624 21.3309 0.270576Q21.9379 0.180529 22.5487 0.120377Q23.1594 0.0602248 23.7724 0.0301124Q24.3853 0 24.999 0L24.999 0Z" transform="translate(7.800293 0)" id="Rectangle-2" fill="#3CC800" fill-opacity="0.69803923" fill-rule="evenodd" stroke="none" />
      <path d="M0 0L185.679 0L185.679 160L0 160L0 0Z" transform="translate(0 1)" id="Background" fill="none" fill-rule="evenodd" stroke="none" />
      <g clip-path="url(#mask_1)">
        <path d="M0 0L139.259 0L139.259 13.3333L0 13.3333L0 0Z" transform="translate(23.170532 20)" id="Shape" fill="#FFFFFF" fill-rule="evenodd" stroke="none" />
        <path d="M93.6131 120.667L30.1728 120.667C22.4362 120.667 15.4732 116 14.6996 109.333L0 1.33333L15.4732 0L30.1728 107.333L93.6131 107.333L108.313 1.58946e-06L123.786 1.33333L109.086 108.667C108.313 116 101.35 120.667 93.6131 120.667L93.6131 120.667Z" transform="translate(30.907227 26)" id="Shape" fill="#FFFFFF" fill-rule="evenodd" stroke="none" />
        <path d="M0 0L14.6996 107.333C15.4732 110.667 18.5679 113.333 22.4362 113.333L85.8765 113.333C89.7448 113.333 92.8395 110.667 93.6131 107.333L108.313 0L0 0L0 0Z" transform="translate(38.6438 26.666656)" id="Shape" fill="#FFFFFF" fill-opacity="0.3" fill-rule="evenodd" stroke="none" />
        <path d="M46.4198 6.66667L46.4198 13.3333L0 13.3333L0 6.66667L7.73663 0L38.6831 0L46.4198 6.66667Z" transform="translate(69.59033 13.333313)" id="Shape" fill="#FFFFFF" fill-rule="evenodd" stroke="none" />
      </g>
    </g>
    <g id="" fill="#FFFFFF" transform="translate(64.36804 33)">
      <path d="M16.3206 32.0313Q15.3518 31.5938 16.2268 29.3438Q17.0706 27.25 19.93 24.9531Q22.7893 22.6563 28.2581 22.6563Q34.9768 22.6563 38.1331 25.8594Q41.2893 29.0625 41.2893 34.4063Q41.2893 38.875 36.0862 44.6406Q30.8831 50.4063 30.8831 54.7188L30.8831 55.4375Q30.8831 56.8438 29.4768 56.8438L26.7893 56.8438Q25.3831 56.8438 25.3831 55.4375L25.3831 54.2813Q25.3831 49 30.2737 43.4219Q35.1643 37.8438 35.1643 34.2188Q35.1643 30.4063 33.3831 28.875Q31.6018 27.3438 28.4768 27.3438Q25.0393 27.3438 23.305 28.5938Q21.5706 29.8438 20.6643 32Q19.9456 33.6875 18.6331 33.0938L16.3206 32.0313ZM26.3831 68.4063Q24.9768 68.4063 24.9768 67L24.9768 63.1875Q24.9768 61.7813 26.3831 61.7813L29.8831 61.7813Q31.2893 61.7813 31.2893 63.1875L31.2893 67Q31.2893 68.4063 29.8831 68.4063L26.3831 68.4063Z" />
    </g>
  </g>
</svg>
