<?xml version="1.0" encoding="utf-8"?>
<svg width="350px" height="350px" viewBox="0 0 350 350" version="1.1" xmlns:xlink="http://www.w3.org/1999/xlink" xmlns="http://www.w3.org/2000/svg">
  <g id="Blaue-Tonne">
    <path d="M0 0L350 0L350 350L0 350L0 0Z" id="Rectangle" fill="#D3D3D3" fill-opacity="0" fill-rule="evenodd" stroke="none" />
    <path d="M95.1212 65.3066L252.421 56.2812Q252.816 56.2586 253.211 56.2567Q253.607 56.2549 254.001 56.2739Q254.396 56.2929 254.789 56.3327Q255.183 56.3724 255.573 56.4328Q255.964 56.4932 256.351 56.5741Q256.738 56.655 257.12 56.7562Q257.502 56.8574 257.878 56.9785Q258.254 57.0997 258.623 57.2405Q258.993 57.3813 259.354 57.5413Q259.716 57.7014 260.068 57.8802Q260.421 58.0591 260.763 58.2562Q261.106 58.4534 261.437 58.6684Q261.769 58.8833 262.089 59.1154Q262.409 59.3475 262.716 59.5962Q263.023 59.8448 263.317 60.1093Q263.611 60.3737 263.89 60.6533Q264.17 60.9329 264.434 61.2268Q264.698 61.5207 264.947 61.8281Q265.195 62.1355 265.427 62.4556Q265.659 62.7757 265.873 63.1075Q266.088 63.4394 266.285 63.7821Q266.482 64.1247 266.661 64.4773Q266.839 64.8299 266.999 65.1914Q267.159 65.5529 267.299 65.9223Q267.44 66.2917 267.561 66.6681Q267.682 67.0444 267.783 67.4265Q267.884 67.8087 267.964 68.1956Q268.045 68.5825 268.105 68.9732Q268.165 69.3638 268.205 69.7571Q268.244 70.1504 268.263 70.5452Q268.281 70.94 268.279 71.3352Q268.277 71.7305 268.254 72.125L256.076 281.87Q256.055 282.224 256.018 282.577Q255.981 282.93 255.927 283.28Q255.873 283.631 255.802 283.978Q255.732 284.326 255.645 284.67Q255.559 285.013 255.456 285.353Q255.353 285.692 255.234 286.026Q255.115 286.36 254.981 286.689Q254.846 287.017 254.696 287.338Q254.547 287.659 254.382 287.973Q254.217 288.287 254.037 288.593Q253.858 288.899 253.664 289.196Q253.47 289.493 253.263 289.781Q253.055 290.068 252.834 290.345Q252.613 290.623 252.38 290.889Q252.146 291.156 251.9 291.411Q251.654 291.667 251.396 291.91Q251.138 292.153 250.869 292.384Q250.6 292.615 250.32 292.833Q250.04 293.051 249.75 293.255Q249.461 293.46 249.162 293.65Q248.863 293.841 248.555 294.017Q248.247 294.193 247.931 294.355Q247.616 294.516 247.293 294.663Q246.97 294.809 246.64 294.94Q246.311 295.071 245.975 295.186Q245.64 295.301 245.299 295.401Q244.959 295.5 244.614 295.583Q244.27 295.666 243.921 295.733Q243.573 295.799 243.222 295.849Q242.871 295.9 242.518 295.933Q242.165 295.966 241.811 295.983Q241.456 296 241.102 296L112.255 296Q111.906 296 111.557 295.984Q111.208 295.967 110.86 295.935Q110.513 295.902 110.167 295.854Q109.821 295.805 109.478 295.741Q109.135 295.676 108.795 295.595Q108.455 295.515 108.119 295.419Q107.784 295.322 107.453 295.21Q107.122 295.099 106.797 294.972Q106.471 294.844 106.152 294.702Q105.833 294.56 105.521 294.403Q105.209 294.247 104.905 294.075Q104.6 293.904 104.304 293.719Q104.008 293.534 103.721 293.335Q103.434 293.137 103.156 292.925Q102.878 292.713 102.611 292.488Q102.343 292.264 102.087 292.027Q101.83 291.79 101.585 291.542Q101.339 291.293 101.105 291.034Q100.872 290.774 100.651 290.504Q100.429 290.234 100.221 289.954Q100.012 289.673 99.8173 289.384Q99.6221 289.094 99.4406 288.796Q99.2591 288.497 99.0917 288.191Q98.9242 287.885 98.7713 287.571Q98.6183 287.257 98.4801 286.936Q98.3419 286.615 98.2188 286.288Q98.0957 285.961 97.988 285.629Q97.8802 285.297 97.788 284.96Q97.6958 284.624 97.6194 284.283Q97.543 283.942 97.4825 283.598Q97.4221 283.254 97.3777 282.908Q97.3333 282.561 97.3051 282.213L81.0305 81.4932Q81.0003 81.1207 80.9886 80.7471Q80.977 80.3735 80.984 79.9999Q80.9911 79.6262 81.0167 79.2533Q81.0423 78.8805 81.0864 78.5094Q81.1306 78.1383 81.1931 77.7698Q81.2557 77.4013 81.3365 77.0364Q81.4174 76.6715 81.5163 76.3111Q81.6152 75.9507 81.732 75.5957Q81.8487 75.2407 81.983 74.8919Q82.1173 74.5431 82.2688 74.2014Q82.4203 73.8598 82.5886 73.5261Q82.7569 73.1924 82.9416 72.8675Q83.1263 72.5426 83.327 72.2273Q83.5277 71.912 83.7438 71.6071Q83.9599 71.3022 84.191 71.0085Q84.4221 70.7147 84.6674 70.4328Q84.9128 70.1509 85.172 69.8816Q85.4311 69.6123 85.7033 69.3562Q85.9755 69.1001 86.2602 68.8579Q86.5448 68.6157 86.8411 68.388Q87.1375 68.1603 87.4448 67.9476Q87.7521 67.7349 88.0696 67.5378Q88.3872 67.3407 88.7141 67.1596Q89.0411 66.9786 89.3766 66.814Q89.7122 66.6495 90.0555 66.5018Q90.3989 66.3542 90.7492 66.2238Q91.0994 66.0935 91.4558 65.9807Q91.8121 65.868 92.1736 65.7731Q92.5351 65.6783 92.9008 65.6016Q93.2666 65.5248 93.6358 65.4664Q94.0049 65.408 94.3765 65.368Q94.7481 65.328 95.1212 65.3066Z" id="Rectangle" fill="#4E6BFF" fill-rule="evenodd" stroke="none" />
    <path d="M217.988 271.155C217.988 257.434 229.111 246.311 242.833 246.311C256.554 246.311 267.678 257.434 267.678 271.155C267.678 284.877 256.554 296 242.833 296C229.111 296 217.988 284.877 217.988 271.155Z" id="Ellipse-2" fill="#2C4BE2" fill-rule="evenodd" stroke="none" />
    <path d="M230.41 272.708C230.41 265.847 235.972 260.286 242.833 260.286C249.693 260.286 255.255 265.847 255.255 272.708C255.255 279.569 249.693 285.13 242.833 285.13C235.972 285.13 230.41 279.569 230.41 272.708Z" id="Ellipse" fill="#4E6BFF" fill-rule="evenodd" stroke="none" />
    <path d="M76.9188 55.3168L272.101 55.3168Q272.297 55.3168 272.493 55.3264Q272.69 55.336 272.885 55.3553Q273.08 55.3745 273.275 55.4034Q273.469 55.4322 273.661 55.4705Q273.854 55.5088 274.044 55.5565Q274.235 55.6042 274.423 55.6612Q274.611 55.7182 274.796 55.7844Q274.981 55.8505 275.162 55.9257Q275.343 56.0008 275.521 56.0848Q275.698 56.1687 275.872 56.2613Q276.045 56.3538 276.213 56.4548Q276.382 56.5558 276.545 56.6648Q276.708 56.7739 276.866 56.8909Q277.024 57.0079 277.175 57.1325Q277.327 57.257 277.473 57.3889Q277.618 57.5208 277.757 57.6596Q277.896 57.7985 278.028 57.944Q278.16 58.0895 278.284 58.2413Q278.409 58.3931 278.526 58.5508Q278.643 58.7085 278.752 58.8718Q278.861 59.035 278.962 59.2035Q279.063 59.3719 279.155 59.5451Q279.248 59.7182 279.332 59.8958Q279.416 60.0733 279.491 60.2547Q279.566 60.4361 279.632 60.621Q279.698 60.8059 279.755 60.9938Q279.812 61.1817 279.86 61.3722Q279.908 61.5626 279.946 61.7552Q279.984 61.9478 280.013 62.1421Q280.042 62.3363 280.061 62.5317Q280.081 62.7271 280.09 62.9233Q280.1 63.1194 280.1 63.3158L280.1 76.8209Q280.1 77.0172 280.09 77.2134Q280.081 77.4095 280.061 77.6049Q280.042 77.8003 280.013 77.9946Q279.984 78.1888 279.946 78.3814Q279.908 78.574 279.86 78.7645Q279.812 78.9549 279.755 79.1429Q279.698 79.3308 279.632 79.5157Q279.566 79.7005 279.491 79.882Q279.416 80.0634 279.332 80.2409Q279.248 80.4184 279.155 80.5916Q279.063 80.7647 278.962 80.9332Q278.861 81.1016 278.752 81.2649Q278.643 81.4281 278.526 81.5859Q278.409 81.7436 278.284 81.8954Q278.16 82.0472 278.028 82.1927Q277.896 82.3382 277.757 82.477Q277.618 82.6159 277.473 82.7477Q277.327 82.8796 277.175 83.0042Q277.024 83.1288 276.866 83.2457Q276.708 83.3627 276.545 83.4718Q276.382 83.5809 276.213 83.6818Q276.045 83.7828 275.872 83.8754Q275.698 83.9679 275.521 84.0519Q275.343 84.1358 275.162 84.211Q274.981 84.2861 274.796 84.3523Q274.611 84.4184 274.423 84.4754Q274.235 84.5324 274.044 84.5801Q273.854 84.6279 273.661 84.6662Q273.469 84.7045 273.275 84.7333Q273.08 84.7621 272.885 84.7814Q272.69 84.8006 272.493 84.8102Q272.297 84.8199 272.101 84.8199L76.9188 84.8199Q76.7224 84.8199 76.5263 84.8102Q76.3302 84.8006 76.1348 84.7814Q75.9393 84.7621 75.7451 84.7333Q75.5509 84.7045 75.3583 84.6662Q75.1657 84.6279 74.9752 84.5801Q74.7847 84.5324 74.5968 84.4754Q74.4089 84.4184 74.224 84.3523Q74.0391 84.2861 73.8577 84.211Q73.6763 84.1358 73.4988 84.0519Q73.3213 83.9679 73.1481 83.8754Q72.9749 83.7828 72.8065 83.6818Q72.6381 83.5809 72.4748 83.4718Q72.3115 83.3627 72.1538 83.2457Q71.9961 83.1288 71.8443 83.0042Q71.6925 82.8796 71.547 82.7477Q71.4015 82.6159 71.2626 82.477Q71.1238 82.3382 70.9919 82.1927Q70.8601 82.0472 70.7355 81.8954Q70.6109 81.7436 70.4939 81.5859Q70.377 81.4281 70.2679 81.2649Q70.1588 81.1016 70.0578 80.9332Q69.9569 80.7647 69.8643 80.5916Q69.7717 80.4184 69.6878 80.2409Q69.6038 80.0634 69.5287 79.882Q69.4535 79.7005 69.3874 79.5157Q69.3212 79.3308 69.2642 79.1429Q69.2072 78.9549 69.1595 78.7645Q69.1118 78.574 69.0735 78.3814Q69.0352 78.1888 69.0064 77.9946Q68.9776 77.8003 68.9583 77.6049Q68.9391 77.4095 68.9294 77.2134Q68.9198 77.0172 68.9198 76.8209L68.9198 63.3158Q68.9198 63.1194 68.9294 62.9233Q68.9391 62.7272 68.9583 62.5317Q68.9776 62.3363 69.0064 62.1421Q69.0352 61.9478 69.0735 61.7552Q69.1118 61.5626 69.1595 61.3722Q69.2072 61.1817 69.2642 60.9938Q69.3212 60.8059 69.3874 60.621Q69.4535 60.4361 69.5287 60.2547Q69.6038 60.0733 69.6878 59.8957Q69.7717 59.7182 69.8643 59.5451Q69.9569 59.3719 70.0578 59.2035Q70.1588 59.035 70.2679 58.8718Q70.377 58.7085 70.4939 58.5508Q70.6109 58.393 70.7355 58.2413Q70.8601 58.0895 70.9919 57.944Q71.1238 57.7985 71.2626 57.6596Q71.4015 57.5208 71.547 57.3889Q71.6925 57.257 71.8443 57.1325Q71.9961 57.0079 72.1538 56.8909Q72.3115 56.7739 72.4748 56.6648Q72.6381 56.5558 72.8065 56.4548Q72.9749 56.3538 73.1481 56.2613Q73.3213 56.1687 73.4988 56.0848Q73.6763 56.0008 73.8577 55.9257Q74.0391 55.8505 74.224 55.7844Q74.4089 55.7182 74.5968 55.6612Q74.7847 55.6042 74.9752 55.5565Q75.1657 55.5088 75.3583 55.4705Q75.5509 55.4322 75.7451 55.4034Q75.9393 55.3745 76.1348 55.3553Q76.3302 55.336 76.5263 55.3264Q76.7224 55.3168 76.9188 55.3168Z" id="Rectangle-2" fill="#59ADFF" fill-rule="evenodd" stroke="none" />
    <path d="M168.981 46L270.101 46Q270.346 46 270.592 46.012Q270.837 46.0241 271.081 46.0481Q271.325 46.0722 271.568 46.1082Q271.811 46.1442 272.052 46.1921Q272.292 46.24 272.53 46.2996Q272.769 46.3593 273.003 46.4305Q273.238 46.5018 273.47 46.5845Q273.701 46.6672 273.927 46.7611Q274.154 46.8551 274.376 46.96Q274.598 47.065 274.814 47.1807Q275.031 47.2964 275.241 47.4226Q275.452 47.5488 275.656 47.6851Q275.86 47.8215 276.057 47.9677Q276.255 48.1139 276.444 48.2697Q276.634 48.4254 276.816 48.5902Q276.998 48.7551 277.171 48.9286Q277.345 49.1022 277.51 49.2841Q277.675 49.466 277.83 49.6557Q277.986 49.8454 278.132 50.0426Q278.278 50.2398 278.415 50.4439Q278.551 50.6479 278.677 50.8585Q278.804 51.069 278.919 51.2855Q279.035 51.502 279.14 51.7239Q279.245 51.9458 279.339 52.1725Q279.433 52.3993 279.515 52.6304Q279.598 52.8615 279.669 53.0964Q279.741 53.3313 279.8 53.5694Q279.86 53.8075 279.908 54.0483Q279.956 54.289 279.992 54.5318Q280.028 54.7746 280.052 55.0189Q280.076 55.2632 280.088 55.5084Q280.1 55.7535 280.1 55.999L280.1 60.8457Q280.1 61.0912 280.088 61.3363Q280.076 61.5815 280.052 61.8258Q280.028 62.0701 279.992 62.3129Q279.956 62.5557 279.908 62.7964Q279.86 63.0372 279.8 63.2753Q279.741 63.5134 279.669 63.7483Q279.598 63.9832 279.515 64.2143Q279.433 64.4454 279.339 64.6722Q279.245 64.8989 279.14 65.1208Q279.035 65.3427 278.919 65.5592Q278.804 65.7757 278.677 65.9862Q278.551 66.1968 278.415 66.4009Q278.278 66.605 278.132 66.8021Q277.986 66.9993 277.83 67.189Q277.675 67.3788 277.51 67.5606Q277.345 67.7425 277.171 67.9161Q276.998 68.0896 276.816 68.2545Q276.634 68.4193 276.444 68.575Q276.254 68.7308 276.057 68.877Q275.86 69.0232 275.656 69.1596Q275.452 69.2959 275.241 69.4221Q275.031 69.5483 274.814 69.664Q274.598 69.7798 274.376 69.8847Q274.154 69.9896 273.927 70.0836Q273.701 70.1775 273.47 70.2602Q273.238 70.3429 273.003 70.4142Q272.769 70.4854 272.53 70.5451Q272.292 70.6047 272.052 70.6526Q271.811 70.7005 271.568 70.7365Q271.325 70.7725 271.081 70.7966Q270.837 70.8206 270.592 70.8327Q270.346 70.8447 270.101 70.8447L168.981 70.8447Q168.735 70.8447 168.49 70.8327Q168.245 70.8206 168.001 70.7966Q167.757 70.7725 167.514 70.7365Q167.271 70.7005 167.03 70.6526Q166.789 70.6047 166.551 70.5451Q166.313 70.4854 166.078 70.4142Q165.843 70.3429 165.612 70.2602Q165.381 70.1775 165.154 70.0836Q164.928 69.9896 164.706 69.8847Q164.484 69.7797 164.267 69.664Q164.051 69.5483 163.84 69.4221Q163.63 69.2959 163.426 69.1596Q163.222 69.0232 163.025 68.877Q162.827 68.7308 162.638 68.575Q162.448 68.4193 162.266 68.2545Q162.084 68.0896 161.911 67.9161Q161.737 67.7425 161.572 67.5606Q161.407 67.3788 161.252 67.189Q161.096 66.9993 160.95 66.8021Q160.803 66.605 160.667 66.4009Q160.531 66.1968 160.404 65.9862Q160.278 65.7757 160.163 65.5592Q160.047 65.3427 159.942 65.1208Q159.837 64.8989 159.743 64.6722Q159.649 64.4454 159.566 64.2143Q159.484 63.9832 159.412 63.7483Q159.341 63.5134 159.282 63.2753Q159.222 63.0372 159.174 62.7964Q159.126 62.5557 159.09 62.3129Q159.054 62.0701 159.03 61.8258Q159.006 61.5815 158.994 61.3363Q158.982 61.0912 158.982 60.8457L158.982 55.999Q158.982 55.7535 158.994 55.5084Q159.006 55.2632 159.03 55.0189Q159.054 54.7746 159.09 54.5318Q159.126 54.289 159.174 54.0483Q159.222 53.8075 159.282 53.5694Q159.341 53.3313 159.412 53.0964Q159.484 52.8615 159.566 52.6304Q159.649 52.3993 159.743 52.1725Q159.837 51.9458 159.942 51.7239Q160.047 51.502 160.163 51.2855Q160.278 51.069 160.404 50.8585Q160.531 50.6479 160.667 50.4438Q160.803 50.2398 160.95 50.0426Q161.096 49.8454 161.252 49.6557Q161.407 49.466 161.572 49.2841Q161.737 49.1022 161.911 48.9286Q162.084 48.7551 162.266 48.5902Q162.448 48.4254 162.638 48.2697Q162.827 48.1139 163.025 47.9677Q163.222 47.8215 163.426 47.6851Q163.63 47.5488 163.84 47.4226Q164.051 47.2964 164.267 47.1807Q164.484 47.065 164.706 46.96Q164.928 46.8551 165.154 46.7611Q165.381 46.6672 165.612 46.5845Q165.843 46.5018 166.078 46.4305Q166.313 46.3593 166.551 46.2997Q166.789 46.24 167.03 46.1921Q167.271 46.1442 167.514 46.1082Q167.757 46.0722 168.001 46.0481Q168.245 46.0241 168.49 46.012Q168.735 46 168.981 46Z" id="Rectangle-3" fill="#59ADFF" fill-rule="evenodd" stroke="none" />
  </g>
</svg>