<?xml version="1.0" encoding="utf-8"?>
<svg width="350px" height="350px" viewBox="0 0 350 350" version="1.1" xmlns:xlink="http://www.w3.org/1999/xlink" xmlns="http://www.w3.org/2000/svg">
  <g id="Braune-Tonne">
    <path d="M0 0L350 0L350 350L0 350L0 0Z" id="Rectangle" fill="#D3D3D3" fill-opacity="0" fill-rule="evenodd" stroke="none" />
    <path d="M96.0014 64.5067L253.302 55.4812Q253.696 55.4586 254.091 55.4568Q254.487 55.4549 254.881 55.4739Q255.276 55.4929 255.67 55.5327Q256.063 55.5724 256.453 55.6328Q256.844 55.6933 257.231 55.7742Q257.618 55.8551 258 55.9562Q258.382 56.0574 258.758 56.1785Q259.134 56.2997 259.504 56.4405Q259.873 56.5813 260.234 56.7413Q260.596 56.9014 260.948 57.0802Q261.301 57.2591 261.643 57.4563Q261.986 57.6534 262.317 57.8684Q262.649 58.0833 262.969 58.3154Q263.289 58.5475 263.596 58.7962Q263.904 59.0448 264.197 59.3093Q264.491 59.5738 264.77 59.8533Q265.05 60.1329 265.314 60.4268Q265.578 60.7207 265.827 61.0281Q266.075 61.3356 266.307 61.6556Q266.539 61.9757 266.754 62.3075Q266.968 62.6394 267.165 62.9821Q267.362 63.3248 267.541 63.6773Q267.719 64.0299 267.879 64.3914Q268.039 64.7529 268.18 65.1224Q268.32 65.4918 268.441 65.8681Q268.562 66.2444 268.663 66.6265Q268.764 67.0087 268.844 67.3956Q268.925 67.7826 268.985 68.1732Q269.045 68.5638 269.085 68.9571Q269.124 69.3504 269.143 69.7452Q269.162 70.14 269.16 70.5352Q269.157 70.9305 269.135 71.3251L256.956 281.07Q256.935 281.424 256.898 281.777Q256.861 282.13 256.807 282.48Q256.753 282.831 256.683 283.178Q256.612 283.526 256.525 283.87Q256.439 284.214 256.336 284.553Q256.233 284.892 256.114 285.226Q255.995 285.56 255.861 285.889Q255.726 286.217 255.577 286.538Q255.427 286.859 255.262 287.173Q255.097 287.487 254.918 287.793Q254.738 288.099 254.544 288.396Q254.351 288.693 254.143 288.981Q253.936 289.268 253.715 289.545Q253.494 289.823 253.26 290.089Q253.026 290.356 252.78 290.611Q252.534 290.867 252.276 291.11Q252.018 291.353 251.749 291.584Q251.48 291.815 251.2 292.033Q250.92 292.251 250.631 292.456Q250.341 292.66 250.042 292.85Q249.743 293.041 249.435 293.217Q249.127 293.393 248.812 293.555Q248.496 293.716 248.173 293.863Q247.85 294.009 247.52 294.14Q247.191 294.271 246.855 294.386Q246.52 294.501 246.18 294.601Q245.839 294.7 245.495 294.783Q245.15 294.866 244.801 294.933Q244.453 294.999 244.102 295.049Q243.751 295.1 243.398 295.133Q243.045 295.166 242.691 295.183Q242.337 295.2 241.982 295.2L113.135 295.2Q112.786 295.2 112.437 295.184Q112.088 295.167 111.741 295.135Q111.393 295.103 111.047 295.054Q110.701 295.005 110.358 294.941Q110.015 294.876 109.675 294.795Q109.335 294.715 108.999 294.619Q108.664 294.522 108.333 294.41Q108.002 294.299 107.677 294.172Q107.351 294.044 107.032 293.902Q106.713 293.76 106.401 293.603Q106.089 293.447 105.785 293.275Q105.48 293.104 105.184 292.919Q104.888 292.734 104.601 292.535Q104.314 292.337 104.036 292.125Q103.759 291.913 103.491 291.688Q103.224 291.464 102.967 291.227Q102.71 290.99 102.465 290.742Q102.219 290.493 101.986 290.234Q101.752 289.974 101.531 289.704Q101.31 289.434 101.101 289.154Q100.893 288.873 100.697 288.584Q100.502 288.294 100.321 287.996Q100.139 287.698 99.9718 287.391Q99.8044 287.085 99.6515 286.771Q99.4985 286.457 99.3603 286.136Q99.2221 285.815 99.099 285.488Q98.9759 285.162 98.8681 284.829Q98.7604 284.497 98.6682 284.16Q98.576 283.823 98.4996 283.483Q98.4232 283.142 98.3627 282.798Q98.3022 282.454 98.2579 282.108Q98.2135 281.761 98.1852 281.413L81.9107 80.6932Q81.8805 80.3207 81.8688 79.9471Q81.8572 79.5736 81.8642 79.1999Q81.8712 78.8262 81.8968 78.4534Q81.9224 78.0805 81.9666 77.7094Q82.0107 77.3383 82.0733 76.9698Q82.1359 76.6013 82.2167 76.2365Q82.2976 75.8716 82.3965 75.5112Q82.4954 75.1508 82.6122 74.7957Q82.7289 74.4407 82.8632 74.0919Q82.9975 73.7431 83.149 73.4015Q83.3004 73.0598 83.4688 72.7261Q83.6371 72.3924 83.8218 72.0675Q84.0065 71.7426 84.2072 71.4274Q84.4079 71.1121 84.624 70.8072Q84.8401 70.5022 85.0712 70.2085Q85.3022 69.9147 85.5476 69.6328Q85.793 69.3509 86.0522 69.0816Q86.3113 68.8123 86.5835 68.5562Q86.8557 68.3001 87.1404 68.0579Q87.425 67.8157 87.7213 67.588Q88.0177 67.3603 88.325 67.1476Q88.6323 66.9349 88.9498 66.7378Q89.2674 66.5407 89.5943 66.3596Q89.9213 66.1786 90.2568 66.014Q90.5924 65.8495 90.9357 65.7018Q91.2791 65.5542 91.6293 65.4239Q91.9796 65.2935 92.3359 65.1808Q92.6923 65.068 93.0538 64.9732Q93.4153 64.8783 93.781 64.8016Q94.1468 64.7248 94.516 64.6664Q94.8851 64.608 95.2567 64.568Q95.6283 64.5281 96.0014 64.5067Z" id="Rectangle" fill="#A86B01" fill-rule="evenodd" stroke="none" />
    <path d="M218.868 270.355C218.868 256.634 229.992 245.511 243.713 245.511C257.434 245.511 268.558 256.634 268.558 270.355C268.558 284.077 257.434 295.2 243.713 295.2C229.992 295.2 218.868 284.077 218.868 270.355Z" id="Ellipse-2" fill="#825300" fill-rule="evenodd" stroke="none" />
    <path d="M231.291 270.355C231.291 263.495 236.852 257.933 243.713 257.933C250.574 257.933 256.135 263.495 256.135 270.355C256.135 277.216 250.574 282.778 243.713 282.778C236.852 282.778 231.291 277.216 231.291 270.355Z" id="Ellipse" fill="#A86B01" fill-rule="evenodd" stroke="none" />
    <path d="M77.799 54.5168L272.981 54.5168Q273.177 54.5168 273.374 54.5264Q273.57 54.5361 273.765 54.5553Q273.961 54.5746 274.155 54.6034Q274.349 54.6322 274.542 54.6705Q274.734 54.7088 274.925 54.7565Q275.115 54.8042 275.303 54.8612Q275.491 54.9182 275.676 54.9844Q275.861 55.0505 276.042 55.1257Q276.224 55.2008 276.401 55.2848Q276.579 55.3687 276.752 55.4613Q276.925 55.5539 277.093 55.6548Q277.262 55.7558 277.425 55.8649Q277.588 55.9739 277.746 56.0909Q277.904 56.2079 278.056 56.3325Q278.207 56.457 278.353 56.5889Q278.498 56.7208 278.637 56.8596Q278.776 56.9985 278.908 57.144Q279.04 57.2895 279.164 57.4413Q279.289 57.5931 279.406 57.7508Q279.523 57.9085 279.632 58.0718Q279.741 58.235 279.842 58.4035Q279.943 58.5719 280.036 58.7451Q280.128 58.9183 280.212 59.0958Q280.296 59.2733 280.371 59.4547Q280.446 59.6361 280.512 59.821Q280.579 60.0059 280.636 60.1938Q280.693 60.3817 280.74 60.5722Q280.788 60.7627 280.826 60.9553Q280.865 61.1478 280.893 61.3421Q280.922 61.5363 280.942 61.7317Q280.961 61.9272 280.97 62.1233Q280.98 62.3194 280.98 62.5158L280.98 76.0209Q280.98 76.2173 280.97 76.4134Q280.961 76.6095 280.942 76.8049Q280.922 77.0003 280.893 77.1946Q280.865 77.3888 280.826 77.5814Q280.788 77.774 280.74 77.9645Q280.693 78.155 280.636 78.3429Q280.579 78.5308 280.512 78.7157Q280.446 78.9005 280.371 79.082Q280.296 79.2634 280.212 79.4409Q280.128 79.6184 280.036 79.7916Q279.943 79.9648 279.842 80.1332Q279.741 80.3016 279.632 80.4649Q279.523 80.6282 279.406 80.7859Q279.289 80.9436 279.164 81.0954Q279.04 81.2472 278.908 81.3927Q278.776 81.5382 278.637 81.677Q278.498 81.8159 278.353 81.9478Q278.207 82.0796 278.056 82.2042Q277.904 82.3288 277.746 82.4457Q277.588 82.5627 277.425 82.6718Q277.262 82.7809 277.093 82.8819Q276.925 82.9828 276.752 83.0754Q276.579 83.1679 276.401 83.2519Q276.224 83.3358 276.042 83.411Q275.861 83.4861 275.676 83.5523Q275.491 83.6184 275.303 83.6754Q275.115 83.7325 274.925 83.7802Q274.734 83.8279 274.542 83.8662Q274.349 83.9045 274.155 83.9333Q273.961 83.9621 273.765 83.9814Q273.57 84.0006 273.374 84.0103Q273.177 84.0199 272.981 84.0199L77.799 84.0199Q77.6026 84.0199 77.4065 84.0103Q77.2104 84.0006 77.015 83.9814Q76.8195 83.9621 76.6253 83.9333Q76.431 83.9045 76.2385 83.8662Q76.0459 83.8279 75.8554 83.7802Q75.6649 83.7325 75.477 83.6754Q75.2891 83.6184 75.1042 83.5523Q74.9193 83.4861 74.7379 83.411Q74.5565 83.3358 74.379 83.2519Q74.2014 83.1679 74.0283 83.0754Q73.8551 82.9828 73.6867 82.8819Q73.5182 82.7809 73.355 82.6718Q73.1917 82.5627 73.034 82.4457Q72.8763 82.3288 72.7245 82.2042Q72.5727 82.0796 72.4272 81.9478Q72.2817 81.8159 72.1428 81.677Q72.004 81.5382 71.8721 81.3927Q71.7403 81.2472 71.6157 81.0954Q71.4911 80.9436 71.3741 80.7859Q71.2571 80.6282 71.1481 80.4649Q71.039 80.3016 70.938 80.1332Q70.8371 79.9648 70.7445 79.7916Q70.6519 79.6184 70.568 79.4409Q70.484 79.2634 70.4089 79.082Q70.3337 78.9005 70.2676 78.7157Q70.2014 78.5308 70.1444 78.3429Q70.0874 78.155 70.0397 77.9645Q69.992 77.774 69.9537 77.5814Q69.9154 77.3888 69.8866 77.1946Q69.8578 77.0003 69.8385 76.8049Q69.8193 76.6095 69.8096 76.4134Q69.8 76.2173 69.8 76.0209L69.8 62.5158Q69.8 62.3194 69.8096 62.1233Q69.8193 61.9272 69.8385 61.7317Q69.8578 61.5363 69.8866 61.3421Q69.9154 61.1478 69.9537 60.9552Q69.992 60.7627 70.0397 60.5722Q70.0874 60.3817 70.1444 60.1938Q70.2014 60.0059 70.2676 59.821Q70.3337 59.6361 70.4089 59.4547Q70.484 59.2733 70.568 59.0958Q70.6519 58.9183 70.7445 58.7451Q70.8371 58.5719 70.938 58.4035Q71.039 58.235 71.148 58.0718Q71.2571 57.9085 71.3741 57.7508Q71.4911 57.5931 71.6157 57.4413Q71.7403 57.2895 71.8721 57.144Q72.004 56.9985 72.1428 56.8596Q72.2817 56.7208 72.4272 56.5889Q72.5727 56.457 72.7245 56.3325Q72.8763 56.2079 73.034 56.0909Q73.1917 55.9739 73.355 55.8649Q73.5182 55.7558 73.6867 55.6548Q73.8551 55.5539 74.0283 55.4613Q74.2015 55.3687 74.379 55.2848Q74.5565 55.2008 74.7379 55.1257Q74.9193 55.0505 75.1042 54.9844Q75.2891 54.9182 75.477 54.8612Q75.6649 54.8042 75.8554 54.7565Q76.0459 54.7088 76.2385 54.6705Q76.431 54.6322 76.6253 54.6034Q76.8195 54.5746 77.015 54.5553Q77.2104 54.5361 77.4065 54.5264Q77.6026 54.5168 77.799 54.5168Z" id="Rectangle-2" fill="#C98002" fill-rule="evenodd" stroke="none" />
    <path d="M169.861 45.2L270.981 45.2Q271.227 45.2 271.472 45.2121Q271.717 45.2241 271.961 45.2482Q272.206 45.2722 272.448 45.3082Q272.691 45.3443 272.932 45.3921Q273.173 45.44 273.411 45.4997Q273.649 45.5593 273.884 45.6306Q274.119 45.7018 274.35 45.7845Q274.581 45.8672 274.808 45.9611Q275.034 46.0551 275.256 46.16Q275.478 46.265 275.695 46.3807Q275.911 46.4964 276.122 46.6226Q276.332 46.7488 276.536 46.8851Q276.74 47.0215 276.937 47.1677Q277.135 47.314 277.324 47.4697Q277.514 47.6254 277.696 47.7902Q277.878 47.9551 278.051 48.1287Q278.225 48.3022 278.39 48.4841Q278.555 48.666 278.71 48.8557Q278.866 49.0455 279.012 49.2426Q279.159 49.4398 279.295 49.6439Q279.431 49.848 279.557 50.0585Q279.684 50.269 279.799 50.4855Q279.915 50.702 280.02 50.9239Q280.125 51.1458 280.219 51.3726Q280.313 51.5993 280.396 51.8304Q280.478 52.0616 280.55 52.2965Q280.621 52.5313 280.68 52.7695Q280.74 53.0076 280.788 53.2483Q280.836 53.489 280.872 53.7319Q280.908 53.9747 280.932 54.2189Q280.956 54.4632 280.968 54.7084Q280.98 54.9536 280.98 55.199L280.98 60.0457Q280.98 60.2912 280.968 60.5364Q280.956 60.7815 280.932 61.0258Q280.908 61.2701 280.872 61.5129Q280.836 61.7557 280.788 61.9964Q280.74 62.2372 280.68 62.4753Q280.621 62.7134 280.55 62.9483Q280.478 63.1832 280.396 63.4143Q280.313 63.6454 280.219 63.8722Q280.125 64.099 280.02 64.3208Q279.915 64.5427 279.799 64.7592Q279.684 64.9757 279.558 65.1862Q279.431 65.3968 279.295 65.6009Q279.159 65.805 279.012 66.0021Q278.866 66.1993 278.71 66.389Q278.555 66.5788 278.39 66.7606Q278.225 66.9425 278.051 67.1161Q277.878 67.2897 277.696 67.4545Q277.514 67.6193 277.324 67.7751Q277.135 67.9308 276.938 68.077Q276.74 68.2232 276.536 68.3596Q276.332 68.496 276.122 68.6222Q275.911 68.7483 275.695 68.8641Q275.478 68.9798 275.256 69.0847Q275.034 69.1897 274.808 69.2836Q274.581 69.3775 274.35 69.4602Q274.119 69.5429 273.884 69.6142Q273.649 69.6854 273.411 69.7451Q273.173 69.8047 272.932 69.8526Q272.691 69.9005 272.448 69.9365Q272.206 69.9725 271.961 69.9966Q271.717 70.0206 271.472 70.0327Q271.227 70.0447 270.981 70.0447L169.861 70.0447Q169.616 70.0447 169.37 70.0327Q169.125 70.0206 168.881 69.9966Q168.637 69.9725 168.394 69.9365Q168.151 69.9005 167.91 69.8526Q167.67 69.8047 167.432 69.7451Q167.193 69.6854 166.959 69.6142Q166.724 69.5429 166.493 69.4602Q166.261 69.3775 166.035 69.2836Q165.808 69.1897 165.586 69.0847Q165.364 68.9798 165.148 68.8641Q164.931 68.7483 164.721 68.6222Q164.51 68.496 164.306 68.3596Q164.102 68.2232 163.905 68.077Q163.708 67.9308 163.518 67.7751Q163.328 67.6193 163.146 67.4545Q162.964 67.2897 162.791 67.1161Q162.617 66.9425 162.452 66.7606Q162.287 66.5788 162.132 66.389Q161.976 66.1993 161.83 66.0021Q161.684 65.805 161.547 65.6009Q161.411 65.3968 161.285 65.1862Q161.158 64.9757 161.043 64.7592Q160.927 64.5427 160.822 64.3208Q160.717 64.099 160.623 63.8722Q160.529 63.6454 160.447 63.4143Q160.364 63.1832 160.293 62.9483Q160.221 62.7134 160.162 62.4753Q160.102 62.2372 160.054 61.9964Q160.006 61.7557 159.97 61.5129Q159.934 61.2701 159.91 61.0258Q159.886 60.7815 159.874 60.5364Q159.862 60.2912 159.862 60.0457L159.862 55.199Q159.862 54.9536 159.874 54.7084Q159.886 54.4632 159.91 54.2189Q159.934 53.9747 159.97 53.7319Q160.006 53.489 160.054 53.2483Q160.102 53.0076 160.162 52.7695Q160.221 52.5313 160.293 52.2965Q160.364 52.0616 160.447 51.8304Q160.529 51.5993 160.623 51.3726Q160.717 51.1458 160.822 50.9239Q160.927 50.702 161.043 50.4855Q161.158 50.269 161.285 50.0585Q161.411 49.848 161.547 49.6439Q161.684 49.4398 161.83 49.2426Q161.976 49.0455 162.132 48.8557Q162.287 48.666 162.452 48.4841Q162.617 48.3022 162.791 48.1287Q162.964 47.9551 163.146 47.7902Q163.328 47.6254 163.518 47.4697Q163.708 47.314 163.905 47.1677Q164.102 47.0215 164.306 46.8851Q164.51 46.7488 164.721 46.6226Q164.931 46.4964 165.148 46.3807Q165.364 46.265 165.586 46.16Q165.808 46.0551 166.035 45.9611Q166.261 45.8672 166.493 45.7845Q166.724 45.7018 166.959 45.6306Q167.193 45.5593 167.432 45.4997Q167.67 45.44 167.91 45.3921Q168.151 45.3442 168.394 45.3082Q168.637 45.2722 168.881 45.2482Q169.125 45.2241 169.37 45.2121Q169.616 45.2 169.861 45.2Z" id="Rectangle-3" fill="#C98002" fill-rule="evenodd" stroke="none" />
  </g>
</svg>