<?xml version="1.0" encoding="utf-8"?>
<svg width="350px" height="350px" viewBox="0 0 350 350" version="1.1" xmlns:xlink="http://www.w3.org/1999/xlink" xmlns="http://www.w3.org/2000/svg">
  <g id="Müllwagen">
    <path d="M0 0L350 0L350 350L0 350L0 0Z" id="Rectangle" fill="#D3D3D3" fill-opacity="0" fill-rule="evenodd" stroke="none" />
    <path d="M51.0002 196.176L205.762 196.176L205.762 240.819L52.9992 240.819Q52.901 240.819 52.8033 240.809Q52.7056 240.8 52.6093 240.781Q52.5129 240.761 52.419 240.733Q52.325 240.704 52.2343 240.667Q52.1435 240.629 52.0569 240.583Q51.9703 240.537 51.8887 240.482Q51.807 240.427 51.7311 240.365Q51.6552 240.303 51.5857 240.233Q51.5163 240.164 51.454 240.088Q51.3917 240.012 51.3371 239.93Q51.2826 239.849 51.2363 239.762Q51.19 239.676 51.1524 239.585Q51.1148 239.494 51.0863 239.4Q51.0578 239.306 51.0387 239.21Q51.0195 239.114 51.0099 239.016Q51.0003 238.918 51.0002 238.82L51.0002 196.176Z" id="Rectangle" fill="#D35230" fill-rule="evenodd" stroke="none" />
    <path d="M104.571 68.1999L198.763 68.1999Q198.935 68.1999 199.106 68.2083Q199.278 68.2168 199.449 68.2336Q199.62 68.2504 199.79 68.2756Q199.96 68.3008 200.128 68.3344Q200.297 68.3679 200.464 68.4096Q200.63 68.4514 200.795 68.5013Q200.959 68.5511 201.121 68.609Q201.283 68.6669 201.441 68.7327Q201.6 68.7984 201.755 68.8719Q201.911 68.9453 202.062 69.0263Q202.214 69.1073 202.361 69.1956Q202.508 69.284 202.651 69.3794Q202.794 69.4749 202.932 69.5772Q203.07 69.6796 203.203 69.7886Q203.336 69.8976 203.463 70.013Q203.59 70.1284 203.712 70.2498Q203.833 70.3713 203.949 70.4986Q204.064 70.626 204.173 70.7588Q204.282 70.8916 204.385 71.0296Q204.487 71.1676 204.582 71.3104Q204.678 71.4533 204.766 71.6007Q204.854 71.7481 204.935 71.8996Q205.016 72.0511 205.09 72.2064Q205.163 72.3617 205.229 72.5205Q205.295 72.6792 205.353 72.841Q205.411 73.0028 205.461 73.1672Q205.51 73.3316 205.552 73.4983Q205.594 73.6649 205.627 73.8335Q205.661 74.002 205.686 74.1719Q205.711 74.3419 205.728 74.5129Q205.745 74.6839 205.753 74.8555Q205.762 75.0271 205.762 75.1989L205.762 199.152L51 199.152L51 141.117L104.571 68.1999Z" id="Rectangle-2" fill="#FF8F6B" fill-rule="evenodd" stroke="none" />
    <path d="M182.975 83.0809L186.882 83.0809Q187.078 83.0809 187.274 83.1001Q187.469 83.1194 187.662 83.1577Q187.855 83.196 188.043 83.2531Q188.231 83.3101 188.412 83.3853Q188.594 83.4605 188.767 83.5531Q188.94 83.6457 189.104 83.7548Q189.267 83.864 189.419 83.9886Q189.571 84.1132 189.71 84.2522Q189.849 84.3911 189.973 84.5429Q190.098 84.6948 190.207 84.8581Q190.316 85.0215 190.409 85.1947Q190.501 85.368 190.577 85.5495Q190.652 85.731 190.709 85.919Q190.766 86.107 190.804 86.2997Q190.842 86.4924 190.862 86.6879Q190.881 86.8834 190.881 87.0799L190.881 189.201Q190.881 189.397 190.862 189.593Q190.842 189.788 190.804 189.981Q190.766 190.174 190.709 190.362Q190.652 190.55 190.577 190.731Q190.501 190.913 190.409 191.086Q190.316 191.259 190.207 191.423Q190.098 191.586 189.973 191.738Q189.849 191.89 189.71 192.029Q189.571 192.168 189.419 192.292Q189.267 192.417 189.104 192.526Q188.94 192.635 188.767 192.728Q188.594 192.82 188.412 192.895Q188.231 192.971 188.043 193.028Q187.855 193.085 187.662 193.123Q187.469 193.161 187.274 193.181Q187.078 193.2 186.882 193.2L182.975 193.2Q182.779 193.2 182.583 193.181Q182.388 193.161 182.195 193.123Q182.002 193.085 181.814 193.028Q181.626 192.971 181.445 192.895Q181.263 192.82 181.09 192.728Q180.917 192.635 180.753 192.526Q180.59 192.417 180.438 192.292Q180.286 192.168 180.147 192.029Q180.009 191.89 179.884 191.738Q179.759 191.586 179.65 191.423Q179.541 191.259 179.448 191.086Q179.356 190.913 179.281 190.731Q179.205 190.55 179.148 190.362Q179.091 190.174 179.053 189.981Q179.015 189.788 178.995 189.593Q178.976 189.397 178.976 189.201L178.976 87.0799Q178.976 86.8834 178.995 86.6879Q179.015 86.4924 179.053 86.2997Q179.091 86.107 179.148 85.919Q179.205 85.731 179.281 85.5495Q179.356 85.368 179.448 85.1947Q179.541 85.0215 179.65 84.8581Q179.759 84.6948 179.884 84.5429Q180.009 84.3911 180.147 84.2522Q180.286 84.1132 180.438 83.9886Q180.59 83.864 180.753 83.7548Q180.917 83.6457 181.09 83.5531Q181.263 83.4605 181.445 83.3853Q181.626 83.3101 181.814 83.2531Q182.002 83.196 182.195 83.1577Q182.388 83.1194 182.583 83.1001Q182.779 83.0809 182.975 83.0809Z" id="Rectangle-7" fill="#D35230" fill-rule="evenodd" stroke="none" />
    <path d="M153.213 83.0809L157.12 83.0809Q157.316 83.0809 157.512 83.1001Q157.707 83.1194 157.9 83.1577Q158.092 83.196 158.28 83.2531Q158.468 83.3101 158.65 83.3853Q158.831 83.4605 159.005 83.5531Q159.178 83.6457 159.341 83.7548Q159.505 83.864 159.657 83.9886Q159.808 84.1132 159.947 84.2522Q160.086 84.3911 160.211 84.5429Q160.336 84.6948 160.445 84.8581Q160.554 85.0215 160.646 85.1947Q160.739 85.368 160.814 85.5495Q160.889 85.731 160.946 85.919Q161.003 86.107 161.042 86.2997Q161.08 86.4924 161.099 86.6879Q161.119 86.8834 161.119 87.0799L161.119 189.201Q161.119 189.397 161.099 189.593Q161.08 189.788 161.042 189.981Q161.003 190.174 160.946 190.362Q160.889 190.55 160.814 190.731Q160.739 190.913 160.646 191.086Q160.554 191.259 160.445 191.423Q160.336 191.586 160.211 191.738Q160.086 191.89 159.947 192.029Q159.808 192.168 159.657 192.292Q159.505 192.417 159.341 192.526Q159.178 192.635 159.005 192.728Q158.831 192.82 158.65 192.895Q158.468 192.971 158.28 193.028Q158.092 193.085 157.9 193.123Q157.707 193.161 157.512 193.181Q157.316 193.2 157.12 193.2L153.213 193.2Q153.016 193.2 152.821 193.181Q152.625 193.161 152.433 193.123Q152.24 193.085 152.052 193.028Q151.864 192.971 151.682 192.895Q151.501 192.82 151.328 192.728Q151.154 192.635 150.991 192.526Q150.828 192.417 150.676 192.292Q150.524 192.168 150.385 192.029Q150.246 191.89 150.122 191.738Q149.997 191.586 149.888 191.423Q149.779 191.259 149.686 191.086Q149.593 190.913 149.518 190.731Q149.443 190.55 149.386 190.362Q149.329 190.174 149.291 189.981Q149.252 189.788 149.233 189.593Q149.214 189.397 149.214 189.201L149.214 87.0799Q149.214 86.8834 149.233 86.6879Q149.252 86.4924 149.291 86.2997Q149.329 86.107 149.386 85.919Q149.443 85.731 149.518 85.5495Q149.593 85.368 149.686 85.1947Q149.779 85.0215 149.888 84.8581Q149.997 84.6948 150.122 84.5429Q150.246 84.3911 150.385 84.2522Q150.524 84.1132 150.676 83.9886Q150.828 83.864 150.991 83.7548Q151.154 83.6457 151.328 83.5531Q151.501 83.4605 151.682 83.3853Q151.864 83.3101 152.052 83.2531Q152.24 83.196 152.433 83.1577Q152.625 83.1194 152.821 83.1001Q153.016 83.0809 153.213 83.0809Z" id="Rectangle-8" fill="#D35230" fill-rule="evenodd" stroke="none" />
    <path d="M123.451 83.0809L127.358 83.0809Q127.555 83.0809 127.75 83.1001Q127.946 83.1194 128.138 83.1577Q128.331 83.196 128.519 83.2531Q128.707 83.3101 128.888 83.3853Q129.07 83.4605 129.243 83.5531Q129.417 83.6457 129.58 83.7548Q129.743 83.864 129.895 83.9886Q130.047 84.1132 130.186 84.2522Q130.325 84.3911 130.449 84.5429Q130.574 84.6948 130.683 84.8581Q130.792 85.0215 130.885 85.1947Q130.978 85.368 131.053 85.5495Q131.128 85.731 131.185 85.919Q131.242 86.107 131.28 86.2997Q131.319 86.4924 131.338 86.6879Q131.357 86.8834 131.357 87.0799L131.357 189.201Q131.357 189.397 131.338 189.593Q131.319 189.788 131.28 189.981Q131.242 190.174 131.185 190.362Q131.128 190.55 131.053 190.731Q130.978 190.913 130.885 191.086Q130.792 191.259 130.683 191.423Q130.574 191.586 130.449 191.738Q130.325 191.89 130.186 192.029Q130.047 192.168 129.895 192.292Q129.743 192.417 129.58 192.526Q129.417 192.635 129.243 192.728Q129.07 192.82 128.888 192.895Q128.707 192.971 128.519 193.028Q128.331 193.085 128.138 193.123Q127.946 193.161 127.75 193.181Q127.555 193.2 127.358 193.2L123.451 193.2Q123.255 193.2 123.059 193.181Q122.864 193.161 122.671 193.123Q122.479 193.085 122.291 193.028Q122.103 192.971 121.921 192.895Q121.74 192.82 121.566 192.728Q121.393 192.635 121.23 192.526Q121.066 192.417 120.914 192.292Q120.763 192.168 120.624 192.029Q120.485 191.89 120.36 191.738Q120.235 191.586 120.126 191.423Q120.017 191.259 119.925 191.086Q119.832 190.913 119.757 190.731Q119.682 190.55 119.625 190.362Q119.568 190.174 119.529 189.981Q119.491 189.788 119.472 189.593Q119.452 189.397 119.452 189.201L119.452 87.0799Q119.452 86.8834 119.472 86.6879Q119.491 86.4924 119.529 86.2997Q119.568 86.107 119.625 85.919Q119.682 85.731 119.757 85.5495Q119.832 85.368 119.925 85.1947Q120.017 85.0215 120.126 84.8581Q120.235 84.6948 120.36 84.5429Q120.485 84.3911 120.624 84.2522Q120.763 84.1132 120.914 83.9886Q121.066 83.864 121.23 83.7548Q121.393 83.6457 121.566 83.5531Q121.74 83.4605 121.921 83.3853Q122.103 83.3101 122.291 83.2531Q122.479 83.196 122.671 83.1577Q122.864 83.1194 123.059 83.1001Q123.255 83.0809 123.451 83.0809Z" id="Rectangle-9" fill="#D35230" fill-rule="evenodd" stroke="none" />
    <path d="M93.6894 97.9618L97.5962 97.9618Q97.7927 97.9618 97.9882 97.9811Q98.1837 98.0003 98.3764 98.0386Q98.569 98.077 98.757 98.134Q98.945 98.191 99.1265 98.2662Q99.308 98.3414 99.4813 98.434Q99.6546 98.5266 99.8179 98.6357Q99.9812 98.7449 100.133 98.8695Q100.285 98.9942 100.424 99.1331Q100.563 99.272 100.687 99.4239Q100.812 99.5757 100.921 99.7391Q101.03 99.9024 101.123 100.076Q101.216 100.249 101.291 100.43Q101.366 100.612 101.423 100.8Q101.48 100.988 101.518 101.181Q101.557 101.373 101.576 101.569Q101.595 101.764 101.595 101.961L101.595 189.201Q101.595 189.397 101.576 189.593Q101.557 189.788 101.518 189.981Q101.48 190.174 101.423 190.362Q101.366 190.55 101.291 190.731Q101.216 190.913 101.123 191.086Q101.03 191.259 100.921 191.423Q100.812 191.586 100.687 191.738Q100.563 191.89 100.424 192.029Q100.285 192.168 100.133 192.292Q99.9812 192.417 99.8179 192.526Q99.6546 192.635 99.4813 192.728Q99.308 192.82 99.1265 192.895Q98.945 192.971 98.757 193.028Q98.569 193.085 98.3764 193.123Q98.1837 193.161 97.9882 193.181Q97.7927 193.2 97.5962 193.2L93.6894 193.2Q93.493 193.2 93.2975 193.181Q93.102 193.161 92.9093 193.123Q92.7166 193.085 92.5286 193.028Q92.3406 192.971 92.1591 192.895Q91.9776 192.82 91.8043 192.728Q91.631 192.635 91.4677 192.526Q91.3044 192.417 91.1525 192.292Q91.0006 192.168 90.8617 192.029Q90.7228 191.89 90.5982 191.738Q90.4735 191.586 90.3644 191.423Q90.2552 191.259 90.1626 191.086Q90.07 190.913 89.9948 190.731Q89.9197 190.55 89.8626 190.362Q89.8056 190.174 89.7673 189.981Q89.7289 189.788 89.7097 189.593Q89.6904 189.397 89.6904 189.201L89.6904 101.961Q89.6904 101.764 89.7097 101.569Q89.7289 101.373 89.7673 101.181Q89.8056 100.988 89.8626 100.8Q89.9197 100.612 89.9948 100.43Q90.07 100.249 90.1626 100.076Q90.2552 99.9024 90.3644 99.7391Q90.4735 99.5757 90.5982 99.4239Q90.7228 99.272 90.8617 99.1331Q91.0006 98.9942 91.1525 98.8695Q91.3044 98.7449 91.4677 98.6357Q91.631 98.5266 91.8043 98.434Q91.9776 98.3414 92.1591 98.2662Q92.3406 98.191 92.5286 98.134Q92.7166 98.077 92.9093 98.0386Q93.102 98.0003 93.2975 97.9811Q93.493 97.9618 93.6894 97.9618Z" id="Rectangle-10" fill="#D35230" fill-rule="evenodd" stroke="none" />
    <path d="M63.9276 133.676L67.8344 133.676Q68.0308 133.676 68.2263 133.695Q68.4218 133.715 68.6145 133.753Q68.8072 133.791 68.9952 133.848Q69.1832 133.905 69.3647 133.98Q69.5462 134.056 69.7195 134.148Q69.8927 134.241 70.0561 134.35Q70.2194 134.459 70.3713 134.584Q70.5232 134.708 70.6621 134.847Q70.801 134.986 70.9256 135.138Q71.0502 135.29 71.1594 135.453Q71.2685 135.617 71.3611 135.79Q71.4538 135.963 71.5289 136.145Q71.6041 136.326 71.6611 136.514Q71.7182 136.702 71.7565 136.895Q71.7948 137.088 71.8141 137.283Q71.8334 137.479 71.8334 137.675L71.8334 189.201Q71.8334 189.397 71.8141 189.593Q71.7948 189.788 71.7565 189.981Q71.7182 190.174 71.6611 190.362Q71.6041 190.55 71.5289 190.731Q71.4538 190.913 71.3611 191.086Q71.2685 191.259 71.1594 191.423Q71.0502 191.586 70.9256 191.738Q70.801 191.89 70.6621 192.029Q70.5232 192.168 70.3713 192.292Q70.2194 192.417 70.0561 192.526Q69.8927 192.635 69.7195 192.728Q69.5462 192.82 69.3647 192.895Q69.1832 192.971 68.9952 193.028Q68.8072 193.085 68.6145 193.123Q68.4218 193.161 68.2263 193.181Q68.0308 193.2 67.8344 193.2L63.9276 193.2Q63.7311 193.2 63.5356 193.181Q63.3401 193.161 63.1474 193.123Q62.9547 193.085 62.7667 193.028Q62.5787 192.971 62.3972 192.895Q62.2157 192.82 62.0425 192.728Q61.8692 192.635 61.7059 192.526Q61.5425 192.417 61.3907 192.292Q61.2388 192.168 61.0999 192.029Q60.9609 191.89 60.8363 191.738Q60.7117 191.586 60.6025 191.423Q60.4934 191.259 60.4008 191.086Q60.3082 190.913 60.233 190.731Q60.1578 190.55 60.1008 190.362Q60.0438 190.174 60.0054 189.981Q59.9671 189.788 59.9478 189.593Q59.9286 189.397 59.9286 189.201L59.9286 137.675Q59.9286 137.479 59.9478 137.283Q59.9671 137.088 60.0054 136.895Q60.0438 136.702 60.1008 136.514Q60.1578 136.326 60.233 136.145Q60.3082 135.963 60.4008 135.79Q60.4934 135.617 60.6025 135.453Q60.7117 135.29 60.8363 135.138Q60.9609 134.986 61.0999 134.847Q61.2388 134.708 61.3907 134.584Q61.5425 134.459 61.7059 134.35Q61.8692 134.241 62.0425 134.148Q62.2157 134.056 62.3972 133.98Q62.5787 133.905 62.7667 133.848Q62.9547 133.791 63.1474 133.753Q63.3401 133.715 63.5356 133.695Q63.7311 133.676 63.9276 133.676Z" id="Rectangle-11" fill="#D35230" fill-rule="evenodd" stroke="none" />
    <path d="M211.761 109.867L271.53 109.867Q271.677 109.867 271.825 109.878Q271.972 109.888 272.119 109.91Q272.265 109.932 272.409 109.964Q272.553 109.997 272.695 110.04Q272.836 110.083 272.974 110.137Q273.112 110.19 273.245 110.253Q273.379 110.317 273.507 110.39Q273.636 110.463 273.759 110.545Q273.881 110.628 273.998 110.719Q274.114 110.81 274.223 110.91Q274.333 111.009 274.434 111.117Q274.536 111.224 274.629 111.339Q274.723 111.453 274.807 111.575Q274.892 111.696 274.968 111.823Q275.043 111.95 275.109 112.082Q275.175 112.215 275.231 112.351L301 175.343L301 236.82Q301 237.016 300.981 237.212Q300.962 237.407 300.923 237.6Q300.885 237.793 300.828 237.981Q300.771 238.169 300.696 238.35Q300.62 238.532 300.528 238.705Q300.435 238.878 300.326 239.042Q300.217 239.205 300.092 239.357Q299.968 239.509 299.829 239.648Q299.69 239.787 299.538 239.911Q299.386 240.036 299.223 240.145Q299.059 240.254 298.886 240.347Q298.713 240.439 298.531 240.515Q298.35 240.59 298.162 240.647Q297.974 240.704 297.781 240.742Q297.589 240.78 297.393 240.8Q297.198 240.819 297.001 240.819L205.762 240.819L205.762 115.866Q205.762 115.718 205.769 115.571Q205.776 115.424 205.791 115.278Q205.805 115.131 205.827 114.985Q205.848 114.84 205.877 114.695Q205.906 114.551 205.942 114.408Q205.978 114.265 206.02 114.124Q206.063 113.983 206.113 113.845Q206.162 113.706 206.219 113.57Q206.275 113.434 206.338 113.301Q206.401 113.168 206.47 113.038Q206.54 112.908 206.615 112.781Q206.691 112.655 206.773 112.533Q206.855 112.41 206.943 112.292Q207.03 112.174 207.124 112.06Q207.217 111.946 207.316 111.837Q207.415 111.728 207.519 111.624Q207.623 111.52 207.732 111.421Q207.841 111.322 207.955 111.228Q208.069 111.135 208.187 111.047Q208.306 110.959 208.428 110.878Q208.551 110.796 208.677 110.72Q208.803 110.644 208.933 110.575Q209.063 110.506 209.196 110.443Q209.329 110.38 209.465 110.323Q209.601 110.267 209.74 110.217Q209.879 110.168 210.02 110.125Q210.16 110.082 210.303 110.046Q210.446 110.011 210.591 109.982Q210.735 109.953 210.881 109.932Q211.026 109.91 211.173 109.895Q211.32 109.881 211.467 109.874Q211.614 109.867 211.761 109.867Z" id="Rectangle-4" fill="#D96544" fill-rule="evenodd" stroke="none" />
    <path d="M80.762 240.819C80.762 224.382 94.0868 211.057 110.524 211.057C126.961 211.057 140.286 224.382 140.286 240.819C140.286 257.256 126.961 270.581 110.524 270.581C94.0868 270.581 80.762 257.256 80.762 240.819Z" id="Ellipse" fill="#586169" fill-rule="evenodd" stroke="none" />
    <path d="M223.619 240.819C223.619 224.382 236.944 211.057 253.381 211.057C269.818 211.057 283.143 224.382 283.143 240.819C283.143 257.256 269.818 270.581 253.381 270.581C236.944 270.581 223.619 257.256 223.619 240.819Z" id="Ellipse-2" fill="#586169" fill-rule="evenodd" stroke="none" />
    <path d="M95.6428 240.819C95.6428 232.6 102.305 225.938 110.524 225.938C118.742 225.938 125.405 232.6 125.405 240.819C125.405 249.037 118.742 255.7 110.524 255.7C102.305 255.7 95.6428 249.037 95.6428 240.819Z" id="Ellipse-3" fill="#686868" fill-rule="evenodd" stroke="none" />
    <path d="M238.5 240.819C238.5 232.6 245.162 225.938 253.381 225.938C261.599 225.938 268.262 232.6 268.262 240.819C268.262 249.037 261.599 255.7 253.381 255.7C245.162 255.7 238.5 249.037 238.5 240.819Z" id="Ellipse-4" fill="#686868" fill-rule="evenodd" stroke="none" />
    <path d="M231.57 121.771L267.586 121.771Q267.66 121.771 267.734 121.782Q267.807 121.793 267.878 121.815Q267.95 121.837 268.017 121.869Q268.084 121.901 268.146 121.943Q268.207 121.985 268.262 122.035Q268.317 122.086 268.364 122.144Q268.41 122.202 268.448 122.266Q268.485 122.33 268.513 122.399L283 158.616Q283.143 158.974 283.143 159.359L283.143 174.344Q283.143 174.442 283.124 174.539Q283.104 174.635 283.067 174.726Q283.029 174.817 282.974 174.899Q282.92 174.981 282.85 175.05Q282.781 175.12 282.699 175.174Q282.617 175.229 282.526 175.267Q282.435 175.304 282.339 175.324Q282.242 175.343 282.144 175.343L230.57 175.343Q230.472 175.343 230.376 175.324Q230.279 175.304 230.188 175.267Q230.097 175.229 230.015 175.174Q229.934 175.12 229.864 175.05Q229.794 174.981 229.74 174.899Q229.685 174.817 229.647 174.726Q229.61 174.635 229.591 174.539Q229.571 174.442 229.571 174.344L229.571 123.77Q229.571 123.672 229.581 123.574Q229.591 123.477 229.61 123.38Q229.629 123.284 229.657 123.19Q229.686 123.096 229.724 123.005Q229.761 122.915 229.807 122.828Q229.854 122.741 229.908 122.66Q229.963 122.578 230.025 122.502Q230.087 122.426 230.157 122.357Q230.226 122.287 230.302 122.225Q230.378 122.163 230.46 122.108Q230.541 122.054 230.628 122.007Q230.715 121.961 230.805 121.923Q230.896 121.886 230.99 121.857Q231.084 121.829 231.18 121.81Q231.277 121.791 231.374 121.781Q231.472 121.771 231.57 121.771Z" id="Rectangle-3" fill="#D35230" fill-rule="evenodd" stroke="none" />
  </g>
</svg>