<?xml version="1.0" encoding="utf-8"?>
<svg width="54px" height="54px" viewBox="0 0 54 54" version="1.1" xmlns:xlink="http://www.w3.org/1999/xlink" xmlns="http://www.w3.org/2000/svg">
  <g id="Schädel" transform="translate(0.5 0.5)">
    <path d="M1.00005 0L1.00005 5.00026" transform="translate(20.884155 35.00183)" id="Line-8" fill="none" fill-rule="evenodd" stroke="#000000" stroke-width="1" stroke-linecap="square" />
    <path d="M0 0L0 5.00026" transform="translate(23.384277 35.50183)" id="Line-9" fill="none" fill-rule="evenodd" stroke="#000000" stroke-width="1" stroke-linecap="square" />
    <path d="M0 0L0 4.50024" transform="translate(24.884338 36.001892)" id="Line-10" fill="none" fill-rule="evenodd" stroke="#000000" stroke-width="1" stroke-linecap="square" />
    <path d="M1.00005 0L1.00005 4.50024" transform="translate(25.3844 36.001892)" id="Line-11" fill="none" fill-rule="evenodd" stroke="#000000" stroke-width="1" stroke-linecap="square" />
    <path d="M0 0L0 4.50024" transform="translate(27.984375 36.001892)" id="Line-12" fill="none" fill-rule="evenodd" stroke="#000000" stroke-width="1" stroke-linecap="square" />
    <path d="M1.00005 0L1.00005 4.00021" transform="translate(28.584534 36.001892)" id="Line-13" fill="none" fill-rule="evenodd" stroke="#000000" stroke-width="1" stroke-linecap="square" />
    <path d="M0 0L0 4.00021" transform="translate(31.184631 35.50183)" id="Line-14" fill="none" fill-rule="evenodd" stroke="#000000" stroke-width="1" stroke-linecap="square" />
    <path d="M0.110523 0C-0.560596 4.69431 2.06259 5.07992 1.61062 7.00038C0.613687 11.2364 -0.683982 11.8977 0.611061 16.0009C1.9061 20.104 8.13741 19.6614 8.11097 23.0013C8.08453 26.3411 8.11097 28.0015 8.11097 28.0015" transform="translate(12.273071 11.00061)" id="Line-4" fill="none" fill-rule="evenodd" stroke="#000000" stroke-width="1" stroke-linecap="square" />
    <path d="M0.110523 0C-0.560595 4.69432 2.06259 5.07993 1.61062 7.00039C0.613687 11.2364 -0.683982 11.8977 0.611061 16.0009C1.9061 20.1041 8.09815 19.3264 8.11059 23.0012C8.12304 26.6761 8.1106 28.0014 8.1106 28.0014" transform="matrix(-1 0 0 1 40.88495 11.00061)" id="Line-5" fill="none" fill-rule="evenodd" stroke="#000000" stroke-width="1" stroke-linecap="square" />
    <path d="M0 0C0 0 2.37513 1.00005 5.50029 1.00005C8.62546 1.00005 11.5006 0 11.5006 0" transform="translate(20.884155 34.50183)" id="Line-6" fill="none" fill-rule="evenodd" stroke="#000000" stroke-width="1" stroke-linecap="square" />
    <path d="M0 0C0 0 2.37513 1.00005 5.50029 1.00005C8.62546 1.00005 11.5006 0 11.5006 0" transform="translate(20.584106 37.501953)" id="Line-7" fill="none" fill-rule="evenodd" stroke="#000000" stroke-width="1" stroke-linecap="square" />
    <path d="M0.23171 3.00016C0.731736 1.12506 2.73184 0 2.73184 0L2.73184 6.00032C2.73184 6.00032 1.35677 8.25044 0.731736 7.5004C0.106703 6.75036 -0.268316 4.87526 0.23171 3.00016Z" transform="translate(23.152588 24.501343)" id="Rectangle-3" fill="#000000" fill-rule="evenodd" stroke="none" />
    <path d="M0.23171 3.00016C0.731736 1.12506 2.73184 0 2.73184 0L2.73184 6.00032C2.73184 6.00032 1.35677 8.25044 0.731736 7.5004C0.106703 6.75036 -0.268316 4.87526 0.23171 3.00016Z" transform="matrix(-1 0 0 1 29.616333 24.501343)" id="Rectangle-4" fill="#000000" fill-rule="evenodd" stroke="none" />
    <path d="M16.6839 9.00048L16.6839 13.0007C16.6839 13.0007 10.3085 9.5005 6.18332 8.00042C2.0581 6.50034 1.05805 8.00042 0.183 7.00037C-0.692046 6.00032 1.80809 5.7503 2.68313 4.00021C3.55818 2.25012 2.43312 0 3.68319 0C4.93325 0 4.43323 1.75009 7.6834 4.00021C10.9336 6.25033 16.6839 9.00048 16.6839 9.00048Z" transform="translate(0 23.50122)" id="Line-2" fill="none" fill-rule="evenodd" stroke="#000000" stroke-width="1" stroke-linecap="square" />
    <path d="M16.6839 9.00048L16.6839 13.0007C16.6839 13.0007 10.3085 9.5005 6.18332 8.00042C2.0581 6.50034 1.05805 8.00042 0.183 7.00037C-0.692046 6.00032 1.80809 5.7503 2.68313 4.00021C3.55818 2.25012 2.43312 0 3.68318 0C4.93325 0 4.43323 1.75009 7.6834 4.00021C10.9336 6.25033 16.6839 9.00048 16.6839 9.00048Z" transform="matrix(-1 0 0 1 52.768677 24.001282)" id="Line-3" fill="none" fill-rule="evenodd" stroke="#000000" stroke-width="1" stroke-linecap="square" />
    <path d="M14.7131 7.97522C14.7131 7.97522 14.3333 8.41793 13.8159 9.27742C13.2985 10.1369 13.0429 11.1122 13.0429 11.1122C13.0429 11.1122 10.309 9.50096 6.18361 8.00081C2.0582 6.50066 1.0581 8.00081 0.183008 7.00071C-0.692078 6.0006 1.80817 5.75058 2.68326 4.0004C3.55835 2.25023 2.43323 0 3.68336 0C4.93348 0 4.43344 1.75018 7.68376 4.0004C10.9341 6.25063 14.7131 7.97522 14.7131 7.97522Z" transform="matrix(-0.60181504 -0.79863554 -0.79863554 0.60181504 51.60962 45.953857)" id="Line-15" fill="none" fill-rule="evenodd" stroke="#000000" stroke-width="1" stroke-linecap="square" />
    <path d="M14.7131 7.97522C14.7131 7.97522 14.3333 8.41793 13.8159 9.27742C13.2985 10.1369 13.0429 11.1122 13.0429 11.1122C13.0429 11.1122 10.309 9.50096 6.18361 8.00081C2.05819 6.50066 1.05809 8.00081 0.183006 7.00071C-0.692078 6.0006 1.80817 5.75058 2.68326 4.0004C3.55834 2.25023 2.43324 0 3.68336 0C4.93348 1.90735e-06 4.43343 1.75018 7.68376 4.0004C10.9341 6.25063 14.7131 7.97522 14.7131 7.97522Z" transform="matrix(0.60181504 -0.79863554 0.79863554 0.60181504 1.1557617 46.25299)" id="Line-16" fill="none" fill-rule="evenodd" stroke="#000000" stroke-width="1" stroke-linecap="square" />
    <path d="M3.43317 22.0012C3.43317 22.0012 -10.3885 1.36167e-06 17.4337 6.32058e-14C45.2559 -1.36167e-06 31.9345 22.0012 31.9345 22.0012" transform="translate(8.950684 0)" id="Line" fill="none" fill-rule="evenodd" stroke="#000000" stroke-width="1" stroke-linecap="square" />
    <path d="M1.25963 0.835823C3.07163 -0.745037 6.64702 -0.0866566 9.26838 2.83878C11.8897 5.76421 3.4734 9.71995 1.55184 8.44672C-0.369723 7.17348 -0.552359 2.41668 1.25963 0.835823Z" transform="matrix(0.9335804 -0.35836795 0.35836795 0.9335804 13.649475 19.67273)" id="Rectangle" fill="#000000" fill-rule="evenodd" stroke="none" />
    <path d="M1.25963 0.835823C3.07162 -0.745039 6.64701 -0.0866566 9.26838 2.83878C11.8897 5.76421 3.4734 9.71995 1.55184 8.44672C-0.369724 7.17348 -0.552359 2.41669 1.25963 0.835823Z" transform="matrix(-0.9335804 -0.35836795 -0.35836795 0.9335804 38.886353 19.687744)" id="Rectangle-2" fill="#000000" fill-rule="evenodd" stroke="none" />
    <path d="M0.00274657 0C-0.0599188 1.16669 0.969141 1.83975 1.1068 2.68029C1.55831 5.43721 1.31299 7.02334 1.95799 7.66877C5.01075 10.7236 14.3716 10.6275 17.5008 7.5004C18.1687 6.83292 17.9295 4.77633 18.5009 2.68029C18.7175 1.88554 19.9199 1.25138 19.501 0" transform="translate(16.883911 31.001648)" id="Vector" fill="none" fill-rule="evenodd" stroke="#000000" stroke-width="1" />
    <path d="M0 0C0.613802 2.10216 1.17497 2.5337 1.2191 3.50018C1.46533 5.88599 0.710527 8.33647 0.999911 9.50051C1.649 12.0635 3.07394 13.9652 4.00008 14.5008C4.00008 14.5008 6.50021 15.8758 9.50038 16.0009C12.5005 16.1259 16.0007 15.0008 16.0007 15.0008C17.6277 14.4144 19.8034 10.9545 20.001 10.0005C20.4478 6.55262 20.1004 6.38999 20.001 4.00021C20.001 2.62445 21.6003 1.47316 21.501 0" transform="translate(15.884033 30.001709)" id="Vector-2" fill="none" fill-rule="evenodd" stroke="#000000" stroke-width="1" />
  </g>
</svg>