<?xml version="1.0" encoding="utf-8"?>
<svg width="1915px" height="1915px" viewBox="0 0 1915 1915" version="1.1" xmlns:xlink="http://www.w3.org/1999/xlink" xmlns="http://www.w3.org/2000/svg">
  <defs>
    <path d="M1.09551 48.2807L42.2901 27.4084Q42.4136 27.3458 42.5154 27.252Q42.6173 27.1582 42.6897 27.0402Q42.7622 26.9222 42.7999 26.789Q42.8375 26.6557 42.8375 26.5173L42.8375 5.72517Q42.8375 5.4262 42.6733 5.17639L39.2703 0L47.1422 0L117.807 0L114.4 5.17619Q114.235 5.4262 114.235 5.72554L114.235 26.5173Q114.235 26.6557 114.273 26.789Q114.31 26.9222 114.383 27.0402Q114.455 27.1582 114.557 27.252Q114.659 27.3458 114.782 27.4084L155.979 48.2808Q156.102 48.3431 156.215 48.4217Q156.328 48.5003 156.43 48.5937Q156.531 48.6871 156.619 48.7936Q156.706 48.9 156.778 49.0175Q156.851 49.135 156.906 49.2613Q156.961 49.3876 156.999 49.5202Q157.036 49.6529 157.055 49.7895Q157.074 49.9261 157.074 50.0639L157.074 96.7736Q157.074 97.213 156.948 97.6339Q156.822 98.0548 156.581 98.4219L135.985 129.729Q135.824 129.973 135.74 130.254Q135.656 130.535 135.656 130.827L135.656 216.419Q135.656 217.048 135.908 217.624L156.822 265.308Q157.074 265.884 157.074 266.513L157.074 372.409Q157.074 372.507 157.065 372.605Q157.055 372.702 157.036 372.799Q157.017 372.895 156.988 372.989Q156.96 373.083 156.922 373.174Q156.884 373.264 156.838 373.351Q156.792 373.438 156.737 373.519Q156.683 373.601 156.62 373.677Q156.558 373.753 156.489 373.822Q156.419 373.892 156.343 373.954Q156.267 374.016 156.186 374.071Q156.104 374.125 156.018 374.172Q155.931 374.218 155.84 374.256Q155.749 374.293 155.655 374.322Q155.561 374.35 155.465 374.369Q155.369 374.388 155.271 374.398Q155.173 374.408 155.075 374.408L1.999 374.408Q1.9008 374.408 1.80306 374.398Q1.70533 374.388 1.60901 374.369Q1.5127 374.35 1.41872 374.322Q1.32474 374.293 1.23402 374.255Q1.14329 374.218 1.05668 374.172Q0.970069 374.125 0.888415 374.071Q0.806761 374.016 0.730848 373.954Q0.654935 373.892 0.585494 373.822Q0.516052 373.753 0.453752 373.677Q0.391452 373.601 0.336892 373.519Q0.282333 373.438 0.236039 373.351Q0.189746 373.264 0.152165 373.174Q0.114584 373.083 0.0860763 372.989Q0.057569 372.895 0.0384102 372.799Q0.0192515 372.702 0.00962573 372.605Q0 372.507 0 372.409L0 266.513Q0 265.884 0.252552 265.308L21.1667 217.624Q21.4192 217.048 21.4192 216.419L21.4192 130.827Q21.4192 130.535 21.3352 130.254Q21.2512 129.973 21.0902 129.729L0.493584 98.4219Q0.25209 98.0548 0.126045 97.6339Q0 97.213 0 96.7736L0 50.0639Q0 49.926 0.0189295 49.7895Q0.037859 49.6529 0.0753594 49.5202Q0.11286 49.3875 0.168221 49.2613Q0.223582 49.135 0.295756 49.0175Q0.367929 48.9 0.455548 48.7936Q0.543167 48.6871 0.644572 48.5937Q0.745977 48.5003 0.859247 48.4217Q0.972517 48.3431 1.09551 48.2807L1.09551 48.2807Z" transform="translate(0 25.98877)" id="path_1" />
    <clipPath id="clip_1">
      <use xlink:href="#path_1" />
    </clipPath>
  </defs>
  <g id="Alltips" transform="translate(7.5 7.5)">
    <path d="M0 0L1900 0L1900 1900L0 1900L0 0Z" id="Rectangle-5" fill="#A5B975" fill-rule="evenodd" stroke="none" />
    <g id="Gelbe-Tonne-2" transform="translate(139.6199 1243.1997)">
      <path d="M15.3319 15.4246L267.352 0.964447Q267.747 0.941806 268.142 0.939978Q268.538 0.938151 268.932 0.957142Q269.327 0.976134 269.72 1.01589Q270.114 1.05565 270.504 1.11606Q270.895 1.17647 271.282 1.25737Q271.669 1.33827 272.051 1.43944Q272.433 1.5406 272.809 1.66175Q273.185 1.7829 273.555 1.92369Q273.924 2.06448 274.285 2.22453Q274.647 2.38458 274.999 2.56344Q275.352 2.7423 275.694 2.93947Q276.037 3.13664 276.368 3.35159Q276.7 3.56653 277.02 3.79864Q277.34 4.03075 277.647 4.27939Q277.954 4.52803 278.248 4.7925Q278.542 5.05698 278.821 5.33656Q279.101 5.61614 279.365 5.91004Q279.629 6.20394 279.878 6.51136Q280.126 6.81877 280.358 7.13884Q280.59 7.45892 280.804 7.79076Q281.019 8.1226 281.216 8.46529Q281.413 8.80797 281.592 9.16056Q281.77 9.51314 281.93 9.87464Q282.09 10.2361 282.23 10.6056Q282.371 10.975 282.492 11.3513Q282.613 11.7276 282.714 12.1097Q282.815 12.4919 282.895 12.8788Q282.976 13.2658 283.036 13.6564Q283.096 14.0471 283.136 14.4403Q283.175 14.8336 283.194 15.2284Q283.213 15.6232 283.21 16.0184Q283.208 16.4137 283.185 16.8083L264.019 346.895Q263.999 347.249 263.961 347.602Q263.924 347.954 263.87 348.305Q263.816 348.655 263.746 349.003Q263.675 349.35 263.589 349.694Q263.502 350.038 263.399 350.378Q263.296 350.717 263.177 351.051Q263.059 351.385 262.924 351.713Q262.79 352.041 262.64 352.363Q262.49 352.684 262.325 352.998Q262.16 353.312 261.981 353.618Q261.801 353.924 261.608 354.221Q261.414 354.518 261.206 354.805Q260.999 355.093 260.778 355.37Q260.557 355.647 260.323 355.914Q260.089 356.181 259.843 356.436Q259.597 356.691 259.339 356.935Q259.081 357.178 258.812 357.409Q258.543 357.64 258.263 357.858Q257.984 358.076 257.694 358.28Q257.404 358.485 257.105 358.675Q256.806 358.866 256.498 359.042Q256.191 359.218 255.875 359.38Q255.559 359.541 255.236 359.687Q254.913 359.834 254.584 359.965Q254.254 360.096 253.919 360.211Q253.583 360.326 253.243 360.425Q252.903 360.525 252.558 360.608Q252.213 360.691 251.865 360.757Q251.516 360.824 251.165 360.874Q250.814 360.924 250.461 360.958Q250.108 360.991 249.754 361.008Q249.4 361.025 249.045 361.025L41.7824 361.025Q41.4331 361.025 41.0843 361.008Q40.7354 360.992 40.3877 360.96Q40.04 360.927 39.6942 360.879Q39.3483 360.83 39.0051 360.765Q38.662 360.701 38.3221 360.62Q37.9823 360.539 37.6466 360.443Q37.3109 360.347 36.9801 360.235Q36.6492 360.123 36.3239 359.996Q35.9987 359.869 35.6796 359.727Q35.3606 359.585 35.0486 359.428Q34.7365 359.271 34.4321 359.1Q34.1277 358.929 33.8315 358.744Q33.5354 358.559 33.2482 358.36Q32.961 358.161 32.6834 357.949Q32.4057 357.738 32.1383 357.513Q31.8708 357.288 31.6141 357.052Q31.3573 356.815 31.1119 356.566Q30.8665 356.318 30.6329 356.059Q30.3993 355.799 30.178 355.529Q29.9567 355.259 29.7483 354.978Q29.5398 354.698 29.3447 354.408Q29.1495 354.119 28.968 353.821Q28.7865 353.522 28.6191 353.216Q28.4516 352.909 28.2987 352.595Q28.1457 352.281 28.0075 351.961Q27.8693 351.64 27.7462 351.313Q27.6231 350.986 27.5154 350.654Q27.4076 350.322 27.3154 349.985Q27.2232 349.648 27.1468 349.307Q27.0704 348.967 27.0099 348.623Q26.9495 348.279 26.9051 347.932Q26.8607 347.586 26.8324 347.238L1.24109 31.6112Q1.21089 31.2387 1.19928 30.8651Q1.18766 30.4915 1.19467 30.1179Q1.20167 29.7442 1.22728 29.3713Q1.25289 28.9985 1.29703 28.6274Q1.34118 28.2562 1.40375 27.8878Q1.46632 27.5193 1.54717 27.1544Q1.62802 26.7895 1.72694 26.4291Q1.82586 26.0687 1.9426 25.7137Q2.05935 25.3587 2.19363 25.0099Q2.32792 24.6611 2.4794 24.3194Q2.63089 23.9778 2.79921 23.6441Q2.96752 23.3104 3.15225 22.9855Q3.33697 22.6606 3.53765 22.3453Q3.73833 22.03 3.95446 21.7251Q4.17059 21.4202 4.40163 21.1265Q4.63268 20.8327 4.87808 20.5508Q5.12347 20.2689 5.38259 19.9996Q5.64172 19.7303 5.91394 19.4742Q6.18616 19.2181 6.47079 18.9759Q6.75542 18.7337 7.05177 18.506Q7.34811 18.2783 7.65543 18.0656Q7.96275 17.8529 8.28028 17.6558Q8.5978 17.4587 8.92476 17.2776Q9.25171 17.0966 9.58727 16.932Q9.92283 16.7675 10.2662 16.6198Q10.6095 16.4722 10.9598 16.3418Q11.3101 16.2115 11.6664 16.0988Q12.0227 15.986 12.3842 15.8912Q12.7457 15.7963 13.1115 15.7196Q13.4773 15.6428 13.8464 15.5844Q14.2155 15.526 14.5871 15.486Q14.9587 15.4461 15.3318 15.4246L15.3319 15.4246Z" transform="translate(16.304352 13.975342)" id="Rectangle" fill="#D4B539" fill-rule="evenodd" stroke="none" />
      <path d="M0 37.2671C0 16.685 16.685 0 37.2671 0C57.8491 0 74.5341 16.685 74.5341 37.2671C74.5341 57.8491 57.8491 74.5341 37.2671 74.5341C16.685 74.5341 0 57.8491 0 37.2671Z" transform="translate(223.60236 300.46582)" id="Ellipse-2" fill="#988D16" fill-rule="evenodd" stroke="none" />
      <path d="M0 18.6335C0 8.34251 8.34251 0 18.6335 0C28.9245 0 37.267 8.34251 37.267 18.6335C37.267 28.9245 28.9245 37.2671 18.6335 37.2671C8.34251 37.2671 0 28.9245 0 18.6335Z" transform="translate(242.2359 319.09937)" id="Ellipse" fill="#D4B539" fill-rule="evenodd" stroke="none" />
      <path d="M7.999 0L308.771 0Q308.967 0 309.164 0.00963514Q309.36 0.0192703 309.555 0.0385174Q309.751 0.0577644 309.945 0.0865771Q310.139 0.11539 310.332 0.153699Q310.524 0.192007 310.715 0.23972Q310.905 0.287433 311.093 0.344434Q311.281 0.401436 311.466 0.467589Q311.651 0.533742 311.832 0.608888Q312.013 0.684033 312.191 0.76799Q312.368 0.851946 312.542 0.944512Q312.715 1.03708 312.883 1.13803Q313.052 1.23898 313.215 1.34807Q313.378 1.45717 313.536 1.57414Q313.694 1.69112 313.846 1.81569Q313.997 1.94026 314.143 2.07213Q314.288 2.204 314.427 2.34285Q314.566 2.4817 314.698 2.6272Q314.83 2.7727 314.954 2.92449Q315.079 3.07628 315.196 3.234Q315.313 3.39172 315.422 3.55499Q315.531 3.71826 315.632 3.88669Q315.733 4.05512 315.826 4.2283Q315.918 4.40148 316.002 4.57899Q316.086 4.7565 316.161 4.93791Q316.236 5.11933 316.302 5.30422Q316.369 5.4891 316.426 5.67701Q316.483 5.86492 316.53 6.0554Q316.578 6.24588 316.616 6.43847Q316.655 6.63106 316.683 6.8253Q316.712 7.01954 316.732 7.21496Q316.751 7.41038 316.76 7.60651Q316.77 7.80264 316.77 7.999L316.77 36.2556Q316.77 36.452 316.76 36.6481Q316.751 36.8443 316.732 37.0397Q316.712 37.2351 316.683 37.4293Q316.655 37.6236 316.616 37.8162Q316.578 38.0088 316.53 38.1992Q316.483 38.3897 316.426 38.5776Q316.369 38.7655 316.302 38.9504Q316.236 39.1353 316.161 39.3167Q316.086 39.4981 316.002 39.6756Q315.918 39.8532 315.825 40.0263Q315.733 40.1995 315.632 40.3679Q315.531 40.5364 315.422 40.6996Q315.313 40.8629 315.196 41.0206Q315.079 41.1784 314.954 41.3302Q314.83 41.4819 314.698 41.6274Q314.566 41.7729 314.427 41.9118Q314.288 42.0506 314.143 42.1825Q313.997 42.3144 313.846 42.4389Q313.694 42.5635 313.536 42.6805Q313.378 42.7975 313.215 42.9066Q313.052 43.0157 312.883 43.1166Q312.715 43.2176 312.542 43.3101Q312.368 43.4027 312.191 43.4866Q312.013 43.5706 311.832 43.6457Q311.651 43.7209 311.466 43.787Q311.281 43.8532 311.093 43.9102Q310.905 43.9672 310.715 44.0149Q310.524 44.0626 310.332 44.1009Q310.139 44.1392 309.945 44.1681Q309.751 44.1969 309.555 44.2161Q309.36 44.2354 309.164 44.245Q308.967 44.2546 308.771 44.2546L7.999 44.2546Q7.80264 44.2546 7.60651 44.245Q7.41038 44.2354 7.21496 44.2161Q7.01954 44.1969 6.8253 44.1681Q6.63106 44.1392 6.43847 44.1009Q6.24588 44.0626 6.0554 44.0149Q5.86492 43.9672 5.67701 43.9102Q5.4891 43.8532 5.30422 43.787Q5.11933 43.7209 4.93791 43.6457Q4.7565 43.5706 4.57899 43.4866Q4.40148 43.4027 4.2283 43.3101Q4.05512 43.2176 3.88669 43.1166Q3.71826 43.0157 3.55499 42.9066Q3.39172 42.7975 3.234 42.6805Q3.07628 42.5635 2.92449 42.4389Q2.7727 42.3144 2.6272 42.1825Q2.4817 42.0506 2.34285 41.9118Q2.204 41.7729 2.07213 41.6274Q1.94026 41.4819 1.81569 41.3301Q1.69112 41.1784 1.57414 41.0206Q1.45717 40.8629 1.34807 40.6996Q1.23898 40.5364 1.13803 40.3679Q1.03708 40.1995 0.944512 40.0263Q0.851946 39.8532 0.76799 39.6756Q0.684033 39.4981 0.608888 39.3167Q0.533742 39.1353 0.467589 38.9504Q0.401436 38.7655 0.344434 38.5776Q0.287433 38.3897 0.23972 38.1992Q0.192007 38.0088 0.153699 37.8162Q0.11539 37.6236 0.0865771 37.4293Q0.0577644 37.2351 0.0385174 37.0397Q0.0192703 36.8443 0.00963514 36.6481Q0 36.452 0 36.2556L0 7.999Q0 7.80264 0.00963514 7.60651Q0.0192703 7.41038 0.0385174 7.21496Q0.0577644 7.01954 0.0865771 6.8253Q0.11539 6.63106 0.153699 6.43847Q0.192007 6.24588 0.23972 6.0554Q0.287433 5.86492 0.344434 5.67701Q0.401436 5.4891 0.467589 5.30422Q0.533742 5.11933 0.608888 4.93791Q0.684033 4.7565 0.76799 4.57899Q0.851946 4.40148 0.944512 4.2283Q1.03708 4.05512 1.13803 3.88669Q1.23898 3.71826 1.34807 3.55499Q1.45717 3.39172 1.57414 3.234Q1.69112 3.07628 1.81569 2.92449Q1.94026 2.7727 2.07213 2.6272Q2.204 2.4817 2.34285 2.34285Q2.4817 2.204 2.6272 2.07213Q2.7727 1.94026 2.92449 1.81569Q3.07628 1.69112 3.234 1.57414Q3.39172 1.45717 3.55499 1.34807Q3.71826 1.23898 3.88669 1.13803Q4.05512 1.03708 4.2283 0.944512Q4.40148 0.851946 4.57899 0.76799Q4.7565 0.684033 4.93791 0.608888Q5.11933 0.533742 5.30422 0.467589Q5.4891 0.401436 5.67701 0.344434Q5.86492 0.287433 6.0554 0.23972Q6.24588 0.192007 6.43847 0.153699Q6.63106 0.11539 6.8253 0.0865771Q7.01954 0.0577644 7.21496 0.0385174Q7.41038 0.0192703 7.60651 0.00963514Q7.80264 0 7.999 0L7.999 0Z" transform="translate(0 13.975342)" id="Rectangle-2" fill="#D6C337" fill-rule="evenodd" stroke="none" />
      <path d="M9.999 0L171.678 0Q171.923 0 172.169 0.0120442Q172.414 0.0240885 172.658 0.0481479Q172.902 0.0722074 173.145 0.108224Q173.388 0.144241 173.629 0.192128Q173.869 0.240015 174.107 0.299657Q174.346 0.3593 174.58 0.430553Q174.815 0.501807 175.046 0.584501Q175.278 0.667194 175.504 0.761128Q175.731 0.855062 175.953 0.960011Q176.175 1.06496 176.391 1.18067Q176.608 1.29638 176.818 1.42257Q177.029 1.54876 177.233 1.68514Q177.437 1.82151 177.634 1.96773Q177.831 2.11395 178.021 2.26967Q178.211 2.42539 178.393 2.59023Q178.575 2.75507 178.748 2.92864Q178.922 3.10221 179.087 3.28408Q179.252 3.46596 179.407 3.6557Q179.563 3.84545 179.709 4.0426Q179.855 4.23976 179.992 4.44385Q180.128 4.64795 180.254 4.85849Q180.381 5.06903 180.496 5.2855Q180.612 5.50198 180.717 5.72388Q180.822 5.94577 180.916 6.17255Q181.01 6.39932 181.092 6.63044Q181.175 6.86155 181.246 7.09644Q181.318 7.33134 181.377 7.56944Q181.437 7.80755 181.485 8.04829Q181.533 8.28904 181.569 8.53184Q181.605 8.77465 181.629 9.01893Q181.653 9.26321 181.665 9.50837Q181.677 9.75354 181.677 9.999L181.677 27.2681Q181.677 27.5135 181.665 27.7587Q181.653 28.0039 181.629 28.2481Q181.605 28.4924 181.569 28.7352Q181.533 28.978 181.485 29.2188Q181.437 29.4595 181.377 29.6976Q181.318 29.9357 181.246 30.1706Q181.175 30.4055 181.092 30.6366Q181.01 30.8677 180.916 31.0945Q180.822 31.3213 180.717 31.5432Q180.612 31.7651 180.496 31.9816Q180.381 32.198 180.254 32.4086Q180.128 32.6191 179.992 32.8232Q179.855 33.0273 179.709 33.2245Q179.563 33.4216 179.407 33.6114Q179.252 33.8011 179.087 33.983Q178.922 34.1649 178.748 34.3384Q178.575 34.512 178.393 34.6768Q178.211 34.8417 178.021 34.9974Q177.831 35.1531 177.634 35.2993Q177.437 35.4455 177.233 35.5819Q177.029 35.7183 176.818 35.8445Q176.608 35.9707 176.391 36.0864Q176.175 36.2021 175.953 36.307Q175.731 36.412 175.504 36.5059Q175.278 36.5999 175.046 36.6826Q174.815 36.7653 174.58 36.8365Q174.346 36.9078 174.107 36.9674Q173.869 37.027 173.629 37.0749Q173.388 37.1228 173.145 37.1588Q172.902 37.1949 172.658 37.2189Q172.414 37.243 172.169 37.255Q171.923 37.2671 171.678 37.2671L9.999 37.2671Q9.75354 37.2671 9.50837 37.255Q9.26321 37.243 9.01893 37.2189Q8.77465 37.1949 8.53184 37.1588Q8.28904 37.1228 8.04829 37.0749Q7.80755 37.027 7.56944 36.9674Q7.33134 36.9078 7.09644 36.8365Q6.86155 36.7653 6.63044 36.6826Q6.39932 36.5999 6.17255 36.5059Q5.94577 36.412 5.72388 36.307Q5.50198 36.2021 5.2855 36.0864Q5.06903 35.9707 4.85849 35.8445Q4.64795 35.7183 4.44385 35.5819Q4.23976 35.4456 4.0426 35.2993Q3.84545 35.1531 3.6557 34.9974Q3.46596 34.8417 3.28408 34.6768Q3.10221 34.512 2.92864 34.3384Q2.75507 34.1649 2.59023 33.983Q2.42539 33.8011 2.26967 33.6114Q2.11395 33.4216 1.96773 33.2245Q1.82151 33.0273 1.68514 32.8232Q1.54876 32.6191 1.42257 32.4086Q1.29638 32.198 1.18067 31.9816Q1.06496 31.7651 0.960011 31.5432Q0.855062 31.3213 0.761128 31.0945Q0.667194 30.8677 0.584501 30.6366Q0.501807 30.4055 0.430553 30.1706Q0.3593 29.9357 0.299657 29.6976Q0.240015 29.4595 0.192128 29.2188Q0.144241 28.978 0.108224 28.7352Q0.0722074 28.4924 0.0481479 28.2481Q0.0240885 28.0039 0.0120442 27.7587Q0 27.5135 0 27.2681L0 9.999Q0 9.75354 0.0120442 9.50837Q0.0240885 9.26321 0.0481479 9.01893Q0.0722074 8.77465 0.108224 8.53184Q0.144241 8.28904 0.192128 8.04829Q0.240015 7.80755 0.299657 7.56944Q0.3593 7.33134 0.430553 7.09644Q0.501807 6.86155 0.584501 6.63044Q0.667194 6.39932 0.761128 6.17255Q0.855062 5.94577 0.960011 5.72388Q1.06496 5.50198 1.18067 5.2855Q1.29638 5.06903 1.42257 4.85849Q1.54876 4.64795 1.68514 4.44385Q1.82151 4.23976 1.96773 4.0426Q2.11395 3.84545 2.26967 3.6557Q2.42539 3.46596 2.59023 3.28408Q2.75507 3.10221 2.92864 2.92864Q3.10221 2.75507 3.28408 2.59023Q3.46596 2.42539 3.6557 2.26967Q3.84545 2.11395 4.0426 1.96773Q4.23976 1.82151 4.44385 1.68514Q4.64795 1.54876 4.85849 1.42257Q5.06903 1.29638 5.2855 1.18067Q5.50198 1.06496 5.72388 0.960011Q5.94577 0.855062 6.17255 0.761128Q6.39932 0.667194 6.63044 0.584501Q6.86155 0.501807 7.09644 0.430553Q7.33134 0.3593 7.56944 0.299657Q7.80755 0.240015 8.04829 0.192128Q8.28904 0.144241 8.53184 0.108224Q8.77465 0.0722074 9.01893 0.0481479Q9.26321 0.0240885 9.50837 0.0120442Q9.75354 0 9.999 0L9.999 0Z" transform="translate(135.09314 0)" id="Rectangle-3" fill="#D6C337" fill-rule="evenodd" stroke="none" />
    </g>
    <g id="Schwarze-Tonne-2" transform="translate(573.2001 1243.1997)">
      <path d="M15.3319 15.4246L267.352 0.964447Q267.747 0.941806 268.142 0.939978Q268.538 0.938151 268.932 0.957142Q269.327 0.976134 269.72 1.01589Q270.114 1.05565 270.504 1.11606Q270.895 1.17647 271.282 1.25737Q271.669 1.33827 272.051 1.43944Q272.433 1.5406 272.809 1.66175Q273.185 1.7829 273.555 1.92369Q273.924 2.06448 274.285 2.22453Q274.647 2.38458 274.999 2.56344Q275.352 2.7423 275.694 2.93947Q276.037 3.13664 276.368 3.35159Q276.7 3.56653 277.02 3.79864Q277.34 4.03075 277.647 4.27939Q277.954 4.52803 278.248 4.7925Q278.542 5.05698 278.821 5.33656Q279.101 5.61614 279.365 5.91004Q279.629 6.20394 279.878 6.51136Q280.126 6.81877 280.358 7.13884Q280.59 7.45892 280.804 7.79076Q281.019 8.1226 281.216 8.46529Q281.413 8.80797 281.592 9.16056Q281.77 9.51314 281.93 9.87464Q282.09 10.2361 282.23 10.6056Q282.371 10.975 282.492 11.3513Q282.613 11.7276 282.714 12.1097Q282.815 12.4919 282.895 12.8788Q282.976 13.2658 283.036 13.6564Q283.096 14.0471 283.136 14.4403Q283.175 14.8336 283.194 15.2284Q283.213 15.6232 283.21 16.0184Q283.208 16.4137 283.185 16.8083L264.019 346.895Q263.999 347.249 263.961 347.602Q263.924 347.954 263.87 348.305Q263.816 348.655 263.746 349.003Q263.675 349.35 263.589 349.694Q263.502 350.038 263.399 350.378Q263.296 350.717 263.177 351.051Q263.059 351.385 262.924 351.713Q262.79 352.041 262.64 352.363Q262.49 352.684 262.325 352.998Q262.16 353.312 261.981 353.618Q261.801 353.924 261.608 354.221Q261.414 354.518 261.206 354.805Q260.999 355.093 260.778 355.37Q260.557 355.647 260.323 355.914Q260.089 356.181 259.843 356.436Q259.597 356.691 259.339 356.935Q259.081 357.178 258.812 357.409Q258.543 357.64 258.263 357.858Q257.984 358.076 257.694 358.28Q257.404 358.485 257.105 358.675Q256.806 358.866 256.498 359.042Q256.191 359.218 255.875 359.38Q255.559 359.541 255.236 359.687Q254.913 359.834 254.584 359.965Q254.254 360.096 253.919 360.211Q253.583 360.326 253.243 360.425Q252.903 360.525 252.558 360.608Q252.213 360.691 251.865 360.757Q251.516 360.824 251.165 360.874Q250.814 360.924 250.461 360.958Q250.108 360.991 249.754 361.008Q249.4 361.025 249.045 361.025L41.7824 361.025Q41.4331 361.025 41.0843 361.008Q40.7354 360.992 40.3877 360.96Q40.04 360.927 39.6942 360.879Q39.3483 360.83 39.0051 360.765Q38.662 360.701 38.3221 360.62Q37.9823 360.539 37.6466 360.443Q37.3109 360.347 36.9801 360.235Q36.6492 360.123 36.3239 359.996Q35.9987 359.869 35.6796 359.727Q35.3606 359.585 35.0486 359.428Q34.7365 359.271 34.4321 359.1Q34.1277 358.929 33.8315 358.744Q33.5354 358.559 33.2482 358.36Q32.961 358.161 32.6834 357.949Q32.4057 357.738 32.1383 357.513Q31.8708 357.288 31.6141 357.052Q31.3573 356.815 31.1119 356.566Q30.8665 356.318 30.6329 356.059Q30.3993 355.799 30.178 355.529Q29.9567 355.259 29.7483 354.978Q29.5398 354.698 29.3447 354.408Q29.1495 354.119 28.968 353.821Q28.7865 353.522 28.6191 353.216Q28.4516 352.909 28.2987 352.595Q28.1457 352.281 28.0075 351.961Q27.8693 351.64 27.7462 351.313Q27.6231 350.986 27.5154 350.654Q27.4076 350.322 27.3154 349.985Q27.2232 349.648 27.1468 349.307Q27.0704 348.967 27.0099 348.623Q26.9495 348.279 26.9051 347.932Q26.8607 347.586 26.8324 347.238L1.24109 31.6112Q1.21089 31.2387 1.19928 30.8651Q1.18766 30.4915 1.19467 30.1179Q1.20167 29.7442 1.22728 29.3713Q1.25289 28.9985 1.29703 28.6274Q1.34118 28.2562 1.40375 27.8878Q1.46632 27.5193 1.54717 27.1544Q1.62802 26.7895 1.72694 26.4291Q1.82586 26.0687 1.9426 25.7137Q2.05935 25.3587 2.19363 25.0099Q2.32792 24.6611 2.4794 24.3194Q2.63089 23.9778 2.79921 23.6441Q2.96752 23.3104 3.15225 22.9855Q3.33697 22.6606 3.53765 22.3453Q3.73833 22.03 3.95446 21.7251Q4.17059 21.4202 4.40163 21.1265Q4.63268 20.8327 4.87808 20.5508Q5.12347 20.2689 5.38259 19.9996Q5.64172 19.7303 5.91394 19.4742Q6.18616 19.2181 6.47079 18.9759Q6.75542 18.7337 7.05177 18.506Q7.34811 18.2783 7.65543 18.0656Q7.96275 17.8529 8.28028 17.6558Q8.5978 17.4587 8.92476 17.2776Q9.25171 17.0966 9.58727 16.932Q9.92283 16.7675 10.2662 16.6198Q10.6095 16.4722 10.9598 16.3418Q11.3101 16.2115 11.6664 16.0988Q12.0227 15.986 12.3842 15.8912Q12.7457 15.7963 13.1115 15.7196Q13.4773 15.6428 13.8464 15.5844Q14.2155 15.526 14.5871 15.486Q14.9587 15.4461 15.3318 15.4246L15.3319 15.4246Z" transform="translate(16.304337 13.975342)" id="Rectangle" fill="#090909" fill-rule="evenodd" stroke="none" />
      <path d="M0 37.2671C0 16.685 16.685 0 37.2671 0C57.8491 0 74.5341 16.685 74.5341 37.2671C74.5341 57.8491 57.8491 74.5341 37.2671 74.5341C16.685 74.5341 0 57.8491 0 37.2671Z" transform="translate(223.60236 300.46582)" id="Ellipse-2" fill="#242424" fill-rule="evenodd" stroke="none" />
      <path d="M0 18.6335C0 8.34251 8.34251 0 18.6335 0C28.9245 0 37.267 8.34251 37.267 18.6335C37.267 28.9245 28.9245 37.2671 18.6335 37.2671C8.34251 37.2671 0 28.9245 0 18.6335Z" transform="translate(242.2359 319.09937)" id="Ellipse" fill="#090909" fill-rule="evenodd" stroke="none" />
      <path d="M7.999 0L308.771 0Q308.967 0 309.164 0.00963514Q309.36 0.0192703 309.555 0.0385174Q309.751 0.0577644 309.945 0.0865771Q310.139 0.11539 310.332 0.153699Q310.524 0.192007 310.715 0.23972Q310.905 0.287433 311.093 0.344434Q311.281 0.401436 311.466 0.467589Q311.651 0.533742 311.832 0.608888Q312.013 0.684033 312.191 0.76799Q312.368 0.851946 312.542 0.944512Q312.715 1.03708 312.883 1.13803Q313.052 1.23898 313.215 1.34807Q313.378 1.45717 313.536 1.57414Q313.694 1.69112 313.846 1.81569Q313.997 1.94026 314.143 2.07213Q314.288 2.204 314.427 2.34285Q314.566 2.4817 314.698 2.6272Q314.83 2.7727 314.954 2.92449Q315.079 3.07628 315.196 3.234Q315.313 3.39172 315.422 3.55499Q315.531 3.71826 315.632 3.88669Q315.733 4.05512 315.826 4.2283Q315.918 4.40148 316.002 4.57899Q316.086 4.7565 316.161 4.93791Q316.236 5.11933 316.302 5.30422Q316.369 5.4891 316.426 5.67701Q316.483 5.86492 316.53 6.0554Q316.578 6.24588 316.616 6.43847Q316.655 6.63106 316.683 6.8253Q316.712 7.01954 316.732 7.21496Q316.751 7.41038 316.76 7.60651Q316.77 7.80264 316.77 7.999L316.77 36.2556Q316.77 36.452 316.76 36.6481Q316.751 36.8443 316.732 37.0397Q316.712 37.2351 316.683 37.4293Q316.655 37.6236 316.616 37.8162Q316.578 38.0087 316.53 38.1992Q316.483 38.3897 316.426 38.5776Q316.369 38.7655 316.302 38.9504Q316.236 39.1353 316.161 39.3167Q316.086 39.4981 316.002 39.6756Q315.918 39.8532 315.825 40.0263Q315.733 40.1995 315.632 40.3679Q315.531 40.5364 315.422 40.6996Q315.313 40.8629 315.196 41.0206Q315.079 41.1784 314.954 41.3301Q314.83 41.4819 314.698 41.6274Q314.566 41.7729 314.427 41.9118Q314.288 42.0506 314.143 42.1825Q313.997 42.3144 313.846 42.4389Q313.694 42.5635 313.536 42.6805Q313.378 42.7975 313.215 42.9066Q313.052 43.0157 312.883 43.1166Q312.715 43.2176 312.542 43.3101Q312.368 43.4027 312.191 43.4866Q312.013 43.5706 311.832 43.6457Q311.651 43.7209 311.466 43.787Q311.281 43.8532 311.093 43.9102Q310.905 43.9672 310.715 44.0149Q310.524 44.0626 310.332 44.1009Q310.139 44.1392 309.945 44.1681Q309.751 44.1969 309.555 44.2161Q309.36 44.2354 309.164 44.245Q308.967 44.2546 308.771 44.2546L7.999 44.2546Q7.80264 44.2546 7.60651 44.245Q7.41038 44.2354 7.21496 44.2161Q7.01954 44.1969 6.8253 44.168Q6.63106 44.1392 6.43847 44.1009Q6.24588 44.0626 6.0554 44.0149Q5.86492 43.9672 5.67701 43.9102Q5.4891 43.8532 5.30422 43.787Q5.11933 43.7209 4.93791 43.6457Q4.7565 43.5706 4.57899 43.4866Q4.40148 43.4027 4.2283 43.3101Q4.05512 43.2176 3.88669 43.1166Q3.71826 43.0156 3.55499 42.9066Q3.39172 42.7975 3.234 42.6805Q3.07628 42.5635 2.92449 42.4389Q2.7727 42.3144 2.6272 42.1825Q2.4817 42.0506 2.34285 41.9118Q2.204 41.7729 2.07213 41.6274Q1.94026 41.4819 1.81569 41.3301Q1.69112 41.1783 1.57414 41.0206Q1.45717 40.8629 1.34807 40.6996Q1.23898 40.5364 1.13803 40.3679Q1.03708 40.1995 0.944512 40.0263Q0.851946 39.8531 0.76799 39.6756Q0.684033 39.4981 0.608888 39.3167Q0.533742 39.1353 0.467589 38.9504Q0.401436 38.7655 0.344434 38.5776Q0.287433 38.3897 0.23972 38.1992Q0.192007 38.0087 0.153699 37.8162Q0.11539 37.6236 0.0865771 37.4293Q0.0577644 37.2351 0.0385174 37.0397Q0.0192703 36.8443 0.00963514 36.6481Q0 36.452 0 36.2556L0 7.999Q0 7.80264 0.00963514 7.60651Q0.0192703 7.41038 0.0385174 7.21496Q0.0577644 7.01954 0.0865771 6.8253Q0.11539 6.63106 0.153699 6.43847Q0.192007 6.24588 0.23972 6.0554Q0.287433 5.86492 0.344434 5.67701Q0.401436 5.4891 0.467589 5.30422Q0.533742 5.11933 0.608888 4.93791Q0.684033 4.7565 0.76799 4.57899Q0.851946 4.40148 0.944512 4.2283Q1.03708 4.05512 1.13803 3.88669Q1.23898 3.71826 1.34807 3.55499Q1.45717 3.39172 1.57414 3.234Q1.69112 3.07628 1.81569 2.92449Q1.94026 2.7727 2.07213 2.6272Q2.204 2.4817 2.34285 2.34285Q2.4817 2.204 2.6272 2.07213Q2.7727 1.94026 2.92449 1.81569Q3.07628 1.69112 3.234 1.57414Q3.39172 1.45717 3.55499 1.34807Q3.71826 1.23898 3.88669 1.13803Q4.05512 1.03708 4.2283 0.944512Q4.40148 0.851946 4.57899 0.76799Q4.7565 0.684033 4.93791 0.608888Q5.11933 0.533742 5.30422 0.467589Q5.4891 0.401436 5.67701 0.344434Q5.86492 0.287433 6.0554 0.23972Q6.24588 0.192007 6.43847 0.153699Q6.63106 0.11539 6.8253 0.0865771Q7.01954 0.0577644 7.21496 0.0385174Q7.41038 0.0192703 7.60651 0.00963514Q7.80264 0 7.999 0L7.999 0Z" transform="translate(0 16.304443)" id="Rectangle-2" fill="#242424" fill-rule="evenodd" stroke="none" />
      <path d="M9.999 0L171.678 0Q171.923 0 172.169 0.0120442Q172.414 0.0240885 172.658 0.0481479Q172.902 0.0722074 173.145 0.108224Q173.388 0.144241 173.629 0.192128Q173.869 0.240015 174.107 0.299657Q174.346 0.3593 174.58 0.430553Q174.815 0.501807 175.046 0.584501Q175.278 0.667194 175.504 0.761128Q175.731 0.855062 175.953 0.960011Q176.175 1.06496 176.391 1.18067Q176.608 1.29638 176.818 1.42257Q177.029 1.54876 177.233 1.68514Q177.437 1.82151 177.634 1.96773Q177.831 2.11395 178.021 2.26967Q178.211 2.42539 178.393 2.59023Q178.575 2.75507 178.748 2.92864Q178.922 3.10221 179.087 3.28408Q179.252 3.46596 179.407 3.6557Q179.563 3.84545 179.709 4.0426Q179.855 4.23976 179.992 4.44385Q180.128 4.64795 180.254 4.85849Q180.381 5.06903 180.496 5.2855Q180.612 5.50198 180.717 5.72388Q180.822 5.94577 180.916 6.17255Q181.01 6.39932 181.092 6.63044Q181.175 6.86155 181.246 7.09644Q181.318 7.33134 181.377 7.56944Q181.437 7.80755 181.485 8.04829Q181.533 8.28904 181.569 8.53184Q181.605 8.77465 181.629 9.01893Q181.653 9.26321 181.665 9.50837Q181.677 9.75354 181.677 9.999L181.677 27.2681Q181.677 27.5135 181.665 27.7587Q181.653 28.0039 181.629 28.2481Q181.605 28.4924 181.569 28.7352Q181.533 28.978 181.485 29.2188Q181.437 29.4595 181.377 29.6976Q181.318 29.9357 181.246 30.1706Q181.175 30.4055 181.092 30.6366Q181.01 30.8677 180.916 31.0945Q180.822 31.3213 180.717 31.5432Q180.612 31.7651 180.496 31.9816Q180.381 32.198 180.254 32.4086Q180.128 32.6191 179.992 32.8232Q179.855 33.0273 179.709 33.2245Q179.563 33.4216 179.407 33.6114Q179.252 33.8011 179.087 33.983Q178.922 34.1649 178.748 34.3384Q178.575 34.512 178.393 34.6768Q178.211 34.8417 178.021 34.9974Q177.831 35.1531 177.634 35.2993Q177.437 35.4455 177.233 35.5819Q177.029 35.7183 176.818 35.8445Q176.608 35.9707 176.391 36.0864Q176.175 36.2021 175.953 36.307Q175.731 36.412 175.504 36.5059Q175.278 36.5999 175.046 36.6826Q174.815 36.7653 174.58 36.8365Q174.346 36.9078 174.107 36.9674Q173.869 37.027 173.629 37.0749Q173.388 37.1228 173.145 37.1588Q172.902 37.1949 172.658 37.2189Q172.414 37.243 172.169 37.255Q171.923 37.2671 171.678 37.2671L9.999 37.2671Q9.75354 37.2671 9.50837 37.255Q9.26321 37.243 9.01893 37.2189Q8.77465 37.1949 8.53184 37.1588Q8.28904 37.1228 8.04829 37.0749Q7.80755 37.027 7.56944 36.9674Q7.33134 36.9078 7.09644 36.8365Q6.86155 36.7653 6.63044 36.6826Q6.39932 36.5999 6.17255 36.5059Q5.94577 36.412 5.72388 36.307Q5.50198 36.2021 5.2855 36.0864Q5.06903 35.9707 4.85849 35.8445Q4.64795 35.7183 4.44385 35.5819Q4.23976 35.4456 4.0426 35.2993Q3.84545 35.1531 3.6557 34.9974Q3.46596 34.8417 3.28408 34.6768Q3.10221 34.512 2.92864 34.3384Q2.75507 34.1649 2.59023 33.983Q2.42539 33.8011 2.26967 33.6114Q2.11395 33.4216 1.96773 33.2245Q1.82151 33.0273 1.68514 32.8232Q1.54876 32.6191 1.42257 32.4086Q1.29638 32.198 1.18067 31.9816Q1.06496 31.7651 0.960011 31.5432Q0.855062 31.3213 0.761128 31.0945Q0.667194 30.8677 0.584501 30.6366Q0.501807 30.4055 0.430553 30.1706Q0.3593 29.9357 0.299657 29.6976Q0.240015 29.4595 0.192128 29.2188Q0.144241 28.978 0.108224 28.7352Q0.0722074 28.4924 0.0481479 28.2481Q0.0240885 28.0039 0.0120442 27.7587Q0 27.5135 0 27.2681L0 9.999Q0 9.75354 0.0120442 9.50837Q0.0240885 9.26321 0.0481479 9.01893Q0.0722074 8.77465 0.108224 8.53184Q0.144241 8.28904 0.192128 8.04829Q0.240015 7.80755 0.299657 7.56944Q0.3593 7.33134 0.430553 7.09644Q0.501807 6.86155 0.584501 6.63044Q0.667194 6.39932 0.761128 6.17255Q0.855062 5.94577 0.960011 5.72388Q1.06496 5.50198 1.18067 5.2855Q1.29638 5.06903 1.42257 4.85849Q1.54876 4.64795 1.68514 4.44385Q1.82151 4.23976 1.96773 4.0426Q2.11395 3.84545 2.26967 3.6557Q2.42539 3.46596 2.59023 3.28408Q2.75507 3.10221 2.92864 2.92864Q3.10221 2.75507 3.28408 2.59023Q3.46596 2.42539 3.6557 2.26967Q3.84545 2.11395 4.0426 1.96773Q4.23976 1.82151 4.44385 1.68514Q4.64795 1.54876 4.85849 1.42257Q5.06903 1.29638 5.2855 1.18067Q5.50198 1.06496 5.72388 0.960011Q5.94577 0.855062 6.17255 0.761128Q6.39932 0.667194 6.63044 0.584501Q6.86155 0.501807 7.09644 0.430553Q7.33134 0.3593 7.56944 0.299657Q7.80755 0.240015 8.04829 0.192128Q8.28904 0.144241 8.53184 0.108224Q8.77465 0.0722074 9.01893 0.0481479Q9.26321 0.0240885 9.50837 0.0120442Q9.75354 0 9.999 0L9.999 0Z" transform="translate(135.09315 0)" id="Rectangle-3" fill="#242424" fill-rule="evenodd" stroke="none" />
    </g>
    <g id="Blaue-Tonne-2" transform="translate(1007.23 1243.1997)">
      <path d="M15.3319 15.4246L267.352 0.964447Q267.747 0.941806 268.142 0.939978Q268.538 0.938151 268.932 0.957142Q269.327 0.976134 269.72 1.01589Q270.114 1.05565 270.504 1.11606Q270.895 1.17647 271.282 1.25737Q271.669 1.33827 272.051 1.43944Q272.433 1.5406 272.809 1.66175Q273.185 1.7829 273.555 1.92369Q273.924 2.06448 274.285 2.22453Q274.647 2.38458 274.999 2.56344Q275.352 2.7423 275.694 2.93947Q276.037 3.13664 276.368 3.35159Q276.7 3.56653 277.02 3.79864Q277.34 4.03075 277.647 4.27939Q277.954 4.52803 278.248 4.7925Q278.542 5.05698 278.821 5.33656Q279.101 5.61614 279.365 5.91004Q279.629 6.20394 279.878 6.51136Q280.126 6.81877 280.358 7.13884Q280.59 7.45892 280.804 7.79076Q281.019 8.1226 281.216 8.46529Q281.413 8.80797 281.592 9.16056Q281.77 9.51314 281.93 9.87464Q282.09 10.2361 282.23 10.6056Q282.371 10.975 282.492 11.3513Q282.613 11.7276 282.714 12.1097Q282.815 12.4919 282.895 12.8788Q282.976 13.2658 283.036 13.6564Q283.096 14.0471 283.136 14.4403Q283.175 14.8336 283.194 15.2284Q283.213 15.6232 283.21 16.0184Q283.208 16.4137 283.185 16.8083L264.019 346.895Q263.999 347.249 263.961 347.602Q263.924 347.954 263.87 348.305Q263.816 348.655 263.746 349.003Q263.675 349.35 263.589 349.694Q263.502 350.038 263.399 350.378Q263.296 350.717 263.177 351.051Q263.059 351.385 262.924 351.713Q262.79 352.041 262.64 352.363Q262.49 352.684 262.325 352.998Q262.16 353.312 261.981 353.618Q261.801 353.924 261.608 354.221Q261.414 354.518 261.206 354.805Q260.999 355.093 260.778 355.37Q260.557 355.647 260.323 355.914Q260.089 356.181 259.843 356.436Q259.597 356.691 259.339 356.935Q259.081 357.178 258.812 357.409Q258.543 357.64 258.263 357.858Q257.984 358.076 257.694 358.28Q257.404 358.485 257.105 358.675Q256.806 358.866 256.498 359.042Q256.191 359.218 255.875 359.38Q255.559 359.541 255.236 359.687Q254.913 359.834 254.584 359.965Q254.254 360.096 253.919 360.211Q253.583 360.326 253.243 360.425Q252.903 360.525 252.558 360.608Q252.213 360.691 251.865 360.757Q251.516 360.824 251.165 360.874Q250.814 360.924 250.461 360.958Q250.108 360.991 249.754 361.008Q249.4 361.025 249.045 361.025L41.7824 361.025Q41.4331 361.025 41.0843 361.008Q40.7354 360.992 40.3877 360.96Q40.04 360.927 39.6942 360.879Q39.3483 360.83 39.0051 360.765Q38.662 360.701 38.3221 360.62Q37.9823 360.539 37.6466 360.443Q37.3109 360.347 36.9801 360.235Q36.6492 360.123 36.3239 359.996Q35.9987 359.869 35.6796 359.727Q35.3606 359.585 35.0486 359.428Q34.7365 359.271 34.4321 359.1Q34.1277 358.929 33.8315 358.744Q33.5354 358.559 33.2482 358.36Q32.961 358.161 32.6834 357.949Q32.4057 357.738 32.1383 357.513Q31.8708 357.288 31.6141 357.052Q31.3573 356.815 31.1119 356.566Q30.8665 356.318 30.6329 356.059Q30.3993 355.799 30.178 355.529Q29.9567 355.259 29.7483 354.978Q29.5398 354.698 29.3447 354.408Q29.1495 354.119 28.968 353.821Q28.7865 353.522 28.6191 353.216Q28.4516 352.909 28.2987 352.595Q28.1457 352.281 28.0075 351.961Q27.8693 351.64 27.7462 351.313Q27.6231 350.986 27.5154 350.654Q27.4076 350.322 27.3154 349.985Q27.2232 349.648 27.1468 349.307Q27.0704 348.967 27.0099 348.623Q26.9495 348.279 26.9051 347.932Q26.8607 347.586 26.8324 347.238L1.24109 31.6112Q1.21089 31.2387 1.19928 30.8651Q1.18766 30.4915 1.19467 30.1179Q1.20167 29.7442 1.22728 29.3713Q1.25289 28.9985 1.29703 28.6274Q1.34118 28.2562 1.40375 27.8878Q1.46632 27.5193 1.54717 27.1544Q1.62802 26.7895 1.72694 26.4291Q1.82586 26.0687 1.9426 25.7137Q2.05935 25.3587 2.19363 25.0099Q2.32792 24.6611 2.4794 24.3194Q2.63089 23.9778 2.79921 23.6441Q2.96752 23.3104 3.15225 22.9855Q3.33697 22.6606 3.53765 22.3453Q3.73833 22.03 3.95446 21.7251Q4.17059 21.4202 4.40163 21.1265Q4.63268 20.8327 4.87808 20.5508Q5.12347 20.2689 5.38259 19.9996Q5.64172 19.7303 5.91394 19.4742Q6.18616 19.2181 6.47079 18.9759Q6.75542 18.7337 7.05177 18.506Q7.34811 18.2783 7.65543 18.0656Q7.96275 17.8529 8.28028 17.6558Q8.5978 17.4587 8.92476 17.2776Q9.25171 17.0966 9.58727 16.932Q9.92283 16.7675 10.2662 16.6198Q10.6095 16.4722 10.9598 16.3418Q11.3101 16.2115 11.6664 16.0988Q12.0227 15.986 12.3842 15.8912Q12.7457 15.7963 13.1115 15.7196Q13.4773 15.6428 13.8464 15.5844Q14.2155 15.526 14.5871 15.486Q14.9587 15.4461 15.3318 15.4246L15.3319 15.4246Z" transform="translate(16.304352 13.975342)" id="Rectangle" fill="#4E6BFF" fill-rule="evenodd" stroke="none" />
      <path d="M0 37.2671C0 16.685 16.685 0 37.2671 0C57.8491 0 74.5341 16.685 74.5341 37.2671C74.5341 57.8491 57.8491 74.5341 37.2671 74.5341C16.685 74.5341 0 57.8491 0 37.2671Z" transform="translate(223.60236 300.46582)" id="Ellipse-2" fill="#2C4BE2" fill-rule="evenodd" stroke="none" />
      <path d="M0 18.6335C0 8.34251 8.34251 0 18.6335 0C28.9245 0 37.267 8.34251 37.267 18.6335C37.267 28.9245 28.9245 37.2671 18.6335 37.2671C8.34251 37.2671 0 28.9245 0 18.6335Z" transform="translate(242.2359 321.42847)" id="Ellipse" fill="#4E6BFF" fill-rule="evenodd" stroke="none" />
      <path d="M7.999 0L308.771 0Q308.967 0 309.164 0.00963514Q309.36 0.0192703 309.555 0.0385174Q309.751 0.0577644 309.945 0.0865771Q310.139 0.11539 310.332 0.153699Q310.524 0.192007 310.715 0.23972Q310.905 0.287433 311.093 0.344434Q311.281 0.401436 311.466 0.467589Q311.651 0.533742 311.832 0.608888Q312.013 0.684033 312.191 0.76799Q312.368 0.851946 312.542 0.944512Q312.715 1.03708 312.883 1.13803Q313.052 1.23898 313.215 1.34807Q313.378 1.45717 313.536 1.57414Q313.694 1.69112 313.846 1.81569Q313.997 1.94026 314.143 2.07213Q314.288 2.204 314.427 2.34285Q314.566 2.4817 314.698 2.6272Q314.83 2.7727 314.954 2.92449Q315.079 3.07628 315.196 3.234Q315.313 3.39172 315.422 3.55499Q315.531 3.71826 315.632 3.88669Q315.733 4.05512 315.826 4.2283Q315.918 4.40148 316.002 4.57899Q316.086 4.7565 316.161 4.93791Q316.236 5.11933 316.302 5.30422Q316.369 5.4891 316.426 5.67701Q316.483 5.86492 316.53 6.0554Q316.578 6.24588 316.616 6.43847Q316.655 6.63106 316.683 6.8253Q316.712 7.01954 316.732 7.21496Q316.751 7.41038 316.76 7.60651Q316.77 7.80264 316.77 7.999L316.77 36.2556Q316.77 36.452 316.76 36.6481Q316.751 36.8443 316.732 37.0397Q316.712 37.2351 316.683 37.4293Q316.655 37.6236 316.616 37.8162Q316.578 38.0088 316.53 38.1992Q316.483 38.3897 316.426 38.5776Q316.369 38.7655 316.302 38.9504Q316.236 39.1353 316.161 39.3167Q316.086 39.4981 316.002 39.6756Q315.918 39.8532 315.825 40.0263Q315.733 40.1995 315.632 40.3679Q315.531 40.5364 315.422 40.6996Q315.313 40.8629 315.196 41.0206Q315.079 41.1784 314.954 41.3302Q314.83 41.4819 314.698 41.6274Q314.566 41.7729 314.427 41.9118Q314.288 42.0506 314.143 42.1825Q313.997 42.3144 313.846 42.4389Q313.694 42.5635 313.536 42.6805Q313.378 42.7975 313.215 42.9066Q313.052 43.0157 312.883 43.1166Q312.715 43.2176 312.542 43.3101Q312.368 43.4027 312.191 43.4866Q312.013 43.5706 311.832 43.6457Q311.651 43.7209 311.466 43.787Q311.281 43.8532 311.093 43.9102Q310.905 43.9672 310.715 44.0149Q310.524 44.0626 310.332 44.1009Q310.139 44.1392 309.945 44.1681Q309.751 44.1969 309.555 44.2161Q309.36 44.2354 309.164 44.245Q308.967 44.2546 308.771 44.2546L7.999 44.2546Q7.80264 44.2546 7.60651 44.245Q7.41038 44.2354 7.21496 44.2161Q7.01954 44.1969 6.8253 44.1681Q6.63106 44.1392 6.43847 44.1009Q6.24588 44.0626 6.0554 44.0149Q5.86492 43.9672 5.67701 43.9102Q5.4891 43.8532 5.30422 43.787Q5.11933 43.7209 4.93791 43.6457Q4.7565 43.5706 4.57899 43.4866Q4.40148 43.4027 4.2283 43.3101Q4.05512 43.2176 3.88669 43.1166Q3.71826 43.0157 3.55499 42.9066Q3.39172 42.7975 3.234 42.6805Q3.07628 42.5635 2.92449 42.4389Q2.7727 42.3144 2.6272 42.1825Q2.4817 42.0506 2.34285 41.9118Q2.204 41.7729 2.07213 41.6274Q1.94026 41.4819 1.81569 41.3301Q1.69112 41.1784 1.57414 41.0206Q1.45717 40.8629 1.34807 40.6996Q1.23898 40.5364 1.13803 40.3679Q1.03708 40.1995 0.944512 40.0263Q0.851946 39.8532 0.76799 39.6756Q0.684033 39.4981 0.608888 39.3167Q0.533742 39.1353 0.467589 38.9504Q0.401436 38.7655 0.344434 38.5776Q0.287433 38.3897 0.23972 38.1992Q0.192007 38.0088 0.153699 37.8162Q0.11539 37.6236 0.0865771 37.4293Q0.0577644 37.2351 0.0385174 37.0397Q0.0192703 36.8443 0.00963514 36.6481Q0 36.452 0 36.2556L0 7.999Q0 7.80264 0.00963514 7.60651Q0.0192703 7.41038 0.0385174 7.21496Q0.0577644 7.01954 0.0865771 6.8253Q0.11539 6.63106 0.153699 6.43847Q0.192007 6.24588 0.23972 6.0554Q0.287433 5.86492 0.344434 5.67701Q0.401436 5.4891 0.467589 5.30422Q0.533742 5.11933 0.608888 4.93791Q0.684033 4.7565 0.76799 4.57899Q0.851946 4.40148 0.944512 4.2283Q1.03708 4.05512 1.13803 3.88669Q1.23898 3.71826 1.34807 3.55499Q1.45717 3.39172 1.57414 3.234Q1.69112 3.07628 1.81569 2.92449Q1.94026 2.7727 2.07213 2.6272Q2.204 2.4817 2.34285 2.34285Q2.4817 2.204 2.6272 2.07213Q2.7727 1.94026 2.92449 1.81569Q3.07628 1.69112 3.234 1.57414Q3.39172 1.45717 3.55499 1.34807Q3.71826 1.23898 3.88669 1.13803Q4.05512 1.03708 4.2283 0.944512Q4.40148 0.851946 4.57899 0.76799Q4.7565 0.684033 4.93791 0.608888Q5.11933 0.533742 5.30422 0.467589Q5.4891 0.401436 5.67701 0.344434Q5.86492 0.287433 6.0554 0.23972Q6.24588 0.192007 6.43847 0.153699Q6.63106 0.11539 6.8253 0.0865771Q7.01954 0.0577644 7.21496 0.0385174Q7.41038 0.0192703 7.60651 0.00963514Q7.80264 0 7.999 0L7.999 0Z" transform="translate(0 13.975342)" id="Rectangle-2" fill="#59ADFF" fill-rule="evenodd" stroke="none" />
      <path d="M9.999 0L171.678 0Q171.923 0 172.169 0.0120442Q172.414 0.0240885 172.658 0.0481479Q172.902 0.0722074 173.145 0.108224Q173.388 0.144241 173.629 0.192128Q173.869 0.240015 174.107 0.299657Q174.346 0.3593 174.58 0.430553Q174.815 0.501807 175.046 0.584501Q175.278 0.667194 175.504 0.761128Q175.731 0.855062 175.953 0.960011Q176.175 1.06496 176.391 1.18067Q176.608 1.29638 176.818 1.42257Q177.029 1.54876 177.233 1.68514Q177.437 1.82151 177.634 1.96773Q177.831 2.11395 178.021 2.26967Q178.211 2.42539 178.393 2.59023Q178.575 2.75507 178.748 2.92864Q178.922 3.10221 179.087 3.28408Q179.252 3.46596 179.407 3.6557Q179.563 3.84545 179.709 4.0426Q179.855 4.23976 179.992 4.44385Q180.128 4.64795 180.254 4.85849Q180.381 5.06903 180.496 5.2855Q180.612 5.50198 180.717 5.72388Q180.822 5.94577 180.916 6.17255Q181.01 6.39932 181.092 6.63044Q181.175 6.86155 181.246 7.09644Q181.318 7.33134 181.377 7.56944Q181.437 7.80755 181.485 8.04829Q181.533 8.28904 181.569 8.53184Q181.605 8.77465 181.629 9.01893Q181.653 9.26321 181.665 9.50837Q181.677 9.75354 181.677 9.999L181.677 27.2681Q181.677 27.5135 181.665 27.7587Q181.653 28.0039 181.629 28.2481Q181.605 28.4924 181.569 28.7352Q181.533 28.978 181.485 29.2188Q181.437 29.4595 181.377 29.6976Q181.318 29.9357 181.246 30.1706Q181.175 30.4055 181.092 30.6366Q181.01 30.8677 180.916 31.0945Q180.822 31.3213 180.717 31.5432Q180.612 31.7651 180.496 31.9816Q180.381 32.198 180.254 32.4086Q180.128 32.6191 179.992 32.8232Q179.855 33.0273 179.709 33.2245Q179.563 33.4216 179.407 33.6114Q179.252 33.8011 179.087 33.983Q178.922 34.1649 178.748 34.3384Q178.575 34.512 178.393 34.6768Q178.211 34.8417 178.021 34.9974Q177.831 35.1531 177.634 35.2993Q177.437 35.4455 177.233 35.5819Q177.029 35.7183 176.818 35.8445Q176.608 35.9707 176.391 36.0864Q176.175 36.2021 175.953 36.307Q175.731 36.412 175.504 36.5059Q175.278 36.5999 175.046 36.6826Q174.815 36.7653 174.58 36.8365Q174.346 36.9078 174.107 36.9674Q173.869 37.027 173.629 37.0749Q173.388 37.1228 173.145 37.1588Q172.902 37.1949 172.658 37.2189Q172.414 37.243 172.169 37.255Q171.923 37.2671 171.678 37.2671L9.999 37.2671Q9.75354 37.2671 9.50837 37.255Q9.26321 37.243 9.01893 37.2189Q8.77465 37.1949 8.53184 37.1588Q8.28904 37.1228 8.04829 37.0749Q7.80755 37.027 7.56944 36.9674Q7.33134 36.9078 7.09644 36.8365Q6.86155 36.7653 6.63044 36.6826Q6.39932 36.5999 6.17255 36.5059Q5.94577 36.412 5.72388 36.307Q5.50198 36.2021 5.2855 36.0864Q5.06903 35.9707 4.85849 35.8445Q4.64795 35.7183 4.44385 35.5819Q4.23976 35.4456 4.0426 35.2993Q3.84545 35.1531 3.6557 34.9974Q3.46596 34.8417 3.28408 34.6768Q3.10221 34.512 2.92864 34.3384Q2.75507 34.1649 2.59023 33.983Q2.42539 33.8011 2.26967 33.6114Q2.11395 33.4216 1.96773 33.2245Q1.82151 33.0273 1.68514 32.8232Q1.54876 32.6191 1.42257 32.4086Q1.29638 32.198 1.18067 31.9816Q1.06496 31.7651 0.960011 31.5432Q0.855062 31.3213 0.761128 31.0945Q0.667194 30.8677 0.584501 30.6366Q0.501807 30.4055 0.430553 30.1706Q0.3593 29.9357 0.299657 29.6976Q0.240015 29.4595 0.192128 29.2188Q0.144241 28.978 0.108224 28.7352Q0.0722074 28.4924 0.0481479 28.2481Q0.0240885 28.0039 0.0120442 27.7587Q0 27.5135 0 27.2681L0 9.999Q0 9.75354 0.0120442 9.50837Q0.0240885 9.26321 0.0481479 9.01893Q0.0722074 8.77465 0.108224 8.53184Q0.144241 8.28904 0.192128 8.04829Q0.240015 7.80755 0.299657 7.56944Q0.3593 7.33134 0.430553 7.09644Q0.501807 6.86155 0.584501 6.63044Q0.667194 6.39932 0.761128 6.17255Q0.855062 5.94577 0.960011 5.72388Q1.06496 5.50198 1.18067 5.2855Q1.29638 5.06903 1.42257 4.85849Q1.54876 4.64795 1.68514 4.44385Q1.82151 4.23976 1.96773 4.0426Q2.11395 3.84545 2.26967 3.6557Q2.42539 3.46596 2.59023 3.28408Q2.75507 3.10221 2.92864 2.92864Q3.10221 2.75507 3.28408 2.59023Q3.46596 2.42539 3.6557 2.26967Q3.84545 2.11395 4.0426 1.96773Q4.23976 1.82151 4.44385 1.68514Q4.64795 1.54876 4.85849 1.42257Q5.06903 1.29638 5.2855 1.18067Q5.50198 1.06496 5.72388 0.960011Q5.94577 0.855062 6.17255 0.761128Q6.39932 0.667194 6.63044 0.584501Q6.86155 0.501807 7.09644 0.430553Q7.33134 0.3593 7.56944 0.299657Q7.80755 0.240015 8.04829 0.192128Q8.28904 0.144241 8.53184 0.108224Q8.77465 0.0722074 9.01893 0.0481479Q9.26321 0.0240885 9.50837 0.0120442Q9.75354 0 9.999 0L9.999 0Z" transform="translate(135.09314 0)" id="Rectangle-3" fill="#59ADFF" fill-rule="evenodd" stroke="none" />
    </g>
    <g id="Braune-Tonne-2" transform="translate(1442 1243.1997)">
      <path d="M15.3318 15.4247L267.353 0.964447Q267.747 0.941806 268.142 0.939979Q268.538 0.938151 268.932 0.957143Q269.327 0.976134 269.72 1.01589Q270.114 1.05565 270.504 1.11606Q270.895 1.17647 271.282 1.25737Q271.669 1.33827 272.051 1.43944Q272.433 1.5406 272.809 1.66175Q273.185 1.7829 273.555 1.92369Q273.924 2.06448 274.285 2.22453Q274.647 2.38458 274.999 2.56344Q275.352 2.7423 275.694 2.93947Q276.037 3.13664 276.368 3.35159Q276.7 3.56653 277.02 3.79864Q277.34 4.03075 277.647 4.27939Q277.954 4.52803 278.248 4.7925Q278.542 5.05698 278.821 5.33656Q279.101 5.61614 279.365 5.91004Q279.629 6.20394 279.878 6.51136Q280.126 6.81877 280.358 7.13884Q280.59 7.45892 280.805 7.79076Q281.019 8.1226 281.216 8.46529Q281.413 8.80797 281.592 9.16056Q281.77 9.51314 281.93 9.87464Q282.09 10.2361 282.23 10.6056Q282.371 10.975 282.492 11.3513Q282.613 11.7276 282.714 12.1097Q282.815 12.4919 282.895 12.8788Q282.976 13.2658 283.036 13.6564Q283.096 14.0471 283.136 14.4403Q283.175 14.8336 283.194 15.2284Q283.213 15.6232 283.211 16.0184Q283.208 16.4137 283.185 16.8083L264.019 346.895Q263.999 347.249 263.961 347.602Q263.924 347.955 263.87 348.305Q263.816 348.656 263.746 349.003Q263.676 349.351 263.589 349.694Q263.502 350.038 263.399 350.378Q263.296 350.717 263.177 351.051Q263.059 351.385 262.924 351.713Q262.79 352.041 262.64 352.363Q262.49 352.684 262.325 352.998Q262.16 353.312 261.981 353.618Q261.801 353.924 261.608 354.221Q261.414 354.518 261.206 354.805Q260.999 355.093 260.778 355.37Q260.557 355.648 260.323 355.914Q260.089 356.181 259.843 356.436Q259.597 356.691 259.339 356.935Q259.081 357.178 258.812 357.409Q258.543 357.64 258.263 357.858Q257.984 358.076 257.694 358.28Q257.404 358.485 257.105 358.675Q256.806 358.866 256.498 359.042Q256.191 359.218 255.875 359.38Q255.559 359.541 255.236 359.688Q254.913 359.834 254.584 359.965Q254.254 360.096 253.919 360.211Q253.583 360.326 253.243 360.425Q252.903 360.525 252.558 360.608Q252.213 360.691 251.865 360.757Q251.517 360.824 251.165 360.874Q250.814 360.924 250.461 360.958Q250.108 360.991 249.754 361.008Q249.4 361.025 249.045 361.025L41.7824 361.025Q41.4332 361.025 41.0843 361.008Q40.7354 360.992 40.3877 360.96Q40.04 360.927 39.6942 360.879Q39.3483 360.83 39.0051 360.765Q38.662 360.701 38.3221 360.62Q37.9823 360.54 37.6466 360.443Q37.3109 360.347 36.9801 360.235Q36.6492 360.123 36.324 359.996Q35.9987 359.869 35.6796 359.727Q35.3606 359.585 35.0486 359.428Q34.7365 359.271 34.4321 359.1Q34.1277 358.929 33.8315 358.744Q33.5354 358.559 33.2482 358.36Q32.961 358.161 32.6834 357.95Q32.4058 357.738 32.1383 357.513Q31.8708 357.289 31.6141 357.052Q31.3574 356.815 31.1119 356.567Q30.8665 356.318 30.6329 356.059Q30.3993 355.799 30.178 355.529Q29.9567 355.259 29.7483 354.979Q29.5398 354.698 29.3447 354.409Q29.1495 354.119 28.968 353.821Q28.7865 353.522 28.6191 353.216Q28.4517 352.909 28.2987 352.595Q28.1457 352.281 28.0075 351.961Q27.8694 351.64 27.7462 351.313Q27.6231 350.986 27.5154 350.654Q27.4076 350.322 27.3154 349.985Q27.2232 349.648 27.1468 349.308Q27.0704 348.967 27.0099 348.623Q26.9495 348.279 26.9051 347.932Q26.8607 347.586 26.8325 347.238L1.24109 31.6112Q1.21089 31.2387 1.19928 30.8651Q1.18766 30.4916 1.19467 30.1179Q1.20167 29.7442 1.22728 29.3714Q1.25289 28.9985 1.29703 28.6274Q1.34118 28.2563 1.40375 27.8878Q1.46632 27.5193 1.54717 27.1544Q1.62802 26.7896 1.72694 26.4291Q1.82586 26.0687 1.9426 25.7137Q2.05935 25.3587 2.19363 25.0099Q2.32791 24.6611 2.4794 24.3195Q2.63089 23.9778 2.79921 23.6441Q2.96752 23.3104 3.15225 22.9855Q3.33697 22.6606 3.53765 22.3453Q3.73833 22.03 3.95446 21.7251Q4.17059 21.4202 4.40163 21.1265Q4.63268 20.8327 4.87808 20.5508Q5.12347 20.2689 5.38259 19.9996Q5.64172 19.7303 5.91394 19.4742Q6.18616 19.2181 6.47079 18.9759Q6.75542 18.7337 7.05177 18.506Q7.34811 18.2783 7.65543 18.0656Q7.96275 17.8529 8.28028 17.6558Q8.5978 17.4587 8.92476 17.2776Q9.25171 17.0966 9.58727 16.932Q9.92283 16.7675 10.2662 16.6198Q10.6095 16.4722 10.9598 16.3419Q11.3101 16.2115 11.6664 16.0988Q12.0227 15.986 12.3842 15.8912Q12.7457 15.7963 13.1115 15.7196Q13.4773 15.6428 13.8464 15.5844Q14.2155 15.526 14.5871 15.486Q14.9587 15.4461 15.3318 15.4247L15.3318 15.4247Z" transform="translate(16.304321 13.975342)" id="Rectangle" fill="#A86B01" fill-rule="evenodd" stroke="none" />
      <path d="M0 37.2671C0 16.685 16.685 0 37.2671 0C57.8491 0 74.5341 16.685 74.5341 37.2671C74.5341 57.8491 57.8491 74.5341 37.2671 74.5341C16.685 74.5341 0 57.8491 0 37.2671Z" transform="translate(223.60236 300.46582)" id="Ellipse-2" fill="#825300" fill-rule="evenodd" stroke="none" />
      <path d="M0 18.6335C0 8.34252 8.34252 0 18.6335 0C28.9246 0 37.2671 8.34252 37.2671 18.6335C37.2671 28.9246 28.9246 37.2671 18.6335 37.2671C8.34252 37.2671 0 28.9246 0 18.6335Z" transform="translate(242.23602 319.09937)" id="Ellipse" fill="#A86B01" fill-rule="evenodd" stroke="none" />
      <path d="M7.999 0L308.771 0Q308.967 0 309.164 0.00963514Q309.36 0.0192703 309.555 0.0385174Q309.751 0.0577644 309.945 0.0865771Q310.139 0.11539 310.332 0.153699Q310.524 0.192007 310.715 0.23972Q310.905 0.287433 311.093 0.344434Q311.281 0.401436 311.466 0.467589Q311.651 0.533742 311.832 0.608888Q312.014 0.684033 312.191 0.76799Q312.369 0.851946 312.542 0.944512Q312.715 1.03708 312.883 1.13803Q313.052 1.23898 313.215 1.34807Q313.378 1.45717 313.536 1.57414Q313.694 1.69112 313.846 1.81569Q313.997 1.94026 314.143 2.07213Q314.288 2.204 314.427 2.34285Q314.566 2.4817 314.698 2.6272Q314.83 2.7727 314.954 2.92449Q315.079 3.07628 315.196 3.234Q315.313 3.39172 315.422 3.55499Q315.531 3.71826 315.632 3.88669Q315.733 4.05512 315.826 4.2283Q315.918 4.40148 316.002 4.57899Q316.086 4.7565 316.161 4.93791Q316.236 5.11933 316.302 5.30422Q316.369 5.4891 316.426 5.67701Q316.483 5.86492 316.53 6.0554Q316.578 6.24588 316.616 6.43847Q316.655 6.63106 316.683 6.8253Q316.712 7.01954 316.732 7.21496Q316.751 7.41038 316.76 7.60651Q316.77 7.80264 316.77 7.999L316.77 36.2557Q316.77 36.452 316.76 36.6481Q316.751 36.8443 316.732 37.0397Q316.712 37.2351 316.683 37.4293Q316.655 37.6236 316.616 37.8162Q316.578 38.0088 316.53 38.1992Q316.483 38.3897 316.426 38.5776Q316.369 38.7655 316.302 38.9504Q316.236 39.1353 316.161 39.3167Q316.086 39.4981 316.002 39.6757Q315.918 39.8532 315.826 40.0264Q315.733 40.1995 315.632 40.368Q315.531 40.5364 315.422 40.6997Q315.313 40.8629 315.196 41.0206Q315.079 41.1784 314.954 41.3302Q314.83 41.482 314.698 41.6275Q314.566 41.7729 314.427 41.9118Q314.288 42.0507 314.143 42.1825Q313.997 42.3144 313.846 42.439Q313.694 42.5635 313.536 42.6805Q313.378 42.7975 313.215 42.9066Q313.052 43.0157 312.883 43.1166Q312.715 43.2176 312.542 43.3101Q312.369 43.4027 312.191 43.4867Q312.014 43.5706 311.832 43.6458Q311.651 43.7209 311.466 43.7871Q311.281 43.8532 311.093 43.9102Q310.905 43.9672 310.715 44.0149Q310.524 44.0626 310.332 44.101Q310.139 44.1393 309.945 44.1681Q309.751 44.1969 309.555 44.2161Q309.36 44.2354 309.164 44.245Q308.967 44.2547 308.771 44.2547L7.999 44.2547Q7.80264 44.2547 7.60651 44.245Q7.41038 44.2354 7.21496 44.2161Q7.01954 44.1969 6.8253 44.1681Q6.63106 44.1393 6.43847 44.101Q6.24588 44.0626 6.0554 44.0149Q5.86492 43.9672 5.67701 43.9102Q5.4891 43.8532 5.30422 43.7871Q5.11933 43.7209 4.93791 43.6458Q4.7565 43.5706 4.57899 43.4867Q4.40148 43.4027 4.2283 43.3101Q4.05512 43.2176 3.88669 43.1166Q3.71826 43.0157 3.55499 42.9066Q3.39172 42.7975 3.234 42.6805Q3.07628 42.5635 2.92449 42.439Q2.7727 42.3144 2.6272 42.1825Q2.4817 42.0506 2.34285 41.9118Q2.204 41.7729 2.07213 41.6274Q1.94026 41.4819 1.81569 41.3302Q1.69112 41.1784 1.57414 41.0206Q1.45717 40.8629 1.34807 40.6996Q1.23898 40.5364 1.13803 40.368Q1.03708 40.1995 0.944512 40.0263Q0.851946 39.8532 0.76799 39.6757Q0.684033 39.4981 0.608888 39.3167Q0.533742 39.1353 0.467589 38.9504Q0.401436 38.7655 0.344434 38.5776Q0.287433 38.3897 0.23972 38.1992Q0.192007 38.0088 0.153699 37.8162Q0.11539 37.6236 0.0865771 37.4293Q0.0577644 37.2351 0.0385174 37.0397Q0.0192703 36.8443 0.00963514 36.6481Q0 36.452 0 36.2557L0 7.999Q0 7.80264 0.00963514 7.60651Q0.0192703 7.41038 0.0385174 7.21496Q0.0577644 7.01954 0.0865771 6.8253Q0.11539 6.63106 0.153699 6.43847Q0.192007 6.24588 0.23972 6.0554Q0.287433 5.86492 0.344434 5.67701Q0.401436 5.4891 0.467589 5.30422Q0.533742 5.11933 0.608888 4.93791Q0.684033 4.7565 0.76799 4.57899Q0.851946 4.40148 0.944512 4.2283Q1.03708 4.05512 1.13803 3.88669Q1.23898 3.71826 1.34807 3.55499Q1.45717 3.39172 1.57414 3.234Q1.69112 3.07628 1.81569 2.92449Q1.94026 2.7727 2.07213 2.6272Q2.204 2.4817 2.34285 2.34285Q2.4817 2.204 2.6272 2.07213Q2.7727 1.94026 2.92449 1.81569Q3.07628 1.69112 3.234 1.57414Q3.39172 1.45717 3.55499 1.34807Q3.71826 1.23898 3.88669 1.13803Q4.05512 1.03708 4.2283 0.944512Q4.40148 0.851946 4.57899 0.76799Q4.7565 0.684033 4.93791 0.608888Q5.11933 0.533742 5.30422 0.467589Q5.4891 0.401436 5.67701 0.344434Q5.86492 0.287433 6.0554 0.23972Q6.24588 0.192007 6.43847 0.153699Q6.63106 0.11539 6.8253 0.0865771Q7.01954 0.0577644 7.21496 0.0385174Q7.41038 0.0192703 7.60651 0.00963514Q7.80264 0 7.999 0Z" transform="translate(0 13.975342)" id="Rectangle-2" fill="#C98002" fill-rule="evenodd" stroke="none" />
      <path d="M9.999 0L171.678 0Q171.923 0 172.169 0.0120442Q172.414 0.0240885 172.658 0.0481479Q172.902 0.0722074 173.145 0.108224Q173.388 0.144241 173.629 0.192128Q173.869 0.240015 174.108 0.299657Q174.346 0.3593 174.581 0.430553Q174.815 0.501807 175.047 0.584501Q175.278 0.667194 175.504 0.761128Q175.731 0.855062 175.953 0.960011Q176.175 1.06496 176.391 1.18067Q176.608 1.29638 176.818 1.42257Q177.029 1.54876 177.233 1.68514Q177.437 1.82151 177.634 1.96773Q177.832 2.11395 178.021 2.26967Q178.211 2.42539 178.393 2.59023Q178.575 2.75507 178.748 2.92864Q178.922 3.10221 179.087 3.28408Q179.252 3.46596 179.407 3.6557Q179.563 3.84545 179.709 4.0426Q179.855 4.23976 179.992 4.44385Q180.128 4.64795 180.254 4.85849Q180.381 5.06903 180.496 5.2855Q180.612 5.50198 180.717 5.72388Q180.822 5.94577 180.916 6.17255Q181.01 6.39932 181.092 6.63044Q181.175 6.86155 181.246 7.09644Q181.318 7.33134 181.377 7.56944Q181.437 7.80755 181.485 8.04829Q181.533 8.28904 181.569 8.53184Q181.605 8.77465 181.629 9.01893Q181.653 9.26321 181.665 9.50837Q181.677 9.75354 181.677 9.999L181.677 27.2681Q181.677 27.5135 181.665 27.7587Q181.653 28.0039 181.629 28.2481Q181.605 28.4924 181.569 28.7352Q181.533 28.978 181.485 29.2188Q181.437 29.4595 181.377 29.6976Q181.318 29.9357 181.246 30.1706Q181.175 30.4055 181.092 30.6366Q181.01 30.8677 180.916 31.0945Q180.822 31.3213 180.717 31.5432Q180.612 31.7651 180.496 31.9816Q180.381 32.198 180.254 32.4086Q180.128 32.6191 179.992 32.8232Q179.855 33.0273 179.709 33.2245Q179.563 33.4216 179.407 33.6114Q179.252 33.8011 179.087 33.983Q178.922 34.1649 178.748 34.3384Q178.575 34.512 178.393 34.6768Q178.211 34.8417 178.021 34.9974Q177.832 35.1531 177.634 35.2993Q177.437 35.4456 177.233 35.5819Q177.029 35.7183 176.818 35.8445Q176.608 35.9707 176.391 36.0864Q176.175 36.2021 175.953 36.3071Q175.731 36.412 175.504 36.5059Q175.278 36.5999 175.047 36.6826Q174.815 36.7653 174.581 36.8365Q174.346 36.9078 174.108 36.9674Q173.869 37.0271 173.629 37.0749Q173.388 37.1228 173.145 37.1588Q172.902 37.1949 172.658 37.2189Q172.414 37.243 172.169 37.255Q171.923 37.2671 171.678 37.2671L9.999 37.2671Q9.75354 37.2671 9.50837 37.255Q9.26321 37.243 9.01893 37.2189Q8.77465 37.1949 8.53184 37.1588Q8.28904 37.1228 8.04829 37.0749Q7.80755 37.0271 7.56944 36.9674Q7.33134 36.9078 7.09644 36.8365Q6.86155 36.7653 6.63044 36.6826Q6.39932 36.5999 6.17255 36.5059Q5.94577 36.412 5.72388 36.3071Q5.50198 36.2021 5.2855 36.0864Q5.06903 35.9707 4.85849 35.8445Q4.64795 35.7183 4.44385 35.5819Q4.23976 35.4456 4.0426 35.2993Q3.84545 35.1531 3.6557 34.9974Q3.46596 34.8417 3.28408 34.6768Q3.10221 34.512 2.92864 34.3384Q2.75507 34.1649 2.59023 33.983Q2.42539 33.8011 2.26967 33.6114Q2.11395 33.4216 1.96773 33.2245Q1.82151 33.0273 1.68514 32.8232Q1.54876 32.6191 1.42257 32.4086Q1.29638 32.198 1.18067 31.9816Q1.06496 31.7651 0.960011 31.5432Q0.855062 31.3213 0.761128 31.0945Q0.667194 30.8677 0.584501 30.6366Q0.501807 30.4055 0.430553 30.1706Q0.3593 29.9357 0.299657 29.6976Q0.240015 29.4595 0.192128 29.2188Q0.144241 28.978 0.108224 28.7352Q0.0722074 28.4924 0.0481479 28.2481Q0.0240885 28.0039 0.0120442 27.7587Q0 27.5135 0 27.2681L0 9.999Q0 9.75354 0.0120442 9.50837Q0.0240885 9.26321 0.0481479 9.01893Q0.0722074 8.77465 0.108224 8.53184Q0.144241 8.28904 0.192128 8.04829Q0.240015 7.80755 0.299657 7.56944Q0.3593 7.33134 0.430553 7.09644Q0.501807 6.86155 0.584501 6.63044Q0.667194 6.39932 0.761128 6.17255Q0.855062 5.94577 0.960011 5.72388Q1.06496 5.50198 1.18067 5.2855Q1.29638 5.06903 1.42257 4.85849Q1.54876 4.64795 1.68514 4.44385Q1.82151 4.23976 1.96773 4.0426Q2.11395 3.84545 2.26967 3.6557Q2.42539 3.46596 2.59023 3.28408Q2.75507 3.10221 2.92864 2.92864Q3.10221 2.75507 3.28408 2.59023Q3.46596 2.42539 3.6557 2.26967Q3.84545 2.11395 4.0426 1.96773Q4.23976 1.82151 4.44385 1.68514Q4.64795 1.54876 4.85849 1.42257Q5.06903 1.29638 5.2855 1.18067Q5.50198 1.06496 5.72388 0.960011Q5.94577 0.855062 6.17255 0.761128Q6.39932 0.667194 6.63044 0.584501Q6.86155 0.501807 7.09644 0.430553Q7.33134 0.3593 7.56944 0.299657Q7.80755 0.240015 8.04829 0.192128Q8.28904 0.144241 8.53184 0.108224Q8.77465 0.0722074 9.01893 0.0481479Q9.26321 0.0240885 9.50837 0.0120442Q9.75354 0 9.999 0Z" transform="translate(135.0932 0)" id="Rectangle-3" fill="#C98002" fill-rule="evenodd" stroke="none" />
    </g>
    <g id="Info" transform="translate(139.60004 77.50012)">
      <path d="M0 285C0 127.599 128.494 0 287 0C445.506 0 574 127.599 574 285C574 442.401 445.506 570 287 570C128.494 570 0 442.401 0 285Z" id="Ellipse" fill="#59ADFF" fill-rule="evenodd" stroke="none" />
      <g id="i" fill="#FFFFFF" transform="translate(71.75 71.25)">
        <path d="M237.833 371.587L274.454 371.587L274.454 391.118L157.267 391.118L157.267 371.587L193.888 371.587L193.888 202.642L157.267 202.642L157.267 183.11L237.833 183.11L237.833 371.587ZM215.86 114.263Q209.513 114.263 204.264 112.188Q199.015 110.112 194.986 106.206Q190.958 102.3 188.761 97.0508Q186.563 91.8018 186.563 85.21Q186.563 78.8623 188.883 73.4912Q191.202 68.1201 195.108 64.2139Q199.015 60.3076 204.386 58.1104Q209.757 55.9131 215.86 55.9131Q221.964 55.9131 227.335 57.9883Q232.706 60.0635 236.734 63.9697Q240.763 67.876 242.96 73.125Q245.157 78.374 245.157 84.9658Q245.157 91.5576 242.838 96.9287Q240.519 102.3 236.612 106.084Q232.706 109.868 227.335 112.065Q221.964 114.263 215.86 114.263Z" />
      </g>
    </g>
    <g id="Bio-2" transform="translate(1140.8 162.2898)">
      <path d="M95.5549 0.111275C124.325 -2.97123 127.108 58.9139 127.378 70.9163C127.402 72.0201 128.302 72.9151 129.406 72.9151L298.316 72.915C299.42 72.915 300.796 72.1599 301.389 71.2285C306.943 62.5006 332.167 22.8625 332.167 22.8625C341.735 14.195 355.386 14.6973 359.468 22.8624C370.844 45.6136 370.844 141.168 359.468 163.92C354.433 173.99 344.166 168.585 332.167 154.819L301.462 110.954C300.829 110.05 299.42 109.317 298.316 109.317L129.406 109.317C128.301 109.317 127.403 110.212 127.379 111.316C127.117 123.516 124.37 187.266 95.5549 182.121C63.7032 176.433 0 132.068 0 86.5657C0 41.0634 63.7032 3.52392 95.5549 0.111275Z" transform="translate(0 8.989014)" id="Rectangle" fill="#D3D3D3" fill-rule="evenodd" stroke="none" />
      <path d="M0 13.6507C0 6.11162 6.11162 0 13.6507 0C21.1898 0 27.3014 6.11162 27.3014 13.6507C27.3014 21.1898 21.1898 27.3014 13.6507 27.3014C6.11162 27.3014 0 21.1898 0 13.6507Z" transform="translate(54.602722 81.90405)" id="Ellipse" fill="#FFFFFF" fill-rule="evenodd" stroke="none" />
      <path d="M2.999 0L33.4028 0Q33.5502 0 33.6968 0.014441Q33.8434 0.028882 33.9879 0.0576249Q34.1324 0.0863679 34.2734 0.129136Q34.4144 0.171904 34.5505 0.228285Q34.6866 0.284667 34.8166 0.354118Q34.9465 0.42357 35.069 0.505423Q35.1915 0.587276 35.3054 0.680742Q35.4193 0.774208 35.5234 0.878387Q35.6276 0.982566 35.7211 1.09645Q35.8146 1.21034 35.8964 1.33284Q35.9783 1.45535 36.0477 1.58528Q36.1172 1.71522 36.1735 1.85133Q36.2299 1.98745 36.2727 2.12844Q36.3155 2.26942 36.3442 2.41392Q36.373 2.55842 36.3874 2.70505Q36.4018 2.85167 36.4018 2.999L36.4018 197.211Q36.4018 197.359 36.3874 197.505Q36.373 197.652 36.3442 197.796Q36.3155 197.941 36.2727 198.082Q36.2299 198.223 36.1736 198.359Q36.1172 198.495 36.0477 198.625Q35.9783 198.755 35.8964 198.877Q35.8146 199 35.7211 199.114Q35.6276 199.228 35.5235 199.332Q35.4193 199.436 35.3054 199.529Q35.1915 199.623 35.069 199.705Q34.9465 199.787 34.8166 199.856Q34.6866 199.925 34.5505 199.982Q34.4144 200.038 34.2734 200.081Q34.1324 200.124 33.9879 200.153Q33.8434 200.181 33.6968 200.196Q33.5502 200.21 33.4028 200.21L2.999 200.21Q2.85167 200.21 2.70505 200.196Q2.55842 200.181 2.41392 200.153Q2.26942 200.124 2.12844 200.081Q1.98745 200.038 1.85133 199.982Q1.71522 199.926 1.58528 199.856Q1.45535 199.787 1.33284 199.705Q1.21034 199.623 1.09645 199.529Q0.982566 199.436 0.878387 199.332Q0.774208 199.228 0.680742 199.114Q0.587276 199 0.505423 198.877Q0.42357 198.755 0.354118 198.625Q0.284667 198.495 0.228285 198.359Q0.171904 198.223 0.129136 198.082Q0.0863679 197.941 0.0576249 197.796Q0.028882 197.652 0.014441 197.505Q0 197.359 0 197.211L0 2.999Q0 2.85167 0.014441 2.70505Q0.028882 2.55842 0.0576249 2.41392Q0.0863679 2.26942 0.129136 2.12844Q0.171904 1.98745 0.228285 1.85133Q0.284667 1.71522 0.354118 1.58528Q0.42357 1.45535 0.505423 1.33284Q0.587276 1.21034 0.680742 1.09645Q0.774208 0.982566 0.878387 0.878387Q0.982566 0.774208 1.09645 0.680742Q1.21034 0.587276 1.33284 0.505423Q1.45535 0.42357 1.58528 0.354118Q1.71522 0.284667 1.85133 0.228285Q1.98745 0.171904 2.12844 0.129136Q2.26942 0.0863679 2.41392 0.0576249Q2.55842 0.028882 2.70505 0.014441Q2.85167 0 2.999 0L2.999 0Z" transform="translate(163.80823 0)" id="Rectangle-2" fill="#D3D3D3" fill-rule="evenodd" stroke="none" />
      <path d="M2.999 0L33.4029 0Q33.5502 0 33.6968 0.014441Q33.8434 0.028882 33.9879 0.0576249Q34.1324 0.0863679 34.2734 0.129136Q34.4144 0.171904 34.5505 0.228285Q34.6866 0.284667 34.8166 0.354118Q34.9465 0.42357 35.069 0.505423Q35.1915 0.587276 35.3054 0.680742Q35.4193 0.774208 35.5235 0.878387Q35.6276 0.982566 35.7211 1.09645Q35.8146 1.21034 35.8964 1.33284Q35.9783 1.45535 36.0477 1.58528Q36.1172 1.71522 36.1736 1.85133Q36.2299 1.98745 36.2727 2.12844Q36.3155 2.26942 36.3442 2.41392Q36.373 2.55842 36.3874 2.70505Q36.4019 2.85167 36.4019 2.999L36.4019 142.608Q36.4019 142.756 36.3874 142.902Q36.373 143.049 36.3442 143.193Q36.3155 143.338 36.2727 143.479Q36.2299 143.62 36.1736 143.756Q36.1172 143.892 36.0477 144.022Q35.9783 144.152 35.8964 144.275Q35.8146 144.397 35.7211 144.511Q35.6276 144.625 35.5235 144.729Q35.4193 144.833 35.3054 144.927Q35.1915 145.02 35.069 145.102Q34.9465 145.184 34.8166 145.253Q34.6866 145.323 34.5505 145.379Q34.4144 145.436 34.2734 145.478Q34.1324 145.521 33.9879 145.55Q33.8434 145.579 33.6968 145.593Q33.5502 145.607 33.4029 145.607L2.999 145.607Q2.85167 145.607 2.70505 145.593Q2.55842 145.579 2.41392 145.55Q2.26942 145.521 2.12844 145.478Q1.98745 145.435 1.85133 145.379Q1.71522 145.323 1.58528 145.253Q1.45535 145.184 1.33284 145.102Q1.21034 145.02 1.09645 144.927Q0.982566 144.833 0.878387 144.729Q0.774208 144.625 0.680742 144.511Q0.587276 144.397 0.505423 144.275Q0.42357 144.152 0.354118 144.022Q0.284667 143.892 0.228285 143.756Q0.171904 143.62 0.129136 143.479Q0.0863679 143.338 0.0576249 143.193Q0.028882 143.049 0.014441 142.902Q0 142.756 0 142.608L0 2.999Q0 2.85167 0.014441 2.70505Q0.028882 2.55842 0.0576249 2.41392Q0.0863679 2.26942 0.129136 2.12844Q0.171904 1.98745 0.228285 1.85133Q0.284667 1.71522 0.354118 1.58528Q0.42357 1.45535 0.505423 1.33284Q0.587276 1.21034 0.680742 1.09645Q0.774208 0.982566 0.878387 0.878387Q0.982566 0.774208 1.09645 0.680742Q1.21034 0.587276 1.33284 0.505423Q1.45535 0.42357 1.58528 0.354118Q1.71522 0.284667 1.85133 0.228285Q1.98745 0.171904 2.12844 0.129136Q2.26942 0.0863679 2.41392 0.0576249Q2.55842 0.028882 2.70505 0.014441Q2.85167 0 2.999 0Z" transform="translate(236.61188 27.301392)" id="Rectangle-3" fill="#D3D3D3" fill-rule="evenodd" stroke="none" />
    </g>
    <g id="Papier-2" transform="translate(1395.9998 434.50012)">
      <path d="M198.818 0L266.984 61.884L272.664 92.826L306.747 111.391L363.552 105.203L403.316 111.391L408.996 129.956L363.552 216.594L386.274 272.29L386.274 358.927L306.747 377.492L244.262 426.999L193.137 408.434L96.5686 414.623L0 327.985L34.083 272.29L62.4855 266.101L51.1245 241.348L51.1245 148.522L96.5686 61.884L142.013 61.884L198.818 0Z" transform="translate(0 0.00048828125)" id="Triangle" fill="#AFAFAF" fill-rule="evenodd" stroke="none" />
      <path d="M11.361 0L90.8881 0L73.8465 43.3188L0 49.5072L11.361 0Z" transform="translate(85.20752 61.884277)" id="Rectangle" fill="#FFFFFF" fill-rule="evenodd" stroke="none" />
      <path d="M0 0L96.5686 24.7536L45.444 86.6376L0 0Z" transform="translate(85.20752 111.3916)" id="Triangle-2" fill="#D3D3D3" fill-rule="evenodd" stroke="none" />
      <path d="M56.6449 0L124.971 61.8844L0 61.8844L56.6449 0Z" transform="translate(142.01251 0)" id="Triangle-3" fill="#D3D3D3" fill-rule="evenodd" stroke="none" />
      <path d="M85.2076 0L73.8466 43.3188L0 43.3188L85.2076 0Z" transform="translate(181.776 92.82617)" id="Triangle-4" fill="#FFFFFF" fill-rule="evenodd" stroke="none" />
      <path d="M0 6.1884L51.1245 0L11.361 24.7536L0 6.1884Z" transform="translate(312.42767 105.203125)" id="Triangle-5" fill="#7B7B7B" fill-rule="evenodd" stroke="none" />
      <path d="M39.7635 6.1884L45.444 24.7536L39.7635 37.1304L0 0L39.7635 6.1884Z" transform="translate(363.5522 105.203125)" id="Triangle-6" fill="#D3D3D3" fill-rule="evenodd" stroke="none" />
      <path d="M68.166 0L68.166 30.942L0 24.7536L68.166 0Z" transform="translate(62.485474 198.02917)" id="Triangle-7" fill="#D3D3D3" fill-rule="evenodd" stroke="none" />
      <path d="M11.361 0L79.5271 6.1884L0 18.5652L11.361 0Z" transform="translate(51.12451 222.7826)" id="Triangle-8" fill="#BFBFBF" fill-rule="evenodd" stroke="none" />
      <path d="M34.083 0L62.4855 49.5072L45.444 61.884L0 55.6956L34.083 0Z" transform="translate(0 272.28992)" id="Triangle-9" fill="#D3D3D3" fill-rule="evenodd" stroke="none" />
      <path d="M68.1661 0L68.1661 80.4492L0 74.2608L68.1661 0Z" transform="matrix(1 0 0 -1 255.62274 210.40564)" id="Triangle-10" fill="#BFBFBF" fill-rule="evenodd" stroke="none" />
      <path d="M19.8818 0L39.7635 24.7536L0 30.942L19.8818 0Z" transform="matrix(1 0 0 -1 323.78876 241.34802)" id="Triangle-11" fill="#D3D3D3" fill-rule="evenodd" stroke="none" />
      <path d="M68.166 18.5652L79.5271 6.1884L90.8881 0L124.971 0L102.249 18.5652L96.5686 37.1304L79.5271 55.6956L0 61.884L68.166 18.5652Z" transform="translate(62.485474 259.91296)" id="Triangle-12" fill="#D3D3D3" fill-rule="evenodd" stroke="none" />
      <path d="M45.444 0L62.4855 80.4492L34.083 105.203L0 55.6956L17.0415 37.1304L22.722 18.5652L45.444 0Z" transform="translate(142.01251 259.91296)" id="Triangle-13" fill="#BFBFBF" fill-rule="evenodd" stroke="none" />
      <path d="M22.722 0L62.4855 0L0 49.5072L22.722 0Z" transform="translate(244.26166 377.49255)" id="Triangle-14" fill="#FFFFFF" fill-rule="evenodd" stroke="none" />
      <path d="M39.7635 24.7536L45.444 12.3768L68.1661 0L85.2076 24.7536L90.8881 37.1304L96.5686 61.884L0 68.0724L39.7635 24.7536Z" transform="translate(96.56848 346.55066)" id="Triangle-15" fill="#D3D3D3" fill-rule="evenodd" stroke="none" />
      <path d="M79.5271 55.6956L79.5271 142.333L0 160.898L34.083 111.391L56.805 0L79.5271 55.6956Z" transform="translate(306.74725 216.59412)" id="Triangle-16" fill="#D3D3D3" fill-rule="evenodd" stroke="none" />
      <path d="M62.4842 0L51.1232 55.6956L0 68.0724L62.4842 0Z" transform="translate(301.0667 216.59412)" id="Triangle-17" fill="#FFFFFF" fill-rule="evenodd" stroke="none" />
      <path d="M0 0L68.1661 37.1304L0 30.942L0 0Z" transform="translate(130.65149 198.02917)" id="Triangle-18" fill="#FFFFFF" fill-rule="evenodd" stroke="none" />
      <path d="M0 0L142.013 74.2608L17.0415 99.0144L0 0Z" transform="translate(181.776 136.14502)" id="Triangle-19" fill="#D3D3D3" fill-rule="evenodd" stroke="none" />
      <path d="M34.083 0L51.1245 55.6956L0 111.391L34.083 0Z" transform="translate(204.49823 228.97107)" id="Triangle-20" fill="#D3D3D3" fill-rule="evenodd" stroke="none" />
      <path d="M11.361 0L39.7635 24.7536L0 24.7536L11.361 0Z" transform="translate(187.45648 235.15955)" id="Triangle-21" fill="#FFFFFF" fill-rule="evenodd" stroke="none" />
      <path d="M68.166 0L68.166 49.5072L0 37.1304L68.166 0Z" transform="translate(62.485474 228.97107)" id="Triangle-22" fill="#BFBFBF" fill-rule="evenodd" stroke="none" />
      <path d="M62.4855 0L73.8466 92.8259L0 123.768L62.4855 0Z" transform="translate(193.1358 284.66687)" id="Triangle-23" fill="#D3D3D3" fill-rule="evenodd" stroke="none" />
      <path d="M34.083 0L73.8466 43.3188L0 92.826L34.083 0Z" transform="translate(266.9837 284.66687)" id="Triangle-24" fill="#D3D3D3" fill-rule="evenodd" stroke="none" />
      <path d="M68.1661 0L45.4441 74.2608L0 74.2608L68.1661 0Z" transform="translate(255.62274 210.40564)" id="Triangle-25" fill="#D3D3D3" fill-rule="evenodd" stroke="none" />
      <path d="M22.722 0L96.5685 30.942L0 55.6956L22.722 0Z" transform="matrix(1 0 0 -1 45.44403 389.8695)" id="Triangle-26" fill="#FFFFFF" fill-rule="evenodd" stroke="none" />
      <path d="M45.444 0L45.444 86.6376L0 55.6956L45.444 0Z" transform="translate(340.83026 272.28992)" id="Triangle-27" fill="#FFFFFF" fill-rule="evenodd" stroke="none" />
      <path d="M34.083 0L11.361 111.391L0 37.1304L34.083 0Z" transform="translate(51.12451 111.3916)" id="Triangle-28" fill="#D3D3D3" fill-rule="evenodd" stroke="none" />
      <path d="M39.7635 0L62.4869 68.0724L0 105.203L39.7635 0Z" transform="translate(323.7873 105.203125)" id="Triangle-29" fill="#D3D3D3" fill-rule="evenodd" stroke="none" />
    </g>
    <g id="Plastik-2" transform="translate(1007.19977 461.10352)">
      <g id="Rectangle">
        <use stroke="none" fill="#D3D3D3" xlink:href="#path_1" fill-rule="evenodd" />
        <g clip-path="url(#clip_1)">
          <use xlink:href="#path_1" fill="none" stroke="#59ADFF" stroke-width="1" />
        </g>
      </g>
      <path d="M0.999 0L84.6778 0Q84.7762 0 84.8727 0.0191955Q84.9692 0.038391 85.0601 0.0760444Q85.151 0.113698 85.2328 0.168362Q85.3146 0.223026 85.3842 0.2926Q85.4538 0.362175 85.5084 0.443985Q85.5631 0.525796 85.6008 0.616699Q85.6384 0.707603 85.6576 0.804105Q85.6768 0.900607 85.6768 0.999L85.6768 30.4158Q85.6768 30.5142 85.6576 30.6107Q85.6384 30.7072 85.6007 30.7981Q85.5631 30.889 85.5084 30.9709Q85.4538 31.0527 85.3842 31.1222Q85.3146 31.1918 85.2328 31.2465Q85.151 31.3011 85.0601 31.3388Q84.9692 31.3764 84.8727 31.3956Q84.7762 31.4148 84.6778 31.4148L0.999 31.4148Q0.900607 31.4148 0.804105 31.3956Q0.707602 31.3764 0.616699 31.3388Q0.525796 31.3011 0.443985 31.2465Q0.362175 31.1918 0.2926 31.1222Q0.223026 31.0527 0.168362 30.9709Q0.113698 30.889 0.0760443 30.7981Q0.038391 30.7072 0.0191955 30.6107Q0 30.5142 0 30.4158L0 0.999Q0 0.900607 0.0191955 0.804105Q0.038391 0.707602 0.0760443 0.616699Q0.113698 0.525796 0.168362 0.443985Q0.223026 0.362175 0.2926 0.2926Q0.362175 0.223026 0.443985 0.168362Q0.525796 0.113698 0.616699 0.0760443Q0.707602 0.038391 0.804105 0.0191955Q0.900607 0 0.999 0Z" transform="translate(35.700256 0)" id="Rectangle-2" fill="#59ADFF" fill-rule="evenodd" stroke="none" />
      <path d="M0 0L113.093 0L113.093 62.8297L0 62.8297L0 0Z" transform="translate(21.9906 157.07422)" id="Rectangle" fill="#59ADFF" fill-rule="evenodd" stroke="none" />
    </g>
    <path d="M0 0L507.5 276" transform="translate(1085.9999 930)" id="Arrow-4" fill="none" fill-rule="evenodd" stroke="#FC4850" stroke-width="15" />
    <path d="M769 0L0 276" transform="translate(322.49988 929.5)" id="Arrow-3" fill="none" fill-rule="evenodd" stroke="#FC4850" stroke-width="15" />
    <path d="M0 0L90.5 276" transform="translate(1085.9999 929.5)" id="Arrow-2" fill="none" fill-rule="evenodd" stroke="#FC4850" stroke-width="15" />
    <path d="M360.5 0L0 275.5" transform="translate(730.9999 930)" id="Arrow" fill="none" fill-rule="evenodd" stroke="#FC4850" stroke-width="15" />
  </g>
</svg>