<?xml version="1.0" encoding="utf-8"?>
<svg width="140px" height="250px" viewBox="0 0 140 250" version="1.1" xmlns:xlink="http://www.w3.org/1999/xlink" xmlns="http://www.w3.org/2000/svg">
  <g id="Batterie">
    <path d="M20.0466 10.9608L55.6793 11.0457L55.6793 1.999Q55.6793 1.9008 55.6889 1.80306Q55.6985 1.70533 55.7177 1.60901Q55.7369 1.5127 55.7654 1.41872Q55.7939 1.32474 55.8315 1.23402Q55.869 1.14329 55.9153 1.05668Q55.9616 0.970069 56.0162 0.888415Q56.0707 0.806761 56.133 0.730848Q56.1953 0.654935 56.2648 0.585494Q56.3342 0.516052 56.4101 0.453752Q56.486 0.391452 56.5677 0.336892Q56.6494 0.282333 56.736 0.236039Q56.8226 0.189746 56.9133 0.152165Q57.004 0.114584 57.098 0.0860763Q57.192 0.057569 57.2883 0.0384102Q57.3846 0.0192515 57.4824 0.00962573Q57.5801 0 57.6783 0L81.5199 0Q81.6181 0 81.7159 0.00962573Q81.8136 0.0192515 81.9099 0.0384102Q82.0062 0.057569 82.1002 0.0860763Q82.1942 0.114584 82.2849 0.152165Q82.3756 0.189746 82.4622 0.236039Q82.5489 0.282333 82.6305 0.336892Q82.7122 0.391452 82.7881 0.453752Q82.864 0.516052 82.9334 0.585494Q83.0029 0.654935 83.0652 0.730848Q83.1275 0.806761 83.182 0.888415Q83.2366 0.970069 83.2829 1.05668Q83.3292 1.14329 83.3668 1.23402Q83.4044 1.32474 83.4329 1.41872Q83.4614 1.5127 83.4805 1.60901Q83.4997 1.70533 83.5093 1.80306Q83.5189 1.9008 83.5189 1.999L83.5189 11.0457L119.199 11.0457Q119.69 11.0457 120.181 11.0697Q120.671 11.0938 121.159 11.142Q121.648 11.1901 122.134 11.2621Q122.619 11.3342 123.101 11.4299Q123.582 11.5257 124.059 11.645Q124.535 11.7643 125.005 11.9068Q125.474 12.0493 125.937 12.2147Q126.399 12.3801 126.853 12.568Q127.306 12.7559 127.75 12.9658Q128.194 13.1757 128.627 13.4071Q129.06 13.6385 129.481 13.8909Q129.902 14.1433 130.31 14.4161Q130.718 14.6889 131.113 14.9813Q131.507 15.2738 131.886 15.5852Q132.266 15.8967 132.63 16.2264Q132.993 16.5561 133.341 16.9032Q133.688 17.2504 134.018 17.6141Q134.347 17.9779 134.659 18.3574Q134.97 18.7369 135.263 19.1313Q135.555 19.5256 135.828 19.9338Q136.101 20.342 136.353 20.7631Q136.605 21.1842 136.837 21.6172Q137.068 22.0502 137.278 22.494Q137.488 22.9378 137.676 23.3914Q137.864 23.8449 138.029 24.3072Q138.195 24.7694 138.337 25.2393Q138.48 25.7091 138.599 26.1853Q138.718 26.6615 138.814 27.143Q138.91 27.6246 138.982 28.1102Q139.054 28.5958 139.102 29.0844Q139.15 29.573 139.174 30.0634Q139.198 30.5537 139.198 31.0447L139.198 230.001Q139.198 230.492 139.174 230.982Q139.15 231.473 139.102 231.961Q139.054 232.45 138.982 232.935Q138.91 233.421 138.814 233.903Q138.718 234.384 138.599 234.86Q138.48 235.337 138.337 235.806Q138.195 236.276 138.029 236.738Q137.864 237.201 137.676 237.654Q137.488 238.108 137.278 238.552Q137.068 238.995 136.837 239.428Q136.605 239.861 136.353 240.283Q136.101 240.704 135.828 241.112Q135.555 241.52 135.263 241.914Q134.97 242.309 134.659 242.688Q134.347 243.068 134.018 243.431Q133.688 243.795 133.341 244.142Q132.993 244.49 132.63 244.819Q132.266 245.149 131.886 245.46Q131.507 245.772 131.113 246.064Q130.718 246.357 130.31 246.63Q129.902 246.902 129.481 247.155Q129.06 247.407 128.627 247.639Q128.194 247.87 127.75 248.08Q127.306 248.29 126.853 248.478Q126.399 248.665 125.937 248.831Q125.474 248.996 125.005 249.139Q124.535 249.281 124.059 249.401Q123.582 249.52 123.101 249.616Q122.619 249.711 122.134 249.784Q121.648 249.856 121.159 249.904Q120.671 249.952 120.181 249.976Q119.69 250 119.199 250L19.999 250Q19.5081 250 19.0177 249.976Q18.5273 249.952 18.0388 249.904Q17.5502 249.856 17.0645 249.784Q16.5789 249.711 16.0974 249.616Q15.6159 249.52 15.1396 249.401Q14.6634 249.281 14.1936 249.139Q13.7238 248.996 13.2615 248.831Q12.7993 248.665 12.3457 248.478Q11.8921 248.29 11.4483 248.08Q11.0045 247.87 10.5715 247.639Q10.1386 247.407 9.71746 247.155Q9.29636 246.902 8.88815 246.63Q8.47994 246.357 8.08561 246.064Q7.69128 245.772 7.31177 245.46Q6.93226 245.149 6.56849 244.819Q6.20472 244.49 5.85757 244.142Q5.51042 243.795 5.18072 243.431Q4.85102 243.068 4.53956 242.688Q4.22811 242.309 3.93565 241.914Q3.64319 241.52 3.37044 241.112Q3.09768 240.704 2.84529 240.283Q2.59289 239.861 2.36146 239.428Q2.13003 238.995 1.92012 238.552Q1.71021 238.108 1.52233 237.654Q1.33446 237.201 1.16906 236.738Q1.00366 236.276 0.86115 235.806Q0.718635 235.337 0.599345 234.86Q0.480054 234.384 0.384275 233.903Q0.288496 233.421 0.216459 232.935Q0.144422 232.45 0.0963006 231.961Q0.0481793 231.473 0.0240897 230.982Q0 230.492 0 230.001L0 30.9598Q0 30.4681 0.0241627 29.977Q0.0483254 29.4859 0.0965925 28.9966Q0.14486 28.5073 0.217114 28.0209Q0.289369 27.5346 0.385437 27.0523Q0.481505 26.5701 0.601154 26.0932Q0.720802 25.6163 0.863743 25.1458Q1.00668 24.6754 1.17257 24.2125Q1.33846 23.7497 1.52689 23.2955Q1.71532 22.8414 1.92585 22.397Q2.13637 21.9527 2.36847 21.5192Q2.60058 21.0858 2.8537 20.6642Q3.10683 20.2427 3.38036 19.8341Q3.6539 19.4255 3.94718 19.0309Q4.24046 18.6362 4.55278 18.2565Q4.86511 17.8767 5.19571 17.5128Q5.52632 17.1488 5.87441 16.8015Q6.2225 16.4543 6.58724 16.1245Q6.95198 15.7948 7.33248 15.4834Q7.71298 15.172 8.10833 14.8796Q8.50367 14.5873 8.9129 14.3147Q9.32213 14.0422 9.74427 13.79Q10.1664 13.5379 10.6004 13.3068Q11.0344 13.0758 11.4793 12.8663Q11.9241 12.6568 12.3787 12.4695Q12.8333 12.2821 13.2966 12.1174Q13.7598 11.9526 14.2306 11.8107Q14.7014 11.6689 15.1786 11.5504Q15.6558 11.4319 16.1383 11.337Q16.6207 11.2421 17.1072 11.171Q17.5937 11.0999 18.0832 11.0528Q18.5726 11.0057 19.0638 10.9827Q19.5549 10.9597 20.0466 10.9608Z" transform="translate(6.1035156E-05 0)" id="Rectangle" fill="#D3D3D3" fill-rule="evenodd" stroke="none" />
    <path d="M0 0L139.198 0L139.198 183.742L0 183.742L0 0Z" transform="translate(0 37.081238)" id="Rectangle-2" fill="#0E0E0E" fill-rule="evenodd" stroke="none" />
    <path d="M0 0L139.198 0L139.198 7.36377L0 7.36377L0 0Z" transform="translate(0 42.512573)" id="Rectangle-3" fill="#AB0000" fill-rule="evenodd" stroke="none" />
    <path d="M0 0L139.198 0L139.198 7.36375L0 7.36375L0 0Z" transform="translate(0 206.01343)" id="Rectangle-4" fill="#AB0000" fill-rule="evenodd" stroke="none" />
    <path d="M0 31.296L29.5796 0L17.3998 31.296L38.2795 46.0236L0 88.3652L17.3998 53.3873L0 31.296Z" transform="translate(52.19934 79.16046)" id="Rectangle-5" fill="#FAE800" fill-rule="evenodd" stroke="none" />
  </g>
</svg>