<?xml version="1.0" encoding="utf-8"?>
<svg width="99px" height="250px" viewBox="0 0 99 250" version="1.1" xmlns:xlink="http://www.w3.org/1999/xlink" xmlns="http://www.w3.org/2000/svg">
  <defs>
    <path d="M1.09551 29.9371L26.1995 17.2175Q26.323 17.1549 26.4248 17.0611Q26.5267 16.9673 26.5992 16.8493Q26.6716 16.7313 26.7093 16.5981Q26.747 16.4648 26.747 16.3264L26.747 3.68699Q26.747 3.38802 26.5827 3.1382L24.5196 0L29.4347 0L73.5567 0L71.4908 3.13801Q71.3261 3.38802 71.3261 3.68735L71.3261 16.3263Q71.3261 16.4648 71.3638 16.5981Q71.4015 16.7313 71.4739 16.8493Q71.5464 16.9673 71.6483 17.0611Q71.7501 17.1549 71.8736 17.2175L96.9787 29.9371Q97.1017 29.9994 97.2149 30.078Q97.3282 30.1566 97.4296 30.2501Q97.531 30.3435 97.6186 30.4499Q97.7062 30.5564 97.7784 30.6739Q97.8506 30.7914 97.906 30.9176Q97.9613 31.0439 97.9988 31.1766Q98.0363 31.3093 98.0553 31.4458Q98.0742 31.5824 98.0742 31.7203L98.0742 60.0863Q98.0742 60.5257 97.9482 60.9466Q97.8221 61.3675 97.5806 61.7346L85.03 80.8124Q84.869 81.0571 84.785 81.3376Q84.701 81.6182 84.701 81.911L84.701 134.892Q84.701 135.521 84.9535 136.097L97.8217 165.437Q98.0742 166.013 98.0742 166.642L98.0742 231.774Q98.0742 231.872 98.0646 231.97Q98.0549 232.068 98.0358 232.164Q98.0166 232.26 97.9881 232.354Q97.9596 232.448 97.922 232.539Q97.8845 232.63 97.8382 232.717Q97.7919 232.803 97.7373 232.885Q97.6827 232.966 97.6204 233.042Q97.5582 233.118 97.4887 233.188Q97.4193 233.257 97.3434 233.319Q97.2674 233.382 97.1858 233.436Q97.1041 233.491 97.0175 233.537Q96.9309 233.583 96.8402 233.621Q96.7494 233.659 96.6555 233.687Q96.5615 233.716 96.4652 233.735Q96.3689 233.754 96.2711 233.764Q96.1734 233.773 96.0752 233.773L1.999 233.773Q1.9008 233.773 1.80306 233.764Q1.70533 233.754 1.60901 233.735Q1.5127 233.716 1.41872 233.687Q1.32474 233.659 1.23402 233.621Q1.14329 233.583 1.05668 233.537Q0.970069 233.491 0.888415 233.436Q0.806761 233.382 0.730848 233.319Q0.654935 233.257 0.585494 233.188Q0.516052 233.118 0.453752 233.042Q0.391452 232.966 0.336892 232.885Q0.282333 232.803 0.236039 232.717Q0.189746 232.63 0.152165 232.539Q0.114584 232.448 0.0860763 232.354Q0.057569 232.261 0.0384102 232.164Q0.0192515 232.068 0.00962573 231.97Q0 231.872 0 231.774L0 166.642Q0 166.013 0.252552 165.437L13.1212 136.097Q13.3738 135.521 13.3738 134.892L13.3738 81.9111Q13.3738 81.6182 13.2897 81.3376Q13.2057 81.057 13.0448 80.8124L0.493584 61.7346Q0.25209 61.3675 0.126045 60.9466Q0 60.5257 0 60.0863L0 31.7203Q0 31.5824 0.0189295 31.4458Q0.037859 31.3093 0.0753594 31.1766Q0.11286 31.0439 0.168221 30.9176Q0.223582 30.7913 0.295756 30.6739Q0.367929 30.5564 0.455548 30.4499Q0.543167 30.3435 0.644572 30.2501Q0.745977 30.1566 0.859247 30.078Q0.972517 29.9994 1.09551 29.9371L1.09551 29.9371Z" transform="translate(0 16.226807)" id="path_1" />
    <clipPath id="clip_1">
      <use xlink:href="#path_1" />
    </clipPath>
  </defs>
  <g id="Plastik">
    <g id="Rectangle">
      <use stroke="none" fill="#D3D3D3" xlink:href="#path_1" fill-rule="evenodd" />
      <g clip-path="url(#clip_1)">
        <use xlink:href="#path_1" fill="none" stroke="#59ADFF" stroke-width="1" />
      </g>
    </g>
    <path d="M0.999 0L52.496 0Q52.5944 0 52.6909 0.0191955Q52.7874 0.038391 52.8783 0.0760444Q52.9692 0.113698 53.051 0.168362Q53.1328 0.223026 53.2024 0.2926Q53.272 0.362175 53.3266 0.443985Q53.3813 0.525796 53.419 0.616699Q53.4566 0.707603 53.4758 0.804105Q53.495 0.900607 53.495 0.999L53.495 18.6158Q53.495 18.7142 53.4758 18.8107Q53.4566 18.9072 53.4189 18.9981Q53.3813 19.089 53.3266 19.1709Q53.272 19.2527 53.2024 19.3222Q53.1328 19.3918 53.051 19.4465Q52.9692 19.5011 52.8783 19.5388Q52.7874 19.5764 52.6909 19.5956Q52.5944 19.6148 52.496 19.6148L0.999 19.6148Q0.900607 19.6148 0.804105 19.5956Q0.707602 19.5764 0.616699 19.5388Q0.525796 19.5011 0.443985 19.4465Q0.362175 19.3918 0.2926 19.3222Q0.223026 19.2527 0.168362 19.1709Q0.113698 19.089 0.0760443 18.9981Q0.038391 18.9072 0.0191955 18.8107Q0 18.7142 0 18.6158L0 0.999Q0 0.900607 0.0191955 0.804105Q0.038391 0.707602 0.0760443 0.616699Q0.113698 0.525796 0.168362 0.443985Q0.223026 0.362175 0.2926 0.2926Q0.362175 0.223026 0.443985 0.168362Q0.525796 0.113698 0.616699 0.0760443Q0.707602 0.038391 0.804105 0.0191955Q0.900607 0 0.999 0L0.999 0Z" transform="translate(22.290588 0)" id="Rectangle-2" fill="#59ADFF" fill-rule="evenodd" stroke="none" />
    <path d="M0 0L70.6134 0L70.6134 39.2297L0 39.2297L0 0Z" transform="translate(13.73053 98.074066)" id="Rectangle" fill="#59ADFF" fill-rule="evenodd" stroke="none" />
  </g>
</svg>